<?xml version="1.0" encoding="UTF-8"?>
<svg id="Layer_1" data-name="Layer 1" xmlns="http://www.w3.org/2000/svg" version="1.1" viewBox="0 0 1200 700">
  <defs>
    <style>
      .cls-1, .cls-2 {
        fill: #d1628e;
      }

      .cls-1, .cls-3 {
        stroke: #fff;
        stroke-miterlimit: 10;
        stroke-width: 3px;
      }

      .cls-4, .cls-5, .cls-2, .cls-6 {
        stroke-width: 0px;
      }

      .cls-4, .cls-3 {
        fill: #0078b4;
      }

      .cls-5 {
        fill: #000;
      }

      .cls-7 {
        font-family: Rubik-SemiBold, Rubik;
        font-size: 24px;
        font-weight: 600;
      }

      .cls-7, .cls-6 {
        fill: #fff;
      }
    </style>
  </defs>
  <g>
    <path class="cls-3" d="M332.7,340.9l217.8,11.4c-6.3,120.3-108.9,212.7-229.2,206.4-120.3-6.3-212.7-108.9-206.4-229.2,6.1-115.5,102.2-206.7,217.8-206.7v218.1Z"/>
    <path class="cls-1" d="M332.7,340.9V122.8c120.5,0,218.1,97.7,218.1,218.1s0,6.6-.3,11.4l-217.8-11.4Z"/>
    <g>
      <path class="cls-3" d="M866.1,340.9l214.8,37.9c-20.9,118.6-134,197.8-252.7,176.9-118.6-20.9-197.8-134-176.9-252.7,18.4-104.4,108.8-180.2,214.8-180.2v218.1Z"/>
      <path class="cls-1" d="M866.1,340.9V122.8c120.5,0,218.1,97.6,218.1,218.1s-.8,23.6-3.3,37.9l-214.8-37.9Z"/>
    </g>
  </g>
  <g>
    <path class="cls-5" d="M263.3,74.9c-2,0-3.7-.3-5.1-1-1.4-.7-2.5-1.7-3.2-2.9-.8-1.3-1.2-2.9-1.3-4.7,0-.9,0-1.8,0-2.8s0-2,0-2.9c0-1.8.5-3.4,1.3-4.7.8-1.3,1.9-2.3,3.3-3s3.1-1,5.1-1,2.7.2,3.9.5c1.2.4,2.2.9,3,1.6.9.7,1.5,1.5,2,2.4.5.9.7,1.9.8,3.1,0,.2,0,.4-.2.5-.1.1-.3.2-.5.2h-3.6c-.3,0-.5,0-.6-.2-.1-.1-.3-.3-.4-.6-.3-1.3-.9-2.1-1.6-2.6-.7-.5-1.7-.7-2.8-.7s-2.4.4-3.1,1.1c-.8.7-1.2,1.9-1.2,3.6,0,1.7,0,3.5,0,5.4,0,1.7.5,2.9,1.2,3.6.8.7,1.8,1.1,3.1,1.1s2-.2,2.8-.7c.8-.5,1.3-1.3,1.6-2.6,0-.3.2-.5.4-.7.2-.1.4-.2.6-.2h3.6c.2,0,.4,0,.5.2s.2.3.2.5c0,1.1-.3,2.2-.8,3.1-.5.9-1.1,1.7-2,2.4-.9.7-1.9,1.2-3,1.6s-2.5.5-3.9.5Z"/>
    <path class="cls-5" d="M283.9,74.9c-1.8,0-3.3-.3-4.4-.9-1.2-.6-2.1-1.4-2.7-2.5-.6-1.1-1-2.4-1-3.8,0-.4,0-.9,0-1.5s0-1,0-1.4c0-1.5.4-2.7,1.1-3.8.7-1.1,1.6-1.9,2.8-2.5,1.2-.6,2.6-.9,4.4-.9s3.1.3,4.3.9c1.2.6,2.1,1.4,2.8,2.5.7,1.1,1,2.4,1.1,3.8,0,.4,0,.9,0,1.4s0,1,0,1.5c0,1.5-.4,2.7-1,3.8-.6,1.1-1.5,1.9-2.7,2.5-1.2.6-2.7.9-4.4.9ZM283.9,71.4c1,0,1.8-.3,2.4-1,.5-.7.8-1.6.9-2.9,0-.3,0-.7,0-1.3s0-1,0-1.3c0-1.2-.3-2.2-.9-2.8-.5-.7-1.3-1-2.4-1s-1.8.3-2.4,1c-.5.7-.8,1.6-.9,2.8,0,.3,0,.7,0,1.3s0,1,0,1.3c0,1.3.3,2.2.9,2.9.5.7,1.3,1,2.4,1Z"/>
    <path class="cls-5" d="M296.2,74.6c-.2,0-.4,0-.5-.2-.1-.1-.2-.3-.2-.6v-15c0-.2,0-.4.2-.6.1-.2.3-.2.5-.2h3.1c.2,0,.4,0,.6.2s.2.3.2.6v1.3c.5-.7,1.2-1.2,2-1.5.8-.4,1.7-.5,2.7-.5h1.4c.2,0,.4,0,.5.2.1.1.2.3.2.6v2.8c0,.2,0,.4-.2.6s-.3.2-.5.2h-2.8c-.9,0-1.7.3-2.2.8-.5.5-.8,1.3-.8,2.2v8.5c0,.2,0,.4-.2.6s-.3.2-.6.2h-3.4Z"/>
    <path class="cls-5" d="M316.6,74.9c-2.5,0-4.4-.7-5.8-2-1.4-1.4-2.2-3.3-2.3-6v-1.4c0-1.6.5-3.1,1.1-4.2.7-1.2,1.6-2.1,2.8-2.7s2.6-.9,4.2-.9,3.3.4,4.5,1.1c1.2.7,2.1,1.7,2.7,3s.9,2.7.9,4.4v.7c0,.2,0,.4-.2.5-.2.2-.3.2-.6.2h-10.5v.3c0,.7.2,1.3.4,1.9s.6,1,1.1,1.4c.5.3,1,.5,1.6.5s1,0,1.3-.2c.3-.1.6-.3.8-.5.2-.2.4-.4.5-.5.2-.2.3-.3.5-.4s.3,0,.6,0h3.3c.2,0,.4,0,.5.2s.2.3.2.5c0,.3-.2.8-.5,1.3-.3.5-.8,1-1.5,1.5-.6.5-1.4.9-2.4,1.2-.9.3-2,.5-3.3.5ZM313.5,64.7h6.3c0-.8-.1-1.5-.4-2.1-.2-.6-.6-1-1.1-1.3-.5-.3-1-.5-1.7-.5s-1.2.2-1.7.5c-.5.3-.8.8-1.1,1.3-.2.6-.4,1.2-.4,2h0Z"/>
    <path class="cls-5" d="M340.1,74.6c-.3,0-.6,0-.7-.2s-.3-.3-.4-.6l-6-14.8c0,0,0-.2,0-.3,0-.2,0-.4.2-.5s.3-.2.5-.2h3.1c.3,0,.5,0,.6.2.1.1.2.3.3.4l3.9,10.6,3.9-10.6c0-.1.2-.3.3-.4.1-.1.3-.2.6-.2h3.1c.2,0,.4,0,.5.2.1.1.2.3.2.5s0,.2,0,.3l-6,14.8c0,.2-.2.4-.4.6-.2.2-.4.2-.7.2h-2.9Z"/>
    <path class="cls-5" d="M358.9,74.9c-1.3,0-2.5-.2-3.4-.5-.9-.3-1.7-.7-2.3-1.1-.6-.4-1-.9-1.3-1.4s-.4-.8-.5-1.2c0-.2,0-.4.2-.6s.3-.2.5-.2h3.1c0,0,.1,0,.2,0,0,0,.1,0,.2.2.3.2.6.4.9.7s.6.5,1,.6.9.3,1.5.3,1.3-.1,1.8-.4c.5-.3.7-.7.7-1.2s-.1-.7-.3-1c-.2-.3-.6-.5-1.3-.7-.6-.2-1.5-.4-2.8-.7-1.2-.3-2.1-.6-2.9-1s-1.4-1-1.8-1.6c-.4-.7-.6-1.4-.6-2.4s.3-1.6.8-2.4c.5-.8,1.3-1.4,2.3-1.9,1-.5,2.3-.8,3.8-.8s2.2.1,3.1.4c.9.3,1.6.7,2.2,1.1s1.1.9,1.4,1.3c.3.5.5.9.5,1.2,0,.2,0,.4-.2.5s-.3.2-.5.2h-2.8c-.1,0-.2,0-.3,0,0,0-.2,0-.2-.1-.3-.2-.5-.4-.8-.6-.3-.2-.6-.4-.9-.6-.4-.2-.8-.3-1.4-.3s-1.2.2-1.6.5c-.4.3-.6.7-.6,1.2s0,.6.3.8c.2.3.6.5,1.2.7.6.2,1.5.4,2.7.7,1.5.3,2.6.6,3.5,1.2s1.5,1.1,1.8,1.8c.4.7.6,1.4.6,2.2s-.3,1.9-.9,2.7c-.6.8-1.5,1.4-2.6,1.8-1.1.4-2.5.7-4.2.7Z"/>
    <path class="cls-5" d="M385.2,74.9c-2,0-3.8-.3-5.1-.9-1.4-.6-2.4-1.4-3.1-2.3s-1.1-2-1.1-3.1c0-.2,0-.3.2-.5.1-.1.3-.2.5-.2h3.4c.3,0,.5,0,.6.2s.3.3.4.4c.1.4.4.7.7,1.1.3.3.8.6,1.4.8.6.2,1.3.3,2.1.3,1.4,0,2.4-.2,3.1-.7.7-.4,1-1.1,1-1.8s-.2-1-.6-1.3c-.4-.3-1-.7-1.8-.9-.8-.3-1.9-.6-3.2-.9-1.6-.3-3-.8-4.1-1.3s-2-1.2-2.5-2.1c-.6-.9-.8-1.9-.8-3.2s.4-2.4,1.1-3.4c.7-1,1.7-1.8,3-2.3,1.3-.6,2.8-.8,4.6-.8s2.7.2,3.8.6c1.1.4,2,.9,2.8,1.5.7.6,1.3,1.3,1.7,2,.4.7.6,1.4.6,2,0,.2,0,.3-.2.5s-.3.2-.5.2h-3.6c-.2,0-.4,0-.6-.1-.2,0-.3-.2-.4-.4-.1-.6-.5-1-1.1-1.5-.6-.4-1.4-.6-2.4-.6s-1.9.2-2.5.6c-.6.4-.9,1-.9,1.8s.2.9.5,1.3c.3.4.8.7,1.6.9.7.3,1.7.6,2.9.9,1.9.4,3.4.8,4.6,1.4s2,1.2,2.6,2.1.8,1.9.8,3.2-.4,2.7-1.2,3.7c-.8,1-1.9,1.8-3.3,2.4s-3,.8-4.9.8Z"/>
    <path class="cls-5" d="M398.8,74.6c-.2,0-.4,0-.6-.2s-.2-.3-.2-.6v-20.8c0-.2,0-.4.2-.6s.3-.2.6-.2h14.3c.2,0,.4,0,.6.2s.2.3.2.6v2.7c0,.2,0,.4-.2.6s-.3.2-.6.2h-10.1v5.4h9.4c.2,0,.4,0,.6.2.1.2.2.3.2.6v2.7c0,.2,0,.4-.2.5s-.3.2-.6.2h-9.4v7.6c0,.2,0,.4-.2.6s-.3.2-.6.2h-3.4Z"/>
  </g>
  <g>
    <path class="cls-5" d="M677.8,74.9c-2,0-3.8-.3-5.1-.9-1.4-.6-2.4-1.4-3.1-2.3-.7-1-1.1-2-1.1-3.1,0-.2,0-.3.2-.5.1-.1.3-.2.5-.2h3.4c.3,0,.5,0,.6.2s.3.3.4.4c.1.4.4.7.7,1.1.3.3.8.6,1.4.8.6.2,1.3.3,2.1.3,1.4,0,2.4-.2,3.1-.7.7-.4,1-1.1,1-1.8s-.2-1-.6-1.3c-.4-.3-1-.7-1.8-.9-.8-.3-1.9-.6-3.2-.9-1.6-.3-3-.8-4.1-1.3-1.1-.5-2-1.2-2.5-2.1-.6-.9-.8-1.9-.8-3.2s.4-2.4,1.1-3.4c.7-1,1.7-1.8,3-2.3,1.3-.6,2.8-.8,4.6-.8s2.7.2,3.8.6,2,.9,2.8,1.5c.7.6,1.3,1.3,1.7,2,.4.7.6,1.4.6,2,0,.2,0,.3-.2.5s-.3.2-.5.2h-3.6c-.2,0-.4,0-.6-.1-.2,0-.3-.2-.4-.4-.1-.6-.5-1-1.1-1.5s-1.4-.6-2.4-.6-1.9.2-2.5.6c-.6.4-.9,1-.9,1.8s.2.9.5,1.3c.3.4.8.7,1.6.9.7.3,1.7.6,2.9.9,1.9.4,3.4.8,4.6,1.4s2,1.2,2.6,2.1c.6.8.8,1.9.8,3.2s-.4,2.7-1.2,3.7c-.8,1-1.9,1.8-3.3,2.4-1.4.5-3,.8-4.9.8Z"/>
    <path class="cls-5" d="M695.2,74.9c-1.1,0-2.1-.2-3-.7-.9-.4-1.6-1-2.1-1.8-.5-.7-.8-1.6-.8-2.5,0-1.5.6-2.7,1.8-3.6,1.2-.9,2.8-1.5,4.8-1.8l4.2-.6v-.6c0-.8-.2-1.5-.6-1.9-.4-.4-1.1-.7-2-.7s-1.3.1-1.7.4-.8.6-1,1.1c-.2.3-.4.4-.7.4h-3c-.2,0-.4,0-.5-.2-.1-.1-.2-.3-.2-.5,0-.4.1-.8.4-1.3.3-.5.7-1,1.3-1.5.6-.5,1.3-.9,2.2-1.2.9-.3,2-.5,3.3-.5s2.5.2,3.5.5c1,.3,1.7.8,2.3,1.3.6.6,1,1.2,1.3,2,.3.8.4,1.6.4,2.4v9.9c0,.2,0,.4-.2.6-.1.1-.3.2-.6.2h-3.1c-.2,0-.4,0-.5-.2-.1-.1-.2-.3-.2-.6v-1.2c-.3.4-.7.8-1.1,1.1-.5.4-1,.6-1.7.8-.7.2-1.4.3-2.3.3ZM696.4,71.5c.7,0,1.3-.1,1.9-.4.6-.3,1-.8,1.3-1.4.3-.6.5-1.4.5-2.3v-.5l-3,.5c-1.2.2-2,.5-2.5.9-.5.4-.8.9-.8,1.4s.1.8.4,1.1.6.5,1,.7.8.2,1.3.2Z"/>
    <path class="cls-5" d="M709.6,74.6c-.2,0-.4,0-.6-.2-.2-.1-.2-.3-.2-.6v-21.1c0-.2,0-.4.2-.6.1-.1.3-.2.6-.2h3.2c.2,0,.4,0,.5.2.1.1.2.3.2.6v21.1c0,.2,0,.4-.2.6-.2.1-.3.2-.5.2h-3.2Z"/>
    <path class="cls-5" d="M722.5,74.9c-1.1,0-2.1-.2-3-.7-.9-.4-1.6-1-2.1-1.8-.5-.7-.8-1.6-.8-2.5,0-1.5.6-2.7,1.8-3.6s2.8-1.5,4.8-1.8l4.2-.6v-.6c0-.8-.2-1.5-.6-1.9s-1.1-.7-2-.7-1.3.1-1.7.4c-.4.3-.8.6-1,1.1-.2.3-.4.4-.7.4h-3c-.2,0-.4,0-.5-.2-.1-.1-.2-.3-.2-.5,0-.4.1-.8.4-1.3.3-.5.7-1,1.3-1.5.6-.5,1.3-.9,2.2-1.2.9-.3,2-.5,3.3-.5s2.5.2,3.5.5c1,.3,1.7.8,2.3,1.3s1,1.2,1.3,2c.3.8.4,1.6.4,2.4v9.9c0,.2,0,.4-.2.6s-.3.2-.6.2h-3.1c-.2,0-.4,0-.5-.2s-.2-.3-.2-.6v-1.2c-.3.4-.7.8-1.1,1.1-.5.4-1,.6-1.7.8s-1.4.3-2.3.3ZM723.8,71.5c.7,0,1.3-.1,1.9-.4.6-.3,1-.8,1.3-1.4.3-.6.5-1.4.5-2.3v-.5l-3,.5c-1.2.2-2,.5-2.5.9-.5.4-.8.9-.8,1.4s.1.8.4,1.1c.2.3.6.5,1,.7.4.1.8.2,1.3.2Z"/>
    <path class="cls-5" d="M736.9,74.6c-.2,0-.4,0-.5-.2s-.2-.3-.2-.6v-15c0-.2,0-.4.2-.6.1-.2.3-.2.5-.2h3.1c.2,0,.4,0,.6.2.2.2.2.3.2.6v1.3c.5-.7,1.2-1.2,2-1.5.8-.4,1.7-.5,2.7-.5h1.4c.2,0,.4,0,.5.2s.2.3.2.6v2.8c0,.2,0,.4-.2.6-.1.1-.3.2-.5.2h-2.8c-.9,0-1.7.3-2.2.8-.5.5-.8,1.3-.8,2.2v8.5c0,.2,0,.4-.2.6s-.3.2-.6.2h-3.4Z"/>
    <path class="cls-5" d="M753.1,80.6c-.2,0-.3,0-.5-.2-.1-.1-.2-.3-.2-.5s0-.1,0-.2c0,0,0-.2,0-.3l2.5-6-6.1-14.5c0-.2,0-.3,0-.4,0-.2,0-.4.2-.5s.3-.2.5-.2h3.1c.3,0,.5,0,.6.2.1.1.2.3.3.4l4,9.9,4.1-9.9c0-.2.2-.3.3-.4.1-.1.3-.2.6-.2h3c.2,0,.4,0,.5.2s.2.3.2.5,0,.3-.1.4l-9.1,21c0,.2-.2.3-.3.4-.1.1-.3.2-.6.2h-3Z"/>
    <path class="cls-5" d="M780.2,74.6c-.3,0-.6,0-.7-.2-.2-.2-.3-.3-.4-.6l-6-14.8c0,0,0-.2,0-.3,0-.2,0-.4.2-.5.1-.1.3-.2.5-.2h3.1c.3,0,.5,0,.6.2.1.1.2.3.3.4l3.9,10.6,3.9-10.6c0-.1.2-.3.3-.4.1-.1.3-.2.6-.2h3.1c.2,0,.4,0,.5.2s.2.3.2.5,0,.2,0,.3l-6,14.8c0,.2-.2.4-.4.6-.2.2-.4.2-.7.2h-2.9Z"/>
    <path class="cls-5" d="M799,74.9c-1.3,0-2.5-.2-3.4-.5-.9-.3-1.7-.7-2.3-1.1-.6-.4-1-.9-1.3-1.4-.3-.5-.4-.8-.5-1.2,0-.2,0-.4.2-.6.2-.1.3-.2.5-.2h3.1c0,0,.1,0,.2,0,0,0,.1,0,.2.2.3.2.6.4.9.7s.6.5,1,.6.9.3,1.5.3,1.3-.1,1.8-.4c.5-.3.7-.7.7-1.2s-.1-.7-.3-1c-.2-.3-.6-.5-1.3-.7-.6-.2-1.5-.4-2.8-.7-1.2-.3-2.1-.6-2.9-1-.8-.4-1.4-1-1.8-1.6-.4-.7-.6-1.4-.6-2.4s.3-1.6.8-2.4c.5-.8,1.3-1.4,2.3-1.9,1-.5,2.3-.8,3.8-.8s2.2.1,3.1.4c.9.3,1.6.7,2.2,1.1s1.1.9,1.4,1.3c.3.5.5.9.5,1.2,0,.2,0,.4-.2.5s-.3.2-.5.2h-2.8c-.1,0-.2,0-.3,0,0,0-.2,0-.2-.1-.3-.2-.5-.4-.8-.6-.3-.2-.6-.4-.9-.6-.4-.2-.8-.3-1.4-.3s-1.2.2-1.6.5c-.4.3-.6.7-.6,1.2s0,.6.3.8c.2.3.6.5,1.2.7.6.2,1.5.4,2.7.7,1.5.3,2.6.6,3.5,1.2s1.5,1.1,1.8,1.8c.4.7.6,1.4.6,2.2s-.3,1.9-.9,2.7c-.6.8-1.5,1.4-2.6,1.8-1.1.4-2.5.7-4.2.7Z"/>
    <path class="cls-5" d="M826.1,74.9c-1.9,0-3.6-.3-5-1s-2.5-1.6-3.3-2.9c-.8-1.3-1.2-2.9-1.3-4.9,0-.9,0-1.8,0-2.7s0-1.8,0-2.8c0-1.9.5-3.5,1.3-4.8.8-1.3,1.9-2.3,3.3-3,1.4-.7,3.1-1,5-1s3.5.3,4.9,1,2.5,1.6,3.3,3c.8,1.3,1.2,2.9,1.3,4.8,0,.9,0,1.9,0,2.8s0,1.8,0,2.7c0,2-.5,3.6-1.3,4.9-.8,1.3-1.9,2.3-3.3,2.9s-3.1,1-5,1ZM826.1,70.7c1.2,0,2.3-.4,3.1-1.1.8-.8,1.2-2,1.3-3.6,0-.9,0-1.8,0-2.6s0-1.7,0-2.6c0-1.1-.2-2-.6-2.7-.4-.7-.9-1.2-1.5-1.6-.6-.3-1.4-.5-2.2-.5s-1.6.2-2.2.5c-.6.3-1.1.8-1.5,1.6-.4.7-.6,1.6-.6,2.7,0,.9,0,1.8,0,2.6s0,1.7,0,2.6c0,1.7.5,2.9,1.3,3.6.8.8,1.8,1.1,3.1,1.1Z"/>
    <path class="cls-5" d="M847.3,74.6c-1.3,0-2.5-.2-3.4-.7-.9-.4-1.6-1.1-2.1-2-.5-.9-.7-2.1-.7-3.5v-6.7h-2.5c-.2,0-.4,0-.6-.2-.1-.1-.2-.3-.2-.6v-2.2c0-.2,0-.4.2-.6s.3-.2.6-.2h2.5v-5.3c0-.2,0-.4.2-.6.2-.1.3-.2.6-.2h3.1c.2,0,.4,0,.6.2.1.1.2.3.2.6v5.3h4c.2,0,.4,0,.5.2.1.1.2.3.2.6v2.2c0,.2,0,.4-.2.6-.1.1-.3.2-.5.2h-4v6.3c0,.8.1,1.4.4,1.9.3.5.8.7,1.5.7h2.3c.2,0,.4,0,.5.2.1.1.2.3.2.5v2.4c0,.2,0,.4-.2.6s-.3.2-.5.2h-2.8Z"/>
    <path class="cls-5" d="M854.5,74.6c-.2,0-.4,0-.6-.2-.1-.1-.2-.3-.2-.6v-21.1c0-.2,0-.4.2-.6s.3-.2.6-.2h3.5c.2,0,.4,0,.5.2.1.1.2.3.2.6v7.2c.6-.7,1.3-1.2,2.1-1.6s1.8-.6,3-.6,2.4.3,3.3.8,1.7,1.4,2.3,2.5.8,2.4.8,3.9v8.9c0,.2,0,.4-.2.6-.1.1-.3.2-.6.2h-3.5c-.2,0-.4,0-.5-.2s-.2-.3-.2-.6v-8.7c0-1.1-.3-2-.8-2.6-.6-.6-1.3-.9-2.4-.9s-1.8.3-2.4.9c-.6.6-.9,1.5-.9,2.6v8.7c0,.2,0,.4-.2.6-.2.1-.3.2-.5.2h-3.5Z"/>
    <path class="cls-5" d="M881.6,74.9c-2.5,0-4.4-.7-5.8-2-1.4-1.4-2.2-3.3-2.3-6v-1.4c0-1.6.5-3.1,1.1-4.2.7-1.2,1.6-2.1,2.8-2.7s2.6-.9,4.2-.9,3.3.4,4.5,1.1c1.2.7,2.1,1.7,2.7,3s.9,2.7.9,4.4v.7c0,.2,0,.4-.2.5-.2.2-.3.2-.6.2h-10.5v.3c0,.7.2,1.3.4,1.9s.6,1,1.1,1.4c.5.3,1,.5,1.6.5s1,0,1.3-.2c.3-.1.6-.3.8-.5.2-.2.4-.4.5-.5.2-.2.3-.3.5-.4s.3,0,.6,0h3.3c.2,0,.4,0,.5.2s.2.3.2.5c0,.3-.2.8-.5,1.3-.3.5-.8,1-1.5,1.5-.6.5-1.4.9-2.4,1.2-.9.3-2,.5-3.3.5ZM878.4,64.7h6.3c0-.8-.1-1.5-.4-2.1-.2-.6-.6-1-1.1-1.3-.5-.3-1-.5-1.7-.5s-1.2.2-1.7.5c-.5.3-.8.8-1.1,1.3-.2.6-.4,1.2-.4,2h0Z"/>
    <path class="cls-5" d="M893.6,74.6c-.2,0-.4,0-.5-.2-.1-.1-.2-.3-.2-.6v-15c0-.2,0-.4.2-.6.1-.2.3-.2.5-.2h3.1c.2,0,.4,0,.6.2s.2.3.2.6v1.3c.5-.7,1.2-1.2,2-1.5.8-.4,1.7-.5,2.7-.5h1.4c.2,0,.4,0,.5.2.1.1.2.3.2.6v2.8c0,.2,0,.4-.2.6s-.3.2-.5.2h-2.8c-.9,0-1.7.3-2.2.8-.5.5-.8,1.3-.8,2.2v8.5c0,.2,0,.4-.2.6s-.3.2-.6.2h-3.4Z"/>
    <path class="cls-5" d="M914.4,74.6c-.2,0-.4,0-.6-.2s-.2-.3-.2-.6v-20.8c0-.2,0-.4.2-.6s.3-.2.6-.2h14.5c.2,0,.4,0,.6.2.1.1.2.3.2.6v2.6c0,.2,0,.4-.2.5s-.3.2-.6.2h-10.4v5h9.7c.2,0,.4,0,.6.2.1.1.2.3.2.6v2.4c0,.2,0,.4-.2.5s-.3.2-.6.2h-9.7v5.2h10.6c.2,0,.4,0,.6.2.1.1.2.3.2.6v2.5c0,.2,0,.4-.2.6-.1.1-.3.2-.6.2h-14.8Z"/>
    <path class="cls-5" d="M932.7,74.6c-.2,0-.4,0-.5-.2-.1-.1-.2-.3-.2-.5s0-.1,0-.2c0,0,0-.2.1-.3l5.4-7.3-5-6.9c0,0-.1-.2-.1-.3,0,0,0-.2,0-.3,0-.2,0-.4.2-.5s.3-.2.5-.2h3.3c.3,0,.5,0,.6.2.1.1.2.2.3.4l3.3,4.5,3.3-4.4c0-.1.2-.2.3-.4.1-.1.3-.2.6-.2h3.2c.2,0,.4,0,.5.2s.2.3.2.5,0,.2,0,.3,0,.2-.2.3l-5.1,6.9,5.5,7.3c0,0,.1.2.1.3,0,0,0,.2,0,.3,0,.2,0,.4-.2.5-.1.1-.3.2-.5.2h-3.5c-.2,0-.4,0-.5-.2s-.2-.2-.3-.3l-3.6-4.7-3.6,4.7c0,0-.2.2-.3.3s-.3.2-.6.2h-3.4Z"/>
    <path class="cls-5" d="M952.6,80.6c-.2,0-.4,0-.6-.2s-.2-.3-.2-.6v-21.1c0-.2,0-.4.2-.6s.3-.2.6-.2h3c.2,0,.4,0,.6.2.1.1.2.3.2.6v1.2c.5-.7,1.2-1.2,2-1.7s1.8-.7,3-.7,2.1.2,2.9.5c.8.4,1.5.9,2.1,1.5.6.7,1,1.4,1.3,2.4.3.9.5,2,.5,3.1,0,.4,0,.8,0,1.2s0,.8,0,1.2c0,1.1-.2,2.1-.5,3-.3.9-.8,1.7-1.3,2.4s-1.3,1.2-2.1,1.5-1.8.5-2.9.5-2-.2-2.8-.6c-.8-.4-1.5-.9-2-1.6v7.2c0,.2,0,.4-.2.6-.1.1-.3.2-.5.2h-3.3ZM960,71c.8,0,1.5-.2,1.9-.5.5-.4.8-.8,1-1.4.2-.6.3-1.2.4-1.9,0-.7,0-1.3,0-2,0-.7-.2-1.3-.4-1.9-.2-.6-.5-1-1-1.4-.5-.4-1.1-.5-1.9-.5s-1.4.2-1.9.5c-.5.4-.8.8-1.1,1.4-.2.6-.3,1.2-.4,1.8,0,.4,0,.8,0,1.2s0,.8,0,1.2c0,.6.2,1.2.4,1.7.2.5.6,1,1.1,1.3.5.3,1.1.5,1.9.5Z"/>
    <path class="cls-5" d="M979.1,74.9c-2.5,0-4.4-.7-5.8-2-1.4-1.4-2.2-3.3-2.3-6v-1.4c0-1.6.5-3.1,1.1-4.2.7-1.2,1.6-2.1,2.8-2.7s2.6-.9,4.2-.9,3.3.4,4.5,1.1c1.2.7,2.1,1.7,2.7,3s.9,2.7.9,4.4v.7c0,.2,0,.4-.2.5-.2.2-.3.2-.6.2h-10.5v.3c0,.7.2,1.3.4,1.9s.6,1,1.1,1.4c.5.3,1,.5,1.6.5s1,0,1.3-.2c.3-.1.6-.3.8-.5.2-.2.4-.4.5-.5.2-.2.3-.3.5-.4s.3,0,.6,0h3.3c.2,0,.4,0,.5.2s.2.3.2.5c0,.3-.2.8-.5,1.3-.3.5-.8,1-1.5,1.5-.6.5-1.4.9-2.4,1.2-.9.3-2,.5-3.3.5ZM975.9,64.7h6.3c0-.8-.1-1.5-.4-2.1-.2-.6-.6-1-1.1-1.3-.5-.3-1-.5-1.7-.5s-1.2.2-1.7.5c-.5.3-.8.8-1.1,1.3-.2.6-.4,1.2-.4,2h0Z"/>
    <path class="cls-5" d="M991.2,74.6c-.2,0-.4,0-.5-.2-.1-.1-.2-.3-.2-.6v-15c0-.2,0-.4.2-.6s.3-.2.5-.2h3.1c.2,0,.4,0,.6.2.1.1.2.3.2.6v1.2c.6-.7,1.3-1.2,2.1-1.7.9-.4,1.9-.7,3.2-.7s2.4.3,3.3.8,1.7,1.4,2.2,2.5.8,2.4.8,3.9v8.9c0,.2,0,.4-.2.6-.2.1-.3.2-.6.2h-3.4c-.2,0-.4,0-.6-.2s-.2-.3-.2-.6v-8.7c0-1.1-.3-2-.8-2.6-.5-.6-1.3-.9-2.4-.9s-1.8.3-2.4.9c-.6.6-.9,1.5-.9,2.6v8.7c0,.2,0,.4-.2.6s-.3.2-.5.2h-3.4Z"/>
    <path class="cls-5" d="M1017.2,74.9c-1.3,0-2.5-.2-3.4-.5-.9-.3-1.7-.7-2.3-1.1-.6-.4-1-.9-1.3-1.4s-.4-.8-.5-1.2c0-.2,0-.4.2-.6s.3-.2.5-.2h3.1c0,0,.1,0,.2,0,0,0,.1,0,.2.2.3.2.6.4.9.7s.6.5,1,.6.9.3,1.5.3,1.3-.1,1.8-.4c.5-.3.7-.7.7-1.2s-.1-.7-.3-1c-.2-.3-.6-.5-1.3-.7-.6-.2-1.5-.4-2.8-.7-1.2-.3-2.1-.6-2.9-1s-1.4-1-1.8-1.6c-.4-.7-.6-1.4-.6-2.4s.3-1.6.8-2.4c.5-.8,1.3-1.4,2.3-1.9,1-.5,2.3-.8,3.8-.8s2.2.1,3.1.4c.9.3,1.6.7,2.2,1.1s1.1.9,1.4,1.3c.3.5.5.9.5,1.2,0,.2,0,.4-.2.5s-.3.2-.5.2h-2.8c-.1,0-.2,0-.3,0,0,0-.2,0-.2-.1-.3-.2-.5-.4-.8-.6-.3-.2-.6-.4-.9-.6-.4-.2-.8-.3-1.4-.3s-1.2.2-1.6.5c-.4.3-.6.7-.6,1.2s0,.6.3.8c.2.3.6.5,1.2.7.6.2,1.5.4,2.7.7,1.5.3,2.6.6,3.5,1.2s1.5,1.1,1.8,1.8c.4.7.6,1.4.6,2.2s-.3,1.9-.9,2.7c-.6.8-1.5,1.4-2.6,1.8-1.1.4-2.5.7-4.2.7Z"/>
    <path class="cls-5" d="M1035.4,74.9c-2.5,0-4.4-.7-5.8-2-1.4-1.4-2.2-3.3-2.3-6v-1.4c0-1.6.5-3.1,1.1-4.2.7-1.2,1.6-2.1,2.8-2.7s2.6-.9,4.2-.9,3.3.4,4.5,1.1c1.2.7,2.1,1.7,2.7,3s.9,2.7.9,4.4v.7c0,.2,0,.4-.2.5-.2.2-.3.2-.6.2h-10.5v.3c0,.7.2,1.3.4,1.9s.6,1,1.1,1.4c.5.3,1,.5,1.6.5s1,0,1.3-.2c.3-.1.6-.3.8-.5.2-.2.4-.4.5-.5.2-.2.3-.3.5-.4s.3,0,.6,0h3.3c.2,0,.4,0,.5.2s.2.3.2.5c0,.3-.2.8-.5,1.3-.3.5-.8,1-1.5,1.5-.6.5-1.4.9-2.4,1.2-.9.3-2,.5-3.3.5ZM1032.2,64.7h6.3c0-.8-.1-1.5-.4-2.1-.2-.6-.6-1-1.1-1.3-.5-.3-1-.5-1.7-.5s-1.2.2-1.7.5c-.5.3-.8.8-1.1,1.3-.2.6-.4,1.2-.4,2h0Z"/>
    <path class="cls-5" d="M1053.3,74.9c-1.3,0-2.5-.2-3.4-.5-.9-.3-1.7-.7-2.3-1.1-.6-.4-1-.9-1.3-1.4s-.4-.8-.5-1.2c0-.2,0-.4.2-.6s.3-.2.5-.2h3.1c0,0,.1,0,.2,0,0,0,.1,0,.2.2.3.2.6.4.9.7s.6.5,1,.6.9.3,1.5.3,1.3-.1,1.8-.4c.5-.3.7-.7.7-1.2s-.1-.7-.3-1c-.2-.3-.6-.5-1.3-.7-.6-.2-1.5-.4-2.8-.7-1.2-.3-2.1-.6-2.9-1s-1.4-1-1.8-1.6c-.4-.7-.6-1.4-.6-2.4s.3-1.6.8-2.4c.5-.8,1.3-1.4,2.3-1.9,1-.5,2.3-.8,3.8-.8s2.2.1,3.1.4c.9.3,1.6.7,2.2,1.1s1.1.9,1.4,1.3c.3.5.5.9.5,1.2,0,.2,0,.4-.2.5s-.3.2-.5.2h-2.8c-.1,0-.2,0-.3,0,0,0-.2,0-.2-.1-.3-.2-.5-.4-.8-.6-.3-.2-.6-.4-.9-.6-.4-.2-.8-.3-1.4-.3s-1.2.2-1.6.5c-.4.3-.6.7-.6,1.2s0,.6.3.8c.2.3.6.5,1.2.7.6.2,1.5.4,2.7.7,1.5.3,2.6.6,3.5,1.2s1.5,1.1,1.8,1.8c.4.7.6,1.4.6,2.2s-.3,1.9-.9,2.7c-.6.8-1.5,1.4-2.6,1.8-1.1.4-2.5.7-4.2.7Z"/>
  </g>
  <g>
    <circle class="cls-4" cx="265.6" cy="625.1" r="11.3"/>
    <g>
      <path class="cls-5" d="M295.2,631.8c-.9,0-1.6-.2-2.2-.5-.6-.3-1.1-.7-1.4-1.3-.3-.6-.5-1.2-.5-2,0-.4,0-.8,0-1.2s0-.9,0-1.3c0-.8.2-1.5.5-2s.8-1,1.4-1.3c.6-.3,1.3-.5,2.2-.5s1.2,0,1.7.3c.5.2.9.4,1.3.7.4.3.6.6.8,1,.2.4.3.8.3,1.3,0,0,0,.2,0,.2,0,0-.1,0-.2,0h-1.3c-.1,0-.2,0-.3,0,0,0-.1-.1-.1-.3-.1-.6-.4-1-.8-1.3-.4-.2-.8-.3-1.4-.3s-1.1.2-1.5.5c-.4.3-.6.9-.6,1.7,0,.8,0,1.5,0,2.4,0,.8.2,1.4.6,1.7.4.4.9.5,1.5.5s1-.1,1.4-.3c.4-.2.6-.6.8-1.3,0-.1,0-.2.1-.3,0,0,.1,0,.3,0h1.3c0,0,.2,0,.2,0,0,0,0,.1,0,.2,0,.5-.1.9-.3,1.3-.2.4-.5.7-.8,1-.4.3-.8.5-1.3.7s-1.1.3-1.7.3Z"/>
      <path class="cls-5" d="M304,631.8c-.7,0-1.4-.1-1.9-.4-.5-.3-.9-.6-1.2-1.1-.3-.5-.4-1-.5-1.7,0-.2,0-.4,0-.6s0-.4,0-.6c0-.6.2-1.2.5-1.7.3-.5.7-.8,1.2-1.1.5-.3,1.1-.4,1.9-.4s1.3.1,1.9.4c.5.3.9.6,1.2,1.1.3.5.4,1,.5,1.7,0,.2,0,.4,0,.6s0,.4,0,.6c0,.6-.2,1.2-.5,1.7-.3.5-.7.8-1.2,1.1-.5.3-1.1.4-1.9.4ZM304,630.4c.5,0,.9-.2,1.1-.5.3-.3.4-.8.4-1.4,0-.1,0-.3,0-.5s0-.4,0-.5c0-.6-.2-1.1-.4-1.4-.3-.3-.7-.5-1.1-.5s-.9.2-1.1.5c-.3.3-.4.8-.4,1.4,0,.1,0,.3,0,.5s0,.4,0,.5c0,.6.2,1.1.4,1.4.3.3.7.5,1.1.5Z"/>
      <path class="cls-5" d="M309.4,631.6c0,0-.2,0-.2,0s0-.1,0-.2v-6.6c0-.1,0-.2,0-.3s.1,0,.2,0h1.1c0,0,.2,0,.2,0s.1.1.1.3v.6c.2-.3.5-.5.8-.7.3-.2.7-.2,1.2-.2h.6c.1,0,.2,0,.2,0s0,.1,0,.2v1c0,0,0,.2,0,.2s-.1,0-.2,0h-1.1c-.4,0-.8.1-1,.4-.2.2-.4.6-.4,1v3.8c0,0,0,.2,0,.2,0,0-.2,0-.3,0h-1.2Z"/>
      <path class="cls-5" d="M318,631.8c-1,0-1.9-.3-2.5-.9-.6-.6-.9-1.4-1-2.5,0,0,0-.2,0-.4s0-.3,0-.3c0-.7.2-1.3.5-1.8s.7-.9,1.2-1.2,1.1-.4,1.8-.4,1.4.2,1.9.5.9.7,1.2,1.3c.3.6.4,1.2.4,1.9v.3c0,0,0,.2,0,.2,0,0-.1,0-.3,0h-4.6c0,.4,0,.7.2,1s.3.5.5.7c.2.2.5.3.8.3s.5,0,.7-.1c.2,0,.3-.2.4-.3s.2-.2.2-.3c0-.1.2-.2.2-.2,0,0,.1,0,.2,0h1.2c0,0,.2,0,.2,0s0,.1,0,.2c0,.1,0,.3-.2.5s-.4.4-.6.6c-.3.2-.6.4-1,.5-.4.1-.9.2-1.4.2ZM316.4,627.3h3.1c0-.4,0-.7-.2-1-.1-.3-.3-.5-.5-.6s-.5-.2-.8-.2-.6,0-.8.2c-.2.2-.4.4-.5.6-.1.3-.2.6-.2,1h0Z"/>
    </g>
    <circle class="cls-2" cx="363.7" cy="625.1" r="11.3"/>
    <g>
      <path class="cls-5" d="M392.7,631.8c-.9,0-1.6-.1-2.2-.4-.6-.3-1-.6-1.3-1-.3-.4-.5-.9-.5-1.3,0,0,0-.2,0-.2,0,0,.1,0,.2,0h1.2c.1,0,.2,0,.3,0,0,0,.1.1.2.2,0,.2.2.4.3.5.2.2.4.3.7.4.3.1.6.2,1,.2.7,0,1.2-.1,1.5-.3.3-.2.5-.5.5-.9s0-.5-.3-.7c-.2-.2-.5-.3-.8-.4-.4-.1-.9-.3-1.5-.4-.7-.2-1.3-.4-1.8-.6-.5-.2-.8-.5-1.1-.9s-.4-.8-.4-1.4.1-1,.4-1.4.7-.8,1.3-1c.5-.2,1.2-.4,2-.4s1.1,0,1.6.2c.5.2.9.4,1.2.6.3.3.5.6.7.9.2.3.2.6.3.9,0,0,0,.1,0,.2,0,0-.1,0-.2,0h-1.3c0,0-.1,0-.2,0,0,0-.1-.1-.2-.2,0-.3-.2-.5-.5-.7-.3-.2-.7-.3-1.2-.3s-.9,0-1.2.3-.5.5-.5.9,0,.5.2.7c.2.2.4.3.7.5s.8.3,1.4.4c.8.2,1.4.4,1.9.6s.9.5,1.1.9c.2.4.3.8.3,1.4s-.2,1.1-.5,1.6-.8.8-1.4,1c-.6.2-1.3.3-2.1.3Z"/>
      <path class="cls-5" d="M398.7,631.6c0,0-.2,0-.2,0,0,0,0-.1,0-.2v-9.1c0-.1,0-.2,0-.3,0,0,.1,0,.2,0h6.1c.1,0,.2,0,.3,0s0,.1,0,.3v1c0,.1,0,.2,0,.2s-.1,0-.3,0h-4.5v2.7h4.2c.1,0,.2,0,.3,0s0,.1,0,.3v1c0,0,0,.2,0,.2,0,0-.1,0-.3,0h-4.2v3.5c0,0,0,.2,0,.2s-.1,0-.3,0h-1.2Z"/>
    </g>
  </g>
  <g>
    <circle class="cls-4" cx="811" cy="625.1" r="11.3"/>
    <g>
      <path class="cls-5" d="M840.3,631.8c-.9,0-1.6-.1-2.2-.4-.6-.3-1-.6-1.3-1-.3-.4-.5-.9-.5-1.3,0,0,0-.2,0-.2,0,0,.1,0,.2,0h1.2c.1,0,.2,0,.3,0,0,0,.1.1.2.2,0,.2.2.4.3.5.2.2.4.3.7.4.3.1.6.2,1,.2.7,0,1.2-.1,1.5-.3.3-.2.5-.5.5-.9s0-.5-.3-.7c-.2-.2-.5-.3-.8-.4-.4-.1-.9-.3-1.5-.4-.7-.2-1.3-.4-1.8-.6-.5-.2-.8-.5-1.1-.9s-.4-.8-.4-1.4.1-1,.4-1.4.7-.8,1.3-1c.5-.2,1.2-.4,2-.4s1.1,0,1.6.2c.5.2.9.4,1.2.6.3.3.5.6.7.9.2.3.2.6.3.9,0,0,0,.1,0,.2,0,0-.1,0-.2,0h-1.3c0,0-.1,0-.2,0,0,0-.1-.1-.2-.2,0-.3-.2-.5-.5-.7-.3-.2-.7-.3-1.2-.3s-.9,0-1.2.3-.5.5-.5.9,0,.5.2.7c.2.2.4.3.7.5s.8.3,1.4.4c.8.2,1.4.4,1.9.6s.9.5,1.1.9c.2.4.3.8.3,1.4s-.2,1.1-.5,1.6-.8.8-1.4,1c-.6.2-1.3.3-2.1.3Z"/>
      <path class="cls-5" d="M847.8,631.8c-.5,0-.9,0-1.3-.3-.4-.2-.7-.4-.9-.8s-.3-.7-.3-1.1c0-.7.3-1.2.8-1.6.5-.4,1.2-.6,2.1-.8l1.9-.3v-.3c0-.4,0-.7-.3-.9s-.5-.3-1-.3-.6,0-.8.2c-.2.1-.4.3-.5.5,0,.1-.2.2-.3.2h-1.1c-.1,0-.2,0-.2,0,0,0,0-.1,0-.2,0-.1,0-.3.2-.5.1-.2.3-.4.5-.6.2-.2.5-.4.9-.5s.8-.2,1.4-.2,1.1,0,1.5.2.7.3,1,.6.4.5.5.9c.1.3.2.7.2,1v4.4c0,0,0,.2,0,.2,0,0-.1,0-.2,0h-1.1c-.1,0-.2,0-.2,0s0-.1,0-.2v-.5c-.1.2-.3.3-.5.5-.2.2-.5.3-.7.4-.3,0-.6.1-1,.1ZM848.3,630.4c.3,0,.6,0,.9-.2.3-.1.5-.4.6-.7.2-.3.2-.7.2-1.1v-.3l-1.4.2c-.6,0-1,.2-1.2.4s-.4.4-.4.7,0,.4.2.5.3.3.5.3c.2,0,.4.1.6.1Z"/>
      <path class="cls-5" d="M854,631.6c0,0-.2,0-.2,0s0-.1,0-.2v-9.3c0,0,0-.2,0-.2s.1,0,.2,0h1.2c0,0,.2,0,.2,0s0,.1,0,.2v9.3c0,0,0,.2,0,.2s-.1,0-.2,0h-1.2Z"/>
      <path class="cls-5" d="M859.5,631.8c-.5,0-.9,0-1.3-.3-.4-.2-.7-.4-.9-.8s-.3-.7-.3-1.1c0-.7.3-1.2.8-1.6.5-.4,1.2-.6,2.1-.8l1.9-.3v-.3c0-.4,0-.7-.3-.9s-.5-.3-1-.3-.6,0-.8.2c-.2.1-.4.3-.5.5,0,.1-.2.2-.3.2h-1.1c-.1,0-.2,0-.2,0,0,0,0-.1,0-.2,0-.1,0-.3.2-.5.1-.2.3-.4.5-.6.2-.2.5-.4.9-.5s.8-.2,1.4-.2,1.1,0,1.5.2.7.3,1,.6.4.5.5.9c.1.3.2.7.2,1v4.4c0,0,0,.2,0,.2,0,0-.1,0-.2,0h-1.1c-.1,0-.2,0-.2,0s0-.1,0-.2v-.5c-.1.2-.3.3-.5.5-.2.2-.5.3-.7.4-.3,0-.6.1-1,.1ZM860,630.4c.3,0,.6,0,.9-.2.3-.1.5-.4.6-.7.2-.3.2-.7.2-1.1v-.3l-1.4.2c-.6,0-1,.2-1.2.4s-.4.4-.4.7,0,.4.2.5.3.3.5.3c.2,0,.4.1.6.1Z"/>
      <path class="cls-5" d="M865.7,631.6c0,0-.2,0-.2,0,0,0,0-.1,0-.2v-6.6c0-.1,0-.2,0-.3,0,0,.1,0,.2,0h1.1c0,0,.2,0,.2,0,0,0,.1.1.1.3v.6c.2-.3.5-.5.8-.7.3-.2.7-.2,1.2-.2h.6c.1,0,.2,0,.2,0s0,.1,0,.2v1c0,0,0,.2,0,.2s-.1,0-.2,0h-1.1c-.4,0-.8.1-1,.4-.2.2-.4.6-.4,1v3.8c0,0,0,.2,0,.2,0,0-.1,0-.3,0h-1.2Z"/>
      <path class="cls-5" d="M872.5,634.3c0,0-.1,0-.2,0,0,0,0-.1,0-.2s0,0,0-.1c0,0,0,0,0-.1l1.1-2.6-2.7-6.3c0,0,0-.2,0-.2,0,0,0-.2,0-.2,0,0,.1,0,.2,0h1.1c.1,0,.2,0,.3,0s0,.1.1.2l1.9,4.6,1.9-4.6c0,0,0-.1.1-.2,0,0,.1,0,.3,0h1.1c0,0,.1,0,.2,0,0,0,0,.1,0,.2s0,.1,0,.2l-4,9.2c0,0,0,.1-.1.2,0,0-.1,0-.3,0h-1.1Z"/>
    </g>
    <circle class="cls-2" cx="909.2" cy="625.1" r="11.3"/>
    <g>
      <path class="cls-5" d="M938.6,631.8c-.8,0-1.5-.1-2.1-.4-.6-.3-1.1-.7-1.4-1.3s-.5-1.3-.5-2.1c0-.4,0-.8,0-1.2s0-.8,0-1.2c0-.8.2-1.6.6-2.1.3-.6.8-1,1.4-1.3s1.3-.4,2.1-.4,1.5.1,2.1.4,1.1.7,1.4,1.3c.3.6.5,1.3.6,2.1,0,.4,0,.8,0,1.2s0,.8,0,1.2c0,.9-.2,1.6-.5,2.1s-.8,1-1.4,1.3c-.6.3-1.3.4-2.1.4ZM938.6,630.1c.6,0,1.1-.2,1.5-.5s.6-.9.6-1.8c0-.4,0-.8,0-1.1s0-.7,0-1.1c0-.5-.1-1-.3-1.3-.2-.3-.4-.6-.7-.7-.3-.2-.7-.2-1.1-.2s-.7,0-1.1.2c-.3.2-.6.4-.7.7-.2.3-.3.8-.3,1.3,0,.4,0,.8,0,1.1s0,.7,0,1.1c0,.8.2,1.4.6,1.8s.9.5,1.5.5Z"/>
      <path class="cls-5" d="M947.7,631.6c-.6,0-1,0-1.4-.3s-.7-.5-.9-.9c-.2-.4-.3-.9-.3-1.4v-3.2h-1.1c0,0-.2,0-.2,0,0,0,0-.1,0-.3v-.8c0,0,0-.2,0-.2,0,0,.1,0,.2,0h1.1v-2.3c0,0,0-.2,0-.2s.1,0,.2,0h1.1c0,0,.2,0,.2,0s0,.1,0,.2v2.3h1.8c0,0,.2,0,.2,0s0,.1,0,.2v.8c0,.1,0,.2,0,.3s-.1,0-.2,0h-1.8v3c0,.4,0,.7.2.9.1.2.4.3.7.3h1c0,0,.2,0,.2,0,0,0,0,.1,0,.2v.9c0,0,0,.2,0,.2s-.1,0-.2,0h-1.1Z"/>
      <path class="cls-5" d="M950.7,631.6c0,0-.2,0-.2,0s0-.1,0-.2v-9.3c0,0,0-.2,0-.2s.1,0,.2,0h1.2c.1,0,.2,0,.2,0s0,.1,0,.2v3.2c.3-.3.6-.5.9-.7.4-.2.8-.3,1.3-.3s1.1.1,1.5.4.8.6,1,1.1.4,1,.4,1.7v3.9c0,0,0,.2,0,.2,0,0-.1,0-.2,0h-1.3c0,0-.2,0-.2,0s0-.1,0-.2v-3.8c0-.5-.1-1-.4-1.3s-.7-.5-1.2-.5-.9.2-1.2.5-.4.7-.4,1.3v3.8c0,0,0,.2,0,.2s-.1,0-.2,0h-1.2Z"/>
      <path class="cls-5" d="M962.3,631.8c-1,0-1.9-.3-2.5-.9s-.9-1.4-1-2.5c0,0,0-.2,0-.4s0-.3,0-.3c0-.7.2-1.3.5-1.8.3-.5.7-.9,1.2-1.2s1.1-.4,1.8-.4,1.4.2,1.9.5.9.7,1.2,1.3c.3.6.4,1.2.4,1.9v.3c0,0,0,.2,0,.2,0,0-.1,0-.3,0h-4.6c0,.4,0,.7.2,1,.1.3.3.5.5.7.2.2.5.3.8.3s.5,0,.7-.1c.2,0,.3-.2.4-.3.1-.1.2-.2.2-.3,0-.1.2-.2.2-.2,0,0,.1,0,.2,0h1.2c0,0,.2,0,.2,0s0,.1,0,.2c0,.1,0,.3-.2.5s-.4.4-.6.6c-.3.2-.6.4-1,.5-.4.1-.9.2-1.4.2ZM960.8,627.3h3.1c0-.4,0-.7-.2-1-.1-.3-.3-.5-.5-.6-.2-.2-.5-.2-.8-.2s-.6,0-.8.2-.4.4-.5.6c-.1.3-.2.6-.2,1h0Z"/>
      <path class="cls-5" d="M967.6,631.6c0,0-.2,0-.2,0,0,0,0-.1,0-.2v-6.6c0-.1,0-.2,0-.3,0,0,.1,0,.2,0h1.1c0,0,.2,0,.2,0,0,0,.1.1.1.3v.6c.2-.3.5-.5.8-.7.3-.2.7-.2,1.2-.2h.6c.1,0,.2,0,.2,0s0,.1,0,.2v1c0,0,0,.2,0,.2s-.1,0-.2,0h-1.1c-.4,0-.8.1-1,.4-.2.2-.4.6-.4,1v3.8c0,0,0,.2,0,.2,0,0-.1,0-.3,0h-1.2Z"/>
    </g>
  </g>
  <g>
    <path class="cls-6" d="M403.2,259.6c-.2,0-.3,0-.4-.2-.1-.1-.2-.3-.2-.4v-1.4c0-.1,0-.3.1-.5,0-.2.2-.4.5-.6l3.2-3.1c1.2-.9,2.1-1.7,2.8-2.3.7-.6,1.3-1.2,1.6-1.7.4-.5.5-1,.5-1.5s-.2-1.1-.5-1.5c-.3-.4-.9-.6-1.7-.6s-.9.1-1.3.3c-.3.2-.6.5-.8.9-.2.4-.3.7-.4,1.2,0,.2-.1.4-.3.4s-.3.1-.5.1h-2.5c-.2,0-.3,0-.4-.2,0-.1-.1-.2-.1-.3,0-.7.2-1.4.5-2.1.3-.7.7-1.2,1.3-1.8.5-.5,1.2-.9,2-1.2.8-.3,1.6-.4,2.6-.4s2.5.2,3.4.7,1.6,1,2.1,1.8c.5.8.7,1.7.7,2.7s-.2,1.5-.5,2.1c-.3.7-.8,1.3-1.4,1.9-.6.6-1.3,1.2-2.1,1.9l-2.8,2.8h6.5c.2,0,.3,0,.4.2.1.1.2.3.2.4v2c0,.2,0,.3-.2.4-.1.1-.3.2-.4.2h-11.9Z"/>
    <path class="cls-6" d="M424.6,259.8c-1.4,0-2.6-.3-3.7-.8-1-.5-1.8-1.2-2.4-2.1-.6-.9-.9-1.9-.9-3.1s0-1,.2-1.4c.1-.5.3-.9.5-1.4.2-.4.4-.8.6-1.1.2-.3.4-.6.5-.8l4.3-5.9c0,0,.2-.2.3-.3.1-.1.3-.2.5-.2h2.7c.1,0,.3,0,.4.2,0,.1.1.2.1.4s0,.1,0,.2,0,0,0,.1l-3.3,4.5c.1,0,.3,0,.4,0,.2,0,.3,0,.4,0,.8,0,1.5.2,2.2.5.7.3,1.3.7,1.9,1.2.6.5,1,1.1,1.3,1.8.3.7.5,1.5.5,2.3s-.3,2.1-.8,3c-.6.9-1.3,1.6-2.4,2.2s-2.2.8-3.6.8ZM424.6,256.7c.5,0,1-.1,1.5-.3.4-.2.8-.5,1.1-1,.3-.4.4-1,.4-1.6s-.1-1.1-.4-1.6c-.3-.4-.6-.7-1.1-1-.4-.2-.9-.3-1.5-.3s-1,.1-1.5.3c-.4.2-.8.5-1.1,1-.3.4-.4.9-.4,1.6s.1,1.1.4,1.6c.3.4.6.8,1.1,1,.4.2.9.3,1.5.3Z"/>
    <path class="cls-6" d="M442.1,251.3c-1.1,0-1.9-.3-2.6-.9-.6-.6-1-1.3-1-2.3,0-.4,0-.8,0-1.1,0-.3,0-.7,0-1.1,0-1,.4-1.8,1-2.3.6-.6,1.5-.9,2.6-.9s2,.3,2.6.9c.6.6.9,1.4,1,2.3,0,.4,0,.8,0,1.1s0,.7,0,1.1c0,1-.4,1.7-1,2.3-.6.6-1.5.9-2.6.9ZM440.1,259.6c-.4,0-.5-.2-.5-.5s0-.2,0-.3l11.9-15.6c.1-.1.2-.3.3-.3.1,0,.3-.1.5-.1h1.5c.4,0,.5.2.5.5s0,.2,0,.3l-11.9,15.6c-.1.1-.2.3-.3.3-.1,0-.3.1-.5.1h-1.5ZM442.1,249.3c.3,0,.5,0,.7-.2.2-.1.3-.3.4-.5s.1-.4.2-.6c0-.4,0-.7,0-1s0-.6,0-1c0-.3-.1-.6-.3-.9-.2-.3-.5-.4-1-.4s-.8.1-.9.4c-.2.3-.3.6-.3.9,0,.4,0,.7,0,1s0,.6,0,1c0,.2,0,.4.2.6s.2.4.4.5.4.2.7.2ZM451.9,259.7c-1.1,0-1.9-.3-2.6-.9-.6-.6-1-1.3-1-2.3,0-.4,0-.8,0-1.1,0-.3,0-.7,0-1.2,0-1,.4-1.7,1-2.3.6-.6,1.5-.9,2.6-.9s2,.3,2.6.9c.6.6.9,1.4,1,2.3,0,.4,0,.8,0,1.2s0,.7,0,1.1c0,1-.4,1.7-1,2.3-.6.6-1.5.9-2.6.9ZM451.9,257.7c.3,0,.5,0,.7-.2s.3-.3.4-.5.1-.4.2-.6c0-.4,0-.7,0-1s0-.6,0-1c0-.3-.1-.6-.3-.9-.2-.3-.5-.4-1-.4s-.8.1-.9.4c-.2.3-.3.6-.3.9,0,.4,0,.7,0,1s0,.6,0,1c0,.2,0,.4.2.6s.2.4.4.5c.2.1.4.2.7.2Z"/>
  </g>
  <g>
    <path class="cls-6" d="M224.8,414.2c-.1,0-.3,0-.4-.2,0-.1-.1-.2-.1-.4s0-.1,0-.2l5.7-12.8h-7.4c-.2,0-.3,0-.4-.2-.1-.1-.2-.2-.2-.4v-2c0-.2,0-.3.2-.4s.3-.2.4-.2h10.9c.2,0,.3,0,.4.2.1.1.2.3.2.4v1.8c0,.2,0,.4,0,.6,0,.2,0,.3-.2.5l-5.6,12.8c0,0-.1.2-.3.4-.1.1-.3.2-.6.2h-2.6Z"/>
    <path class="cls-6" d="M243.4,414.2c-.2,0-.3,0-.4-.2-.1-.1-.2-.3-.2-.4v-2.9h-7.6c-.2,0-.3,0-.4-.2-.1-.1-.2-.3-.2-.4v-1.9c0-.1,0-.2,0-.4,0-.1.1-.2.2-.4l7-9.6c.2-.3.5-.4.9-.4h3c.2,0,.3,0,.4.2s.2.3.2.4v9.5h2.1c.2,0,.3,0,.4.2s.2.2.2.4v2c0,.2,0,.3-.2.4-.1.1-.2.2-.4.2h-2.2v2.9c0,.2,0,.3-.2.4-.1.1-.2.2-.4.2h-2.5ZM238.4,407.6h4.5v-6.3l-4.5,6.3Z"/>
    <path class="cls-6" d="M259.9,405.8c-1.1,0-1.9-.3-2.6-.9-.6-.6-1-1.3-1-2.3,0-.4,0-.8,0-1.1,0-.3,0-.7,0-1.1,0-1,.4-1.8,1-2.3.6-.6,1.5-.9,2.6-.9s2,.3,2.6.9c.6.6.9,1.4,1,2.3,0,.4,0,.8,0,1.1s0,.7,0,1.1c0,1-.4,1.7-1,2.3-.6.6-1.5.9-2.6.9ZM257.9,414.2c-.4,0-.5-.2-.5-.5s0-.2,0-.3l11.9-15.6c.1-.1.2-.3.3-.3.1,0,.3-.1.5-.1h1.5c.4,0,.5.2.5.5s0,.2,0,.3l-11.9,15.6c-.1.1-.2.3-.3.3-.1,0-.3.1-.5.1h-1.5ZM259.9,403.9c.3,0,.5,0,.7-.2.2-.1.3-.3.4-.5s.1-.4.2-.6c0-.4,0-.7,0-1s0-.6,0-1c0-.3-.1-.6-.3-.9-.2-.3-.5-.4-1-.4s-.8.1-.9.4c-.2.3-.3.6-.3.9,0,.4,0,.7,0,1s0,.6,0,1c0,.2,0,.4.2.6s.2.4.4.5.4.2.7.2ZM269.7,414.3c-1.1,0-1.9-.3-2.6-.9-.6-.6-1-1.3-1-2.3,0-.4,0-.8,0-1.1,0-.3,0-.7,0-1.2,0-1,.4-1.7,1-2.3.6-.6,1.5-.9,2.6-.9s2,.3,2.6.9c.6.6.9,1.4,1,2.3,0,.4,0,.8,0,1.2s0,.7,0,1.1c0,1-.4,1.7-1,2.3-.6.6-1.5.9-2.6.9ZM269.7,412.3c.3,0,.5,0,.7-.2s.3-.3.4-.5.1-.4.2-.6c0-.4,0-.7,0-1s0-.6,0-1c0-.3-.1-.6-.3-.9-.2-.3-.5-.4-1-.4s-.8.1-.9.4c-.2.3-.3.6-.3.9,0,.4,0,.7,0,1s0,.6,0,1c0,.2,0,.4.2.6s.2.4.4.5c.2.1.4.2.7.2Z"/>
  </g>
  <text class="cls-7" transform="translate(940.2 259.8)"><tspan x="0" y="0">28</tspan><tspan x="31.2" y="0" xml:space="preserve"> %</tspan></text>
  <text class="cls-7" transform="translate(759.9 414.4)"><tspan x="0" y="0">72</tspan><tspan x="28.6" y="0" xml:space="preserve"> %</tspan></text>
</svg>