<?xml version="1.0" encoding="UTF-8"?>
<svg id="Layer_1" data-name="Layer 1" xmlns="http://www.w3.org/2000/svg" width="864.97" height="700" viewBox="0 0 864.97 700">
  <defs>
    <style>
      .cls-1 {
        fill: #6885c0;
      }

      .cls-2 {
        fill: #f3c55a;
      }

      .cls-3 {
        fill: #fff;
      }

      .cls-4 {
        fill: #f2bf48;
      }

      .cls-5 {
        fill: #d1628e;
      }

      .cls-6 {
        fill: #d67199;
      }

      .cls-7 {
        fill: #75549d;
      }

      .cls-8 {
        fill: #7791c6;
      }
    </style>
  </defs>
  <rect class="cls-3" x="-891.31" y="-106.96" width="3218.25" height="864"/>
  <g>
    <path d="m336.71,74.56c-.34,0-.61-.1-.82-.29-.2-.19-.33-.43-.37-.7l-3.65-20.51s-.03-.08-.03-.13v-.1c0-.17.06-.33.19-.46.13-.14.29-.21.48-.21h3.36c.55,0,.86.22.93.67l2.4,13.54,2.59-8.42c.06-.17.17-.35.32-.54.15-.19.39-.29.74-.29h2.02c.34,0,.59.1.74.29.15.19.25.37.29.54l2.62,8.38,2.37-13.5c.06-.45.38-.67.96-.67h3.36c.19,0,.35.07.48.21s.19.29.19.46v.1s-.01.09-.03.13l-3.65,20.51c-.04.28-.17.51-.37.7-.2.19-.48.29-.82.29h-2.59c-.34,0-.6-.09-.78-.27-.18-.18-.3-.37-.37-.56l-3.42-9.92-3.39,9.92c-.06.19-.19.38-.37.56-.18.18-.45.27-.82.27h-2.56Z"/>
    <path d="m360.2,74.56c-.23,0-.43-.07-.58-.22s-.22-.34-.22-.58v-20.8c0-.23.07-.43.22-.58s.34-.22.58-.22h8.74c1.73,0,3.23.27,4.5.8,1.27.53,2.26,1.34,2.98,2.42s1.07,2.42,1.07,4.02-.36,2.96-1.07,4.02c-.71,1.06-1.71,1.84-2.98,2.35-1.27.51-2.77.77-4.5.77h-4.29v7.23c0,.24-.08.43-.22.58s-.34.22-.58.22h-3.65Zm4.35-12h4.22c1.09,0,1.94-.27,2.54-.8s.91-1.33.91-2.4c0-.94-.27-1.71-.82-2.3-.54-.6-1.42-.9-2.64-.9h-4.22v6.4Z"/>
    <path d="m395.2,74.88c-2.05,0-3.76-.3-5.14-.9-1.38-.6-2.42-1.38-3.12-2.34s-1.08-1.98-1.12-3.07c0-.17.06-.33.19-.46.13-.14.29-.21.48-.21h3.42c.28,0,.49.06.64.18s.29.26.42.43c.15.36.39.71.72,1.06.33.34.78.62,1.36.85.58.22,1.29.34,2.14.34,1.39,0,2.43-.22,3.12-.67.69-.45,1.04-1.06,1.04-1.82,0-.55-.19-1-.56-1.34-.37-.34-.96-.65-1.76-.93-.8-.28-1.86-.58-3.18-.9-1.6-.34-2.96-.78-4.08-1.33s-1.96-1.25-2.53-2.11c-.57-.86-.85-1.94-.85-3.22s.35-2.42,1.06-3.41c.7-.99,1.7-1.77,2.98-2.34,1.28-.56,2.8-.85,4.58-.85,1.43,0,2.69.19,3.79.58,1.1.38,2.02.89,2.75,1.5.74.62,1.3,1.28,1.68,1.98.38.7.59,1.39.61,2.05,0,.17-.06.33-.19.46s-.29.21-.48.21h-3.58c-.21,0-.41-.04-.58-.13-.17-.08-.31-.23-.42-.45-.13-.55-.51-1.04-1.14-1.46-.63-.42-1.45-.62-2.45-.62s-1.87.19-2.48.58c-.61.38-.91.97-.91,1.76,0,.51.16.94.46,1.3.31.35.83.66,1.57.93.74.27,1.71.56,2.93.88,1.88.38,3.4.84,4.58,1.38s2.04,1.22,2.59,2.06.83,1.9.83,3.18c0,1.43-.4,2.66-1.2,3.68-.8,1.02-1.9,1.81-3.3,2.35s-3.02.82-4.88.82Z"/>
    <path d="m408.45,80.64c-.24,0-.43-.08-.58-.22s-.22-.34-.22-.58v-21.12c0-.23.08-.43.22-.58s.34-.22.58-.22h3.04c.23,0,.43.08.58.22.15.15.22.34.22.58v1.22c.51-.68,1.17-1.24,1.98-1.68s1.82-.66,3.04-.66c1.11,0,2.08.18,2.9.53.82.35,1.51.85,2.08,1.5.56.65,1,1.43,1.31,2.35.31.92.49,1.95.53,3.1.02.41.03.79.03,1.15s-.01.76-.03,1.18c-.02,1.09-.19,2.09-.5,3.01-.31.92-.75,1.71-1.33,2.37s-1.27,1.17-2.1,1.54-1.79.54-2.9.54-2.03-.2-2.83-.59c-.8-.39-1.46-.93-1.97-1.62v7.17c0,.23-.08.43-.22.58-.15.15-.33.22-.54.22h-3.3Zm7.42-9.6c.81,0,1.45-.18,1.92-.53.47-.35.8-.82,1.01-1.39.2-.58.33-1.21.37-1.89.04-.66.04-1.32,0-1.98-.04-.68-.17-1.31-.37-1.89-.2-.58-.54-1.04-1.01-1.39-.47-.35-1.11-.53-1.92-.53s-1.43.18-1.92.54c-.49.36-.84.82-1.06,1.38-.21.56-.34,1.15-.38,1.79-.02.38-.03.78-.03,1.18s.01.81.03,1.22c.02.6.15,1.16.4,1.68.25.52.61.96,1.09,1.3.48.34,1.1.51,1.87.51Z"/>
    <path d="m434.98,74.88c-2.45,0-4.4-.68-5.84-2.05-1.44-1.37-2.2-3.35-2.29-5.95v-1.38c.09-1.64.46-3.06,1.12-4.24.66-1.18,1.59-2.09,2.78-2.72s2.59-.94,4.19-.94c1.79,0,3.29.37,4.5,1.1,1.21.74,2.11,1.74,2.72,3.01s.91,2.73.91,4.37v.74c0,.21-.08.4-.24.54-.16.15-.35.22-.56.22h-10.46v.26c.02.68.15,1.31.4,1.87s.6,1.02,1.06,1.36c.46.34,1.01.51,1.65.51.53,0,.97-.07,1.31-.22.34-.15.62-.33.85-.54.22-.21.39-.39.5-.54.19-.21.35-.35.46-.4s.3-.08.56-.08h3.33c.21,0,.39.06.53.18s.2.28.18.5c-.02.34-.2.76-.53,1.26-.33.5-.82.99-1.46,1.47-.64.48-1.43.88-2.38,1.2-.95.32-2.04.48-3.28.48Zm-3.17-10.21h6.27v-.06c0-.77-.12-1.43-.37-2-.25-.56-.6-1.01-1.07-1.33-.47-.32-1.03-.48-1.7-.48s-1.23.16-1.7.48c-.47.32-.83.76-1.07,1.33-.25.57-.37,1.23-.37,2v.06Z"/>
    <path d="m447.04,74.56c-.21,0-.4-.07-.54-.22-.15-.15-.22-.34-.22-.58v-15.04c0-.23.08-.43.22-.58s.33-.22.54-.22h3.14c.23,0,.43.08.58.22.15.15.22.34.22.58v1.25c.55-.68,1.27-1.25,2.14-1.7.87-.45,1.94-.67,3.2-.67s2.36.28,3.31.85,1.7,1.39,2.24,2.46.82,2.38.82,3.92v8.93c0,.24-.08.43-.24.58-.16.15-.35.22-.56.22h-3.39c-.24,0-.43-.07-.58-.22s-.22-.34-.22-.58v-8.74c0-1.13-.27-2.01-.82-2.64-.54-.63-1.34-.94-2.38-.94s-1.8.32-2.4.94c-.6.63-.9,1.51-.9,2.64v8.74c0,.24-.08.43-.22.58s-.33.22-.54.22h-3.39Z"/>
    <path d="m472.71,74.88c-1.07,0-2.02-.18-2.85-.53-.83-.35-1.54-.86-2.11-1.54-.58-.67-1.01-1.47-1.31-2.4s-.48-1.96-.54-3.09c-.02-.41-.03-.77-.03-1.1s.01-.69.03-1.07c.04-1.11.22-2.12.53-3.04.31-.92.75-1.71,1.31-2.38s1.27-1.19,2.11-1.57,1.8-.56,2.86-.56,2.06.19,2.85.56,1.44.86,1.95,1.46v-6.98c0-.23.07-.43.22-.58.15-.15.34-.22.58-.22h3.3c.21,0,.39.08.54.22.15.15.22.34.22.58v21.12c0,.24-.08.43-.22.58s-.33.22-.54.22h-3.07c-.21,0-.39-.07-.54-.22s-.22-.34-.22-.58v-1.09c-.53.64-1.21,1.17-2.02,1.58-.81.42-1.82.62-3.04.62Zm1.47-3.84c.79,0,1.42-.18,1.9-.54.48-.36.83-.82,1.06-1.38s.35-1.15.37-1.79c.04-.41.06-.81.06-1.22s-.02-.8-.06-1.18c-.02-.6-.15-1.16-.38-1.68-.24-.52-.59-.96-1.07-1.3-.48-.34-1.1-.51-1.87-.51-.81,0-1.45.18-1.92.53-.47.35-.81.82-1.01,1.39-.2.58-.33,1.21-.37,1.89-.06.66-.06,1.32,0,1.98.04.68.17,1.31.37,1.89.2.58.54,1.04,1.01,1.39.47.35,1.11.53,1.92.53Z"/>
    <path d="m487.11,55.36c-.21,0-.4-.07-.54-.22s-.22-.34-.22-.58v-2.56c0-.23.07-.43.22-.59.15-.16.33-.24.54-.24h3.36c.23,0,.43.08.59.24.16.16.24.36.24.59v2.56c0,.24-.08.43-.24.58-.16.15-.36.22-.59.22h-3.36Zm.1,19.2c-.21,0-.4-.07-.54-.22-.15-.15-.22-.34-.22-.58v-15.04c0-.23.08-.43.22-.58s.33-.22.54-.22h3.2c.23,0,.43.08.58.22.15.15.22.34.22.58v15.04c0,.24-.08.43-.22.58s-.34.22-.58.22h-3.2Z"/>
    <path d="m496.8,74.56c-.21,0-.4-.07-.54-.22-.15-.15-.22-.34-.22-.58v-15.04c0-.23.08-.43.22-.58s.33-.22.54-.22h3.14c.23,0,.43.08.58.22.15.15.22.34.22.58v1.25c.55-.68,1.27-1.25,2.14-1.7.87-.45,1.94-.67,3.2-.67s2.36.28,3.31.85,1.7,1.39,2.24,2.46.82,2.38.82,3.92v8.93c0,.24-.08.43-.24.58-.16.15-.35.22-.56.22h-3.39c-.24,0-.43-.07-.58-.22s-.22-.34-.22-.58v-8.74c0-1.13-.27-2.01-.82-2.64-.54-.63-1.34-.94-2.38-.94s-1.8.32-2.4.94c-.6.63-.9,1.51-.9,2.64v8.74c0,.24-.08.43-.22.58s-.33.22-.54.22h-3.39Z"/>
    <path d="m524.1,81.6c-1.58,0-2.89-.21-3.94-.62s-1.87-.92-2.48-1.5c-.61-.59-1.04-1.17-1.3-1.74s-.4-1.02-.42-1.34c-.02-.24.05-.43.22-.58s.36-.22.58-.22h3.42c.19,0,.36.05.5.14.14.1.25.26.34.5.11.26.26.53.45.82.19.29.48.53.88.72.39.19.92.29,1.58.29.75,0,1.37-.11,1.86-.32.49-.21.86-.58,1.1-1.09s.37-1.21.37-2.08v-2.14c-.51.55-1.16,1.01-1.94,1.38-.78.36-1.73.54-2.86.54s-2.09-.18-2.93-.53c-.84-.35-1.54-.85-2.1-1.5-.55-.65-.98-1.43-1.28-2.35s-.47-1.95-.51-3.1c-.02-.58-.02-1.14,0-1.7.04-1.11.21-2.12.51-3.04.3-.92.73-1.71,1.28-2.38s1.25-1.19,2.1-1.57,1.82-.56,2.93-.56c1.17,0,2.18.22,3.01.67.83.45,1.51,1,2.05,1.66v-1.22c0-.21.07-.4.22-.56.15-.16.33-.24.54-.24h3.14c.21,0,.4.08.56.24.16.16.24.35.24.56l.03,15.39c0,1.6-.31,2.96-.93,4.06s-1.53,1.96-2.74,2.54c-1.21.59-2.7.88-4.5.88Zm-.16-11.01c.77,0,1.39-.18,1.87-.53.48-.35.84-.8,1.07-1.34.23-.54.36-1.11.38-1.71.02-.23.03-.57.03-1.01s-.01-.77-.03-1.01c-.02-.6-.15-1.17-.38-1.71-.24-.54-.59-.99-1.07-1.33-.48-.34-1.1-.51-1.87-.51-.81,0-1.45.18-1.92.53-.47.35-.81.82-1.02,1.39-.21.58-.34,1.21-.38,1.89-.02.51-.02,1.01,0,1.5.04.7.17,1.34.38,1.92s.55,1.04,1.02,1.39c.47.35,1.11.53,1.92.53Z"/>
  </g>
  <g>
    <path class="cls-7" d="m232.66,258.15c-22.43,52.85-23.13,111.22-2,164.54l200.08-80.84V126.06c-28.15.17-53.52,5.2-79.72,15.78-53.7,21.7-95.73,63-118.36,116.31Z"/>
    <path class="cls-4" d="m231.78,425.47c14.3,34.81,34.67,62.13,64.01,85.89,45.01,36.45,101.52,53.18,159.11,47.13,57.1-6,108.49-33.69,144.88-78.02l-167.8-135.89-200.2,80.89Z"/>
    <path class="cls-1" d="m435.47,343.55l166.2,134.59c21.98-27.48,36.6-57.76,43.46-90.02,6.86-32.26,5.82-65.87-3.08-99.92l-206.58,55.35Z"/>
    <path class="cls-5" d="m564.92,169.96c-37.06-28.43-82.38-43.6-131.17-43.9v214.85l207.53-55.61c-12.92-47.05-39.3-86.91-76.36-115.34Z"/>
  </g>
  <g>
    <g>
      <path class="cls-3" d="m478.02,228.71c-.18,0-.32-.06-.43-.17-.11-.11-.17-.26-.17-.43v-1.44c0-.13.04-.3.11-.52.07-.22.24-.43.49-.64l3.17-3.14c1.17-.9,2.12-1.66,2.84-2.28.73-.62,1.27-1.19,1.62-1.7.35-.51.53-1.01.53-1.49,0-.62-.17-1.14-.52-1.55-.34-.41-.9-.61-1.67-.61-.51,0-.94.11-1.28.32-.34.22-.61.5-.8.85-.19.35-.32.74-.38,1.15-.05.21-.15.35-.3.43s-.31.12-.47.12h-2.54c-.16,0-.29-.05-.38-.16-.1-.1-.14-.22-.14-.35.02-.74.17-1.43.47-2.09s.72-1.24,1.26-1.75c.54-.51,1.2-.92,1.97-1.21.77-.3,1.64-.44,2.62-.44,1.34,0,2.47.22,3.38.66s1.6,1.04,2.06,1.81c.46.77.7,1.66.7,2.66,0,.77-.16,1.48-.47,2.14-.31.66-.76,1.28-1.36,1.88-.59.6-1.3,1.22-2.11,1.86l-2.83,2.83h6.53c.18,0,.32.06.43.17.11.11.17.26.17.43v2.04c0,.18-.06.32-.17.43s-.26.17-.43.17h-11.88Z"/>
      <path class="cls-3" d="m498.25,228.71c-.16,0-.3-.06-.42-.17-.12-.11-.18-.26-.18-.43v-11.93l-3.46,2.66c-.14.11-.29.15-.44.12-.15-.03-.29-.12-.4-.26l-1.2-1.56c-.1-.14-.13-.3-.11-.46.02-.16.11-.29.25-.38l5.47-4.22c.1-.06.19-.11.28-.13.09-.02.19-.04.3-.04h2.54c.16,0,.3.06.41.17.11.11.17.26.17.43v15.6c0,.18-.06.32-.17.43s-.25.17-.41.17h-2.64Z"/>
    </g>
    <path class="cls-3" d="m507.5,220.38c-1.09,0-1.95-.28-2.58-.85-.63-.57-.98-1.33-1.04-2.29-.03-.42-.04-.78-.04-1.09,0-.31.02-.69.04-1.14.05-.98.38-1.76,1-2.34.62-.58,1.49-.88,2.63-.88s2.03.29,2.64.88c.61.58.94,1.36.98,2.34.03.45.05.83.05,1.14s-.02.68-.05,1.09c-.05.96-.39,1.72-1.03,2.29-.64.57-1.5.85-2.59.85Zm-1.94,8.33c-.35,0-.53-.16-.53-.48,0-.1.03-.18.1-.26l11.86-15.6c.11-.14.22-.26.34-.34s.27-.12.48-.12h1.49c.35,0,.53.16.53.48,0,.1-.03.18-.1.26l-11.86,15.6c-.11.14-.22.26-.32.34-.1.08-.27.12-.49.12h-1.49Zm1.94-10.27c.3,0,.54-.06.72-.19.18-.13.31-.3.4-.5s.14-.42.16-.62c.03-.38.05-.72.05-1.02s-.02-.62-.05-.97c-.02-.34-.12-.64-.31-.92-.19-.28-.51-.42-.96-.42s-.76.14-.95.42c-.18.28-.29.59-.32.92-.02.35-.02.68-.02.97s0,.64.02,1.02c.03.21.09.42.17.62s.21.38.38.5.42.19.72.19Zm9.86,10.39c-1.09,0-1.95-.29-2.58-.86s-.98-1.34-1.04-2.3c-.03-.42-.04-.78-.04-1.1,0-.32.02-.7.04-1.15.05-.96.38-1.74,1-2.33s1.49-.89,2.63-.89,2.01.3,2.63.89.95,1.37,1,2.33c.03.45.05.83.05,1.15s-.02.69-.05,1.1c-.05.96-.4,1.73-1.04,2.3-.65.58-1.51.86-2.58.86Zm0-1.97c.3,0,.54-.06.72-.19.18-.13.31-.3.4-.5s.14-.42.16-.65c.03-.37.05-.7.05-1s-.02-.63-.05-1c-.02-.34-.12-.64-.31-.91-.19-.27-.51-.41-.96-.41s-.76.14-.95.41c-.18.27-.29.58-.32.91-.02.37-.02.7-.02,1s0,.63.02,1c.03.22.08.44.16.65.07.21.2.38.38.5.18.13.43.19.73.19Z"/>
    <g>
      <path class="cls-3" d="m555.63,381.48c-.16,0-.3-.06-.42-.17-.12-.11-.18-.26-.18-.43v-11.93l-3.46,2.66c-.14.11-.29.15-.44.12-.15-.03-.29-.12-.4-.26l-1.2-1.56c-.1-.14-.13-.3-.11-.46.02-.16.11-.29.25-.38l5.47-4.22c.1-.06.19-.11.28-.13.09-.02.19-.04.3-.04h2.54c.16,0,.3.06.41.17.11.11.17.26.17.43v15.6c0,.18-.06.32-.17.43s-.25.17-.41.17h-2.64Z"/>
      <path class="cls-3" d="m567.99,381.74c-1.44,0-2.65-.23-3.62-.7s-1.72-1.07-2.22-1.82-.77-1.55-.8-2.4c0-.14.05-.26.14-.36.1-.1.22-.14.36-.14h2.71c.19,0,.35.04.47.13.12.09.21.2.28.35.16.43.37.78.64,1.06.26.27.57.47.92.6.35.13.73.19,1.13.19.51,0,.98-.11,1.42-.32.43-.22.78-.53,1.03-.95.26-.42.38-.93.38-1.54,0-.53-.12-.99-.36-1.39-.24-.4-.58-.71-1.01-.94-.43-.22-.92-.34-1.46-.34-.42,0-.76.05-1.02.14-.26.1-.48.21-.66.35-.18.14-.34.26-.48.36-.14.1-.3.16-.48.16h-2.66c-.14,0-.27-.05-.37-.16-.1-.1-.16-.23-.16-.37l.84-8.28c.03-.22.12-.4.25-.52.14-.12.3-.18.49-.18h9.31c.18,0,.32.06.43.17s.17.26.17.43v1.92c0,.16-.06.3-.17.41-.11.11-.26.17-.43.17h-6.94l-.36,3.53c.32-.21.72-.4,1.19-.56s1.13-.25,1.98-.25c.77,0,1.5.12,2.2.37.7.25,1.32.61,1.86,1.09.54.48.97,1.05,1.28,1.72.31.66.47,1.42.47,2.27,0,1.15-.27,2.16-.82,3.04-.54.87-1.32,1.55-2.33,2.04-1.01.49-2.21.73-3.6.73Z"/>
    </g>
    <path class="cls-3" d="m580.03,373.15c-1.09,0-1.95-.28-2.58-.85-.63-.57-.98-1.33-1.04-2.29-.03-.42-.04-.78-.04-1.09,0-.31.02-.69.04-1.14.05-.98.38-1.76,1-2.34.62-.58,1.49-.88,2.63-.88s2.03.29,2.64.88c.61.58.94,1.36.98,2.34.03.45.05.83.05,1.14s-.02.68-.05,1.09c-.05.96-.39,1.72-1.03,2.29-.64.57-1.5.85-2.59.85Zm-1.94,8.33c-.35,0-.53-.16-.53-.48,0-.1.03-.18.1-.26l11.86-15.6c.11-.14.22-.26.34-.34s.27-.12.48-.12h1.49c.35,0,.53.16.53.48,0,.1-.03.18-.1.26l-11.86,15.6c-.11.14-.22.26-.32.34-.1.08-.27.12-.49.12h-1.49Zm1.94-10.27c.3,0,.54-.06.72-.19.18-.13.31-.3.4-.5s.14-.42.16-.62c.03-.38.05-.72.05-1.02s-.02-.62-.05-.97c-.02-.34-.12-.64-.31-.92-.19-.28-.51-.42-.96-.42s-.76.14-.95.42c-.18.28-.29.59-.32.92-.02.35-.02.68-.02.97s0,.64.02,1.02c.03.21.09.42.17.62s.21.38.38.5.42.19.72.19Zm9.86,10.39c-1.09,0-1.95-.29-2.58-.86s-.98-1.34-1.04-2.3c-.03-.42-.04-.78-.04-1.1,0-.32.02-.7.04-1.15.05-.96.38-1.74,1-2.33s1.49-.89,2.63-.89,2.01.3,2.63.89.95,1.37,1,2.33c.03.45.05.83.05,1.15s-.02.69-.05,1.1c-.05.96-.4,1.73-1.04,2.3-.65.58-1.51.86-2.58.86Zm0-1.97c.3,0,.54-.06.72-.19.18-.13.31-.3.4-.5s.14-.42.16-.65c.03-.37.05-.7.05-1s-.02-.63-.05-1c-.02-.34-.12-.64-.31-.91-.19-.27-.51-.41-.96-.41s-.76.14-.95.41c-.18.27-.29.58-.32.91-.02.37-.02.7-.02,1s0,.63.02,1c.03.22.08.44.16.65.07.21.2.38.38.5.18.13.43.19.73.19Z"/>
    <g>
      <path class="cls-3" d="m299.05,279.87c-1.18,0-2.2-.14-3.05-.43-.85-.29-1.54-.66-2.09-1.1s-.95-.94-1.22-1.48c-.27-.54-.42-1.05-.43-1.55,0-.14.05-.26.14-.36.1-.1.22-.14.36-.14h2.64c.18,0,.32.04.43.11.11.07.22.2.31.37.13.37.34.66.62.89.29.22.63.38,1.02.47.39.09.81.13,1.26.13.9,0,1.6-.21,2.11-.62.51-.42.77-1,.77-1.75s-.24-1.32-.72-1.66-1.16-.5-2.04-.5h-2.57c-.16,0-.3-.06-.41-.17s-.17-.25-.17-.41v-1.18c0-.19.04-.35.11-.48s.15-.22.23-.29l4.13-3.79h-6.77c-.18,0-.32-.06-.43-.17-.11-.11-.17-.25-.17-.41v-1.92c0-.18.06-.32.17-.43.11-.11.26-.17.43-.17h10.66c.18,0,.32.06.43.17.11.11.17.26.17.43v1.73c0,.18-.03.32-.1.44-.06.12-.14.21-.24.28l-3.91,3.86.24.02c.94.1,1.78.33,2.52.7.74.37,1.32.89,1.74,1.57.42.68.64,1.54.64,2.58s-.3,2.02-.89,2.81-1.4,1.39-2.42,1.81c-1.02.42-2.19.64-3.5.64Z"/>
      <path class="cls-3" d="m313.16,279.63c-.16,0-.3-.06-.42-.17-.12-.11-.18-.26-.18-.43v-11.93l-3.46,2.66c-.14.11-.29.15-.44.12-.15-.03-.29-.12-.4-.26l-1.2-1.56c-.1-.14-.13-.3-.11-.46.02-.16.11-.29.25-.38l5.47-4.22c.1-.06.19-.11.28-.13.09-.02.19-.04.3-.04h2.54c.16,0,.3.06.41.17.11.11.17.26.17.43v15.6c0,.18-.06.32-.17.43s-.25.17-.41.17h-2.64Z"/>
    </g>
    <path class="cls-3" d="m322.38,271.3c-1.09,0-1.95-.28-2.58-.85-.63-.57-.98-1.33-1.04-2.29-.03-.42-.04-.78-.04-1.09,0-.31.02-.69.04-1.14.05-.98.38-1.76,1-2.34.62-.58,1.49-.88,2.63-.88s2.03.29,2.64.88c.61.58.94,1.36.98,2.34.03.45.05.83.05,1.14s-.02.68-.05,1.09c-.05.96-.39,1.72-1.03,2.29-.64.57-1.5.85-2.59.85Zm-1.94,8.33c-.35,0-.53-.16-.53-.48,0-.1.03-.18.1-.26l11.86-15.6c.11-.14.22-.26.34-.34s.27-.12.48-.12h1.49c.35,0,.53.16.53.48,0,.1-.03.18-.1.26l-11.86,15.6c-.11.14-.22.26-.32.34-.1.08-.27.12-.49.12h-1.49Zm1.94-10.27c.3,0,.54-.06.72-.19.18-.13.31-.3.4-.5s.14-.42.16-.62c.03-.38.05-.72.05-1.02s-.02-.62-.05-.97c-.02-.34-.12-.64-.31-.92-.19-.28-.51-.42-.96-.42s-.76.14-.95.42c-.18.28-.29.59-.32.92-.02.35-.02.68-.02.97s0,.64.02,1.02c.03.21.09.42.17.62s.21.38.38.5.42.19.72.19Zm9.86,10.39c-1.09,0-1.95-.29-2.58-.86s-.98-1.34-1.04-2.3c-.03-.42-.04-.78-.04-1.1,0-.32.02-.7.04-1.15.05-.96.38-1.74,1-2.33s1.49-.89,2.63-.89,2.01.3,2.63.89.95,1.37,1,2.33c.03.45.05.83.05,1.15s-.02.69-.05,1.1c-.05.96-.4,1.73-1.04,2.3-.65.58-1.51.86-2.58.86Zm0-1.97c.3,0,.54-.06.72-.19.18-.13.31-.3.4-.5s.14-.42.16-.65c.03-.37.05-.7.05-1s-.02-.63-.05-1c-.02-.34-.12-.64-.31-.91-.19-.27-.51-.41-.96-.41s-.76.14-.95.41c-.18.27-.29.58-.32.91-.02.37-.02.7-.02,1s0,.63.02,1c.03.22.08.44.16.65.07.21.2.38.38.5.18.13.43.19.73.19Z"/>
    <g>
      <path class="cls-3" d="m392.54,471.35c-1.18,0-2.2-.14-3.05-.43-.85-.29-1.54-.66-2.09-1.1s-.95-.94-1.22-1.48c-.27-.54-.42-1.05-.43-1.55,0-.14.05-.26.14-.36.1-.1.22-.14.36-.14h2.64c.18,0,.32.04.43.11.11.07.22.2.31.37.13.37.34.66.62.89.29.22.63.38,1.02.47.39.09.81.13,1.26.13.9,0,1.6-.21,2.11-.62.51-.42.77-1,.77-1.75s-.24-1.32-.72-1.66-1.16-.5-2.04-.5h-2.57c-.16,0-.3-.06-.41-.17s-.17-.25-.17-.41v-1.18c0-.19.04-.35.11-.48s.15-.22.23-.29l4.13-3.79h-6.77c-.18,0-.32-.06-.43-.17-.11-.11-.17-.25-.17-.41v-1.92c0-.18.06-.32.17-.43.11-.11.26-.17.43-.17h10.66c.18,0,.32.06.43.17.11.11.17.26.17.43v1.73c0,.18-.03.32-.1.44-.06.12-.14.21-.24.28l-3.91,3.86.24.02c.94.1,1.78.33,2.52.7.74.37,1.32.89,1.74,1.57.42.68.64,1.54.64,2.58s-.3,2.02-.89,2.81-1.4,1.39-2.42,1.81c-1.02.42-2.19.64-3.5.64Z"/>
      <path class="cls-3" d="m407.99,471.35c-1.18,0-2.2-.14-3.05-.43-.85-.29-1.54-.66-2.09-1.1s-.95-.94-1.22-1.48c-.27-.54-.42-1.05-.43-1.55,0-.14.05-.26.14-.36.1-.1.22-.14.36-.14h2.64c.18,0,.32.04.43.11.11.07.22.2.31.37.13.37.34.66.62.89.29.22.63.38,1.02.47.39.09.81.13,1.26.13.9,0,1.6-.21,2.11-.62.51-.42.77-1,.77-1.75s-.24-1.32-.72-1.66-1.16-.5-2.04-.5h-2.57c-.16,0-.3-.06-.41-.17s-.17-.25-.17-.41v-1.18c0-.19.04-.35.11-.48s.15-.22.23-.29l4.13-3.79h-6.77c-.18,0-.32-.06-.43-.17-.11-.11-.17-.25-.17-.41v-1.92c0-.18.06-.32.17-.43.11-.11.26-.17.43-.17h10.66c.18,0,.32.06.43.17.11.11.17.26.17.43v1.73c0,.18-.03.32-.1.44-.06.12-.14.21-.24.28l-3.91,3.86.24.02c.94.1,1.78.33,2.52.7.74.37,1.32.89,1.74,1.57.42.68.64,1.54.64,2.58s-.3,2.02-.89,2.81-1.4,1.39-2.42,1.81c-1.02.42-2.19.64-3.5.64Z"/>
    </g>
    <path class="cls-3" d="m421.27,462.78c-1.09,0-1.95-.28-2.58-.85-.63-.57-.98-1.33-1.04-2.29-.03-.42-.04-.78-.04-1.09,0-.31.02-.69.04-1.14.05-.98.38-1.76,1-2.34.62-.58,1.49-.88,2.63-.88s2.03.29,2.64.88c.61.58.94,1.36.98,2.34.03.45.05.83.05,1.14s-.02.68-.05,1.09c-.05.96-.39,1.72-1.03,2.29-.64.57-1.5.85-2.59.85Zm-1.94,8.33c-.35,0-.53-.16-.53-.48,0-.1.03-.18.1-.26l11.86-15.6c.11-.14.22-.26.34-.34s.27-.12.48-.12h1.49c.35,0,.53.16.53.48,0,.1-.03.18-.1.26l-11.86,15.6c-.11.14-.22.26-.32.34-.1.08-.27.12-.49.12h-1.49Zm1.94-10.27c.3,0,.54-.06.72-.19.18-.13.31-.3.4-.5s.14-.42.16-.62c.03-.38.05-.72.05-1.02s-.02-.62-.05-.97c-.02-.34-.12-.64-.31-.92-.19-.28-.51-.42-.96-.42s-.76.14-.95.42c-.18.28-.29.59-.32.92-.02.35-.02.68-.02.97s0,.64.02,1.02c.03.21.09.42.17.62s.21.38.38.5.42.19.72.19Zm9.86,10.39c-1.09,0-1.95-.29-2.58-.86s-.98-1.34-1.04-2.3c-.03-.42-.04-.78-.04-1.1,0-.32.02-.7.04-1.15.05-.96.38-1.74,1-2.33s1.49-.89,2.63-.89,2.01.3,2.63.89.95,1.37,1,2.33c.03.45.05.83.05,1.15s-.02.69-.05,1.1c-.05.96-.4,1.73-1.04,2.3-.65.58-1.51.86-2.58.86Zm0-1.97c.3,0,.54-.06.72-.19.18-.13.31-.3.4-.5s.14-.42.16-.65c.03-.37.05-.7.05-1s-.02-.63-.05-1c-.02-.34-.12-.64-.31-.91-.19-.27-.51-.41-.96-.41s-.76.14-.95.41c-.18.27-.29.58-.32.91-.02.37-.02.7-.02,1s0,.63.02,1c.03.22.08.44.16.65.07.21.2.38.38.5.18.13.43.19.73.19Z"/>
  </g>
  <g>
    <g>
      <circle class="cls-6" cx="162.09" cy="605.4" r="11.34"/>
      <g>
        <path d="m188.27,611.93c-.09,0-.17-.03-.24-.1-.07-.07-.1-.14-.1-.24v-9.11c0-.1.03-.19.1-.25.06-.07.14-.1.24-.1h3.75c.73,0,1.36.11,1.9.34s.96.57,1.26,1.04.45,1.04.45,1.73-.15,1.28-.45,1.73-.72.79-1.26,1.01c-.54.22-1.18.34-1.9.34h-2.09v3.28c0,.09-.03.17-.09.24s-.14.1-.25.1h-1.33Zm1.64-5.17h2.04c.54,0,.96-.13,1.25-.38.29-.26.43-.64.43-1.14,0-.47-.14-.84-.41-1.13-.27-.28-.7-.43-1.27-.43h-2.04v3.08Z"/>
        <path d="m197.32,611.93c-.09,0-.17-.03-.24-.1-.07-.07-.1-.14-.1-.24v-6.59c0-.1.03-.19.1-.25.06-.07.14-.1.24-.1h1.13c.09,0,.18.03.25.1.07.07.11.15.11.25v.57c.21-.3.49-.53.83-.69.34-.16.73-.24,1.18-.24h.57c.1,0,.18.03.25.1s.09.14.09.24v1.01c0,.09-.03.17-.09.24s-.14.1-.25.1h-1.09c-.45,0-.8.12-1.04.37-.25.25-.37.59-.37,1.04v3.85c0,.09-.03.17-.1.24-.07.07-.15.1-.25.1h-1.22Z"/>
        <path d="m203.11,603.45c-.09,0-.17-.03-.24-.1s-.1-.14-.1-.24v-1.01c0-.09.03-.17.1-.24.07-.06.14-.1.24-.1h1.27c.1,0,.19.03.25.1.06.07.1.15.1.24v1.01c0,.09-.03.17-.1.24-.07.07-.15.1-.25.1h-1.27Zm.06,8.48c-.09,0-.17-.03-.24-.1-.07-.07-.1-.14-.1-.24v-6.61c0-.09.03-.17.1-.24.06-.07.14-.1.24-.1h1.16c.1,0,.18.03.25.1s.09.14.09.24v6.61c0,.09-.03.17-.09.24s-.14.1-.25.1h-1.16Z"/>
        <path d="m209.78,612.07c-.75,0-1.37-.13-1.88-.39-.51-.26-.9-.63-1.16-1.11-.27-.48-.42-1.03-.46-1.67,0-.17-.01-.37-.01-.62s0-.45.01-.62c.04-.64.19-1.2.47-1.67.28-.47.67-.84,1.18-1.1.51-.26,1.13-.39,1.85-.39s1.35.13,1.86.39c.51.26.9.63,1.18,1.1.28.47.43,1.03.47,1.67,0,.17.01.37.01.62s0,.45-.01.62c-.04.63-.19,1.19-.45,1.67-.27.48-.65.84-1.16,1.11-.51.26-1.14.39-1.88.39Zm0-1.39c.5,0,.88-.16,1.15-.47s.42-.77.45-1.38c0-.14.01-.32.01-.55s0-.41-.01-.55c-.03-.61-.18-1.07-.45-1.38-.27-.31-.65-.47-1.15-.47s-.88.16-1.15.47c-.27.31-.42.77-.45,1.38,0,.14-.01.32-.01.55s0,.41.01.55c.03.61.18,1.07.45,1.38s.65.47,1.15.47Z"/>
        <path d="m215.19,611.93c-.09,0-.17-.03-.24-.1-.07-.07-.1-.14-.1-.24v-6.59c0-.1.03-.19.1-.25.06-.07.14-.1.24-.1h1.13c.09,0,.18.03.25.1.07.07.11.15.11.25v.57c.21-.3.49-.53.83-.69.34-.16.73-.24,1.18-.24h.57c.1,0,.18.03.25.1s.09.14.09.24v1.01c0,.09-.03.17-.09.24s-.14.1-.25.1h-1.09c-.45,0-.8.12-1.04.37-.25.25-.37.59-.37,1.04v3.85c0,.09-.03.17-.1.24-.07.07-.15.1-.25.1h-1.22Z"/>
        <path d="m220.97,603.45c-.09,0-.17-.03-.24-.1s-.1-.14-.1-.24v-1.01c0-.09.03-.17.1-.24.07-.06.14-.1.24-.1h1.27c.1,0,.19.03.25.1.06.07.1.15.1.24v1.01c0,.09-.03.17-.1.24-.07.07-.15.1-.25.1h-1.27Zm.06,8.48c-.09,0-.17-.03-.24-.1-.07-.07-.1-.14-.1-.24v-6.61c0-.09.03-.17.1-.24.06-.07.14-.1.24-.1h1.16c.1,0,.18.03.25.1s.09.14.09.24v6.61c0,.09-.03.17-.09.24s-.14.1-.25.1h-1.16Z"/>
        <path d="m227.68,611.93c-.56,0-1.03-.1-1.41-.29s-.67-.49-.85-.88c-.19-.39-.28-.87-.28-1.45v-3.18h-1.11c-.09,0-.17-.03-.24-.1-.07-.07-.1-.15-.1-.25v-.8c0-.09.03-.17.1-.24.06-.07.14-.1.24-.1h1.11v-2.32c0-.09.03-.17.09-.24s.14-.1.25-.1h1.13c.09,0,.17.03.24.1s.1.14.1.24v2.32h1.75c.09,0,.17.03.24.1s.1.14.1.24v.8c0,.1-.03.19-.1.25s-.14.1-.24.1h-1.75v3.04c0,.38.07.68.2.9.14.21.37.32.71.32h.97c.09,0,.17.03.24.1.07.07.1.15.1.24v.87c0,.09-.03.17-.1.24s-.14.1-.24.1h-1.13Z"/>
        <path d="m231.71,614.59c-.08,0-.14-.03-.2-.08-.06-.06-.08-.12-.08-.2,0-.04,0-.07,0-.1,0-.03.02-.07.05-.12l1.09-2.59-2.69-6.34c-.04-.09-.06-.16-.06-.2,0-.08.04-.16.1-.22.06-.06.13-.09.21-.09h1.13c.11,0,.2.03.25.08s.1.12.13.18l1.86,4.58,1.92-4.58c.03-.08.07-.14.13-.19.06-.05.14-.08.25-.08h1.12c.07,0,.14.03.2.08.06.06.09.12.09.2,0,.06-.02.13-.06.22l-3.96,9.17c-.04.08-.08.14-.14.19-.06.05-.14.08-.25.08h-1.11Z"/>
        <path d="m244.22,611.93c-.1,0-.18-.03-.25-.1s-.09-.14-.09-.24v-7.25l-2.13,1.64c-.08.06-.17.08-.25.06-.08-.01-.16-.06-.22-.15l-.59-.76c-.06-.08-.08-.17-.06-.27.01-.09.06-.17.15-.22l3.14-2.42c.06-.05.11-.07.17-.08.06,0,.12-.01.18-.01h1.23c.09,0,.17.03.24.1s.1.14.1.24v9.13c0,.09-.03.17-.1.24s-.14.1-.24.1h-1.27Z"/>
        <path d="m251.25,608.53c-.1,0-.18-.03-.25-.1s-.09-.14-.09-.24v-.92c0-.09.03-.17.09-.24.06-.06.14-.1.25-.1h4.3c.09,0,.17.03.24.1.07.07.1.15.1.24v.92c0,.09-.03.17-.1.24s-.14.1-.24.1h-4.3Z"/>
        <path d="m264.47,612.07c-.87,0-1.59-.13-2.18-.38-.58-.26-1.03-.59-1.33-1.01-.3-.42-.46-.85-.48-1.31,0-.08.03-.15.08-.21.06-.06.13-.08.21-.08h1.25c.12,0,.21.03.27.08.06.05.11.11.16.19.06.18.16.35.32.52.16.17.38.32.65.43.28.11.62.17,1.04.17.67,0,1.17-.11,1.5-.34.33-.22.5-.53.5-.91,0-.27-.09-.49-.27-.65-.18-.16-.45-.31-.82-.45-.37-.13-.86-.28-1.46-.43-.7-.17-1.29-.37-1.76-.61-.47-.24-.83-.54-1.06-.9s-.36-.83-.36-1.39.15-1.02.44-1.44.71-.75,1.26-.99c.55-.24,1.2-.36,1.95-.36.61,0,1.14.08,1.61.25.47.16.85.38,1.16.64.31.27.54.55.71.85.16.3.25.6.26.89,0,.07-.03.14-.08.2-.05.06-.12.09-.22.09h-1.3c-.08,0-.15-.02-.22-.06-.07-.04-.13-.11-.18-.21-.06-.29-.24-.54-.55-.74-.31-.21-.71-.31-1.19-.31s-.91.09-1.22.28-.46.48-.46.87c0,.26.08.48.23.65.15.17.4.32.74.46s.79.27,1.35.42c.79.18,1.44.38,1.95.62s.87.53,1.11.89c.23.36.35.81.35,1.37,0,.62-.17,1.14-.5,1.58s-.8.77-1.39,1c-.6.23-1.29.35-2.09.35Z"/>
        <path d="m273.04,612.07c-.67,0-1.26-.13-1.77-.38s-.91-.62-1.19-1.1c-.29-.48-.44-1.06-.47-1.74,0-.14-.01-.32-.01-.55s0-.42.01-.57c.03-.68.18-1.26.47-1.74.28-.48.68-.85,1.19-1.1s1.1-.38,1.77-.38c.6,0,1.11.08,1.53.25s.77.37,1.04.63.47.52.61.8c.13.28.21.53.22.75,0,.1-.02.18-.09.25s-.15.09-.25.09h-1.23c-.09,0-.17-.02-.22-.07-.05-.05-.1-.12-.15-.21-.14-.37-.32-.64-.55-.79-.23-.15-.52-.23-.88-.23-.47,0-.84.15-1.11.44-.28.29-.42.76-.44,1.39-.02.35-.02.68,0,.98.02.64.17,1.11.44,1.4s.65.43,1.11.43c.36,0,.66-.08.88-.23.22-.15.41-.42.55-.79.05-.09.1-.16.15-.21.05-.05.12-.07.22-.07h1.23c.09,0,.17.03.25.09.07.06.1.14.09.25,0,.17-.05.36-.13.57s-.21.42-.38.64c-.17.22-.39.42-.65.6-.26.18-.58.33-.94.44-.37.11-.8.17-1.28.17Z"/>
        <path d="m278.16,603.45c-.09,0-.17-.03-.24-.1s-.1-.14-.1-.24v-1.01c0-.09.03-.17.1-.24.07-.06.14-.1.24-.1h1.27c.1,0,.19.03.25.1.06.07.1.15.1.24v1.01c0,.09-.03.17-.1.24-.07.07-.15.1-.25.1h-1.27Zm.06,8.48c-.09,0-.17-.03-.24-.1-.07-.07-.1-.14-.1-.24v-6.61c0-.09.03-.17.1-.24.06-.07.14-.1.24-.1h1.16c.1,0,.18.03.25.1s.09.14.09.24v6.61c0,.09-.03.17-.09.24s-.14.1-.25.1h-1.16Z"/>
        <path d="m284.75,612.07c-1.04,0-1.86-.3-2.46-.9s-.93-1.45-.98-2.55c0-.09-.01-.21-.01-.36s0-.26.01-.34c.04-.71.2-1.32.48-1.83.29-.51.68-.9,1.18-1.18s1.1-.41,1.78-.41c.76,0,1.39.16,1.9.47s.9.75,1.16,1.3c.26.56.39,1.2.39,1.93v.29c0,.09-.03.17-.1.24-.07.07-.15.1-.25.1h-4.65v.11c0,.33.07.63.19.9.12.28.29.5.52.67.23.17.5.25.82.25.26,0,.48-.04.66-.12.18-.08.32-.17.43-.27.11-.1.19-.19.24-.25.08-.11.15-.18.2-.2.05-.02.13-.04.23-.04h1.2c.09,0,.17.03.23.08s.09.13.08.21c0,.15-.09.33-.23.55s-.35.42-.62.63c-.27.21-.61.38-1.01.51-.41.14-.87.2-1.39.2Zm-1.54-4.41h3.09v-.04c0-.36-.06-.68-.18-.96-.12-.27-.3-.49-.53-.64-.23-.15-.51-.23-.84-.23s-.61.08-.84.23-.41.37-.52.64c-.12.28-.18.6-.18.96v.04Z"/>
        <path d="m290.03,611.93c-.09,0-.17-.03-.24-.1-.07-.07-.1-.14-.1-.24v-6.61c0-.09.03-.17.1-.24.06-.07.14-.1.24-.1h1.15c.09,0,.17.03.24.1.06.07.1.14.1.24v.57c.24-.3.55-.55.93-.75.38-.2.85-.3,1.41-.3s1.06.13,1.48.38.74.62.97,1.08.34,1.03.34,1.68v3.93c0,.09-.03.17-.1.24s-.14.1-.24.1h-1.23c-.09,0-.17-.03-.24-.1s-.1-.14-.1-.24v-3.85c0-.54-.13-.97-.4-1.27s-.65-.46-1.16-.46-.87.15-1.16.46-.43.73-.43,1.27v3.85c0,.09-.03.17-.1.24-.07.07-.15.1-.24.1h-1.23Z"/>
        <path d="m301.58,612.07c-.67,0-1.26-.13-1.77-.38s-.91-.62-1.19-1.1c-.29-.48-.44-1.06-.47-1.74,0-.14-.01-.32-.01-.55s0-.42.01-.57c.03-.68.18-1.26.47-1.74.28-.48.68-.85,1.19-1.1s1.1-.38,1.77-.38c.6,0,1.11.08,1.53.25s.77.37,1.04.63.47.52.61.8c.13.28.21.53.22.75,0,.1-.02.18-.09.25s-.15.09-.25.09h-1.23c-.09,0-.17-.02-.22-.07-.05-.05-.1-.12-.15-.21-.14-.37-.32-.64-.55-.79-.23-.15-.52-.23-.88-.23-.47,0-.84.15-1.11.44-.28.29-.42.76-.44,1.39-.02.35-.02.68,0,.98.02.64.17,1.11.44,1.4s.65.43,1.11.43c.36,0,.66-.08.88-.23.22-.15.41-.42.55-.79.05-.09.1-.16.15-.21.05-.05.12-.07.22-.07h1.23c.09,0,.17.03.25.09.07.06.1.14.09.25,0,.17-.05.36-.13.57s-.21.42-.38.64c-.17.22-.39.42-.65.6-.26.18-.58.33-.94.44-.37.11-.8.17-1.28.17Z"/>
        <path d="m309.56,612.07c-1.04,0-1.86-.3-2.46-.9s-.93-1.45-.98-2.55c0-.09-.01-.21-.01-.36s0-.26.01-.34c.04-.71.2-1.32.48-1.83.29-.51.68-.9,1.18-1.18s1.1-.41,1.78-.41c.76,0,1.39.16,1.9.47s.9.75,1.16,1.3c.26.56.39,1.2.39,1.93v.29c0,.09-.03.17-.1.24-.07.07-.15.1-.25.1h-4.65v.11c0,.33.07.63.19.9.12.28.29.5.52.67.23.17.5.25.82.25.26,0,.48-.04.66-.12.18-.08.32-.17.43-.27.11-.1.19-.19.24-.25.08-.11.15-.18.2-.2.05-.02.13-.04.23-.04h1.2c.09,0,.17.03.23.08s.09.13.08.21c0,.15-.09.33-.23.55s-.35.42-.62.63c-.27.21-.61.38-1.01.51-.41.14-.87.2-1.39.2Zm-1.54-4.41h3.09v-.04c0-.36-.06-.68-.18-.96-.12-.27-.3-.49-.53-.64-.23-.15-.51-.23-.84-.23s-.61.08-.84.23-.41.37-.52.64c-.12.28-.18.6-.18.96v.04Z"/>
        <path d="m320.89,612.07c-.68,0-1.28-.11-1.78-.34-.51-.23-.91-.55-1.19-.98-.29-.42-.43-.92-.43-1.49,0-.41.08-.78.25-1.1.17-.32.4-.61.69-.87.29-.26.62-.49.99-.71-.4-.42-.69-.8-.85-1.15-.17-.34-.25-.7-.25-1.05,0-.43.11-.82.34-1.18.22-.36.55-.65.97-.88.42-.22.93-.34,1.54-.34.57,0,1.06.11,1.46.32s.72.5.95.86c.22.36.34.75.34,1.18,0,.39-.09.74-.27,1.04-.18.3-.43.58-.74.82-.31.24-.65.47-1.04.69l2.02,2c.11-.19.24-.43.38-.73.14-.3.26-.68.36-1.13.03-.16.13-.24.29-.24h1.02c.08,0,.15.03.2.08.05.05.08.12.08.2,0,.2-.05.41-.12.64-.07.23-.16.48-.28.74-.12.26-.25.52-.4.77-.15.25-.31.49-.48.71l1.48,1.51c.08.07.11.14.11.21s-.02.14-.07.18c-.05.05-.11.07-.2.07h-1.34c-.09,0-.17-.01-.22-.04-.06-.03-.11-.06-.15-.1l-.77-.76c-.37.33-.8.58-1.27.76-.47.18-1.01.27-1.62.27Zm0-1.44c.33,0,.64-.06.95-.18.31-.12.59-.3.85-.55l-2.24-2.21c-.33.18-.61.39-.85.63-.24.24-.36.54-.36.88,0,.3.08.55.23.76.15.21.36.37.61.49.25.12.52.17.8.17Zm-.01-4.76c.25-.14.49-.28.7-.42.21-.14.38-.3.51-.47s.19-.37.19-.58c0-.32-.11-.57-.32-.76s-.49-.28-.81-.28c-.3,0-.56.09-.79.27-.23.18-.34.44-.34.76,0,.14.03.28.08.42.05.14.14.29.27.46.13.16.3.36.52.6Z"/>
        <path d="m331.47,611.93c-.09,0-.17-.03-.24-.1-.07-.07-.1-.14-.1-.24v-9.11c0-.1.03-.19.1-.25.06-.07.14-.1.24-.1h3.63c1.13,0,2.02.26,2.67.78.65.52.98,1.28.98,2.28,0,.69-.17,1.27-.51,1.72-.34.46-.8.79-1.37.99l2.04,3.57c.03.06.04.11.04.15,0,.08-.03.15-.09.21s-.13.08-.2.08h-1.27c-.16,0-.28-.04-.36-.13s-.15-.17-.2-.25l-1.81-3.32h-1.95v3.36c0,.09-.03.17-.09.24-.06.07-.14.1-.25.1h-1.27Zm1.61-5.28h1.97c.57,0,.99-.13,1.27-.38s.42-.62.42-1.08-.14-.83-.41-1.1c-.28-.27-.7-.4-1.28-.4h-1.97v2.97Z"/>
        <path d="m343.44,612.07c-1.04,0-1.86-.3-2.46-.9s-.93-1.45-.98-2.55c0-.09-.01-.21-.01-.36s0-.26.01-.34c.04-.71.2-1.32.48-1.83.29-.51.68-.9,1.18-1.18s1.1-.41,1.78-.41c.76,0,1.39.16,1.9.47s.9.75,1.16,1.3c.26.56.39,1.2.39,1.93v.29c0,.09-.03.17-.1.24-.07.07-.15.1-.25.1h-4.65v.11c0,.33.07.63.19.9.12.28.29.5.52.67.23.17.5.25.82.25.26,0,.48-.04.66-.12.18-.08.32-.17.43-.27.11-.1.19-.19.24-.25.08-.11.15-.18.2-.2.05-.02.13-.04.23-.04h1.2c.09,0,.17.03.23.08s.09.13.08.21c0,.15-.09.33-.23.55s-.35.42-.62.63c-.27.21-.61.38-1.01.51-.41.14-.87.2-1.39.2Zm-1.54-4.41h3.09v-.04c0-.36-.06-.68-.18-.96-.12-.27-.3-.49-.53-.64-.23-.15-.51-.23-.84-.23s-.61.08-.84.23-.41.37-.52.64c-.12.28-.18.6-.18.96v.04Z"/>
        <path d="m351.14,612.07c-.56,0-1.04-.07-1.43-.2-.4-.13-.72-.29-.97-.49s-.44-.39-.56-.59c-.12-.2-.19-.36-.2-.49,0-.1.02-.18.09-.25.07-.06.15-.09.23-.09h1.11s.07,0,.1.01c.03,0,.07.04.11.08.12.1.25.21.38.32.13.11.3.21.48.29.19.08.42.12.7.12.36,0,.67-.07.92-.22.25-.14.37-.35.37-.62,0-.2-.05-.35-.16-.48-.11-.12-.31-.23-.59-.33-.29-.1-.7-.2-1.23-.31-.52-.12-.96-.28-1.3-.46-.34-.19-.6-.42-.77-.7s-.25-.61-.25-.98.11-.71.33-1.04c.22-.33.55-.6.98-.82.43-.21.97-.32,1.62-.32.5,0,.94.06,1.32.19.37.13.68.28.93.47s.44.38.57.57c.13.19.2.36.21.5,0,.1-.02.18-.08.25-.07.06-.14.09-.22.09h-1.04s-.09,0-.13-.03-.07-.04-.11-.07c-.1-.09-.21-.19-.34-.3-.12-.11-.27-.2-.44-.27-.17-.07-.4-.11-.68-.11-.36,0-.63.08-.81.23s-.28.35-.28.58c0,.16.04.3.13.41.09.12.27.23.54.33.27.1.68.21,1.23.32.62.11,1.12.28,1.49.5.37.22.63.47.78.76.15.28.23.6.23.94,0,.42-.12.8-.37,1.13-.25.34-.61.6-1.09.79-.48.19-1.08.29-1.79.29Z"/>
        <path d="m358.97,612.07c-1.04,0-1.86-.3-2.46-.9s-.93-1.45-.98-2.55c0-.09-.01-.21-.01-.36s0-.26.01-.34c.04-.71.2-1.32.48-1.83.29-.51.68-.9,1.18-1.18s1.1-.41,1.78-.41c.76,0,1.39.16,1.9.47s.9.75,1.16,1.3c.26.56.39,1.2.39,1.93v.29c0,.09-.03.17-.1.24-.07.07-.15.1-.25.1h-4.65v.11c0,.33.07.63.19.9.12.28.29.5.52.67.23.17.5.25.82.25.26,0,.48-.04.66-.12.18-.08.32-.17.43-.27.11-.1.19-.19.24-.25.08-.11.15-.18.2-.2.05-.02.13-.04.23-.04h1.2c.09,0,.17.03.23.08s.09.13.08.21c0,.15-.09.33-.23.55s-.35.42-.62.63c-.27.21-.61.38-1.01.51-.41.14-.87.2-1.39.2Zm-1.54-4.41h3.09v-.04c0-.36-.06-.68-.18-.96-.12-.27-.3-.49-.53-.64-.23-.15-.51-.23-.84-.23s-.61.08-.84.23-.41.37-.52.64c-.12.28-.18.6-.18.96v.04Z"/>
        <path d="m366.02,612.07c-.49,0-.92-.1-1.32-.29-.39-.19-.7-.45-.93-.77s-.34-.68-.34-1.08c0-.65.27-1.17.8-1.56.53-.39,1.23-.65,2.09-.78l1.92-.28v-.29c0-.39-.1-.7-.29-.91s-.53-.32-1.01-.32c-.34,0-.61.07-.82.2-.21.14-.37.32-.47.54-.08.12-.18.18-.32.18h-1.11c-.1,0-.18-.03-.23-.08-.05-.06-.08-.13-.08-.22,0-.15.07-.33.19-.55.12-.21.29-.42.53-.62.24-.2.55-.37.93-.51s.84-.21,1.39-.21c.59,0,1.08.07,1.49.22s.73.34.97.58.42.53.53.85c.11.33.17.67.17,1.04v4.4c0,.09-.03.17-.1.24-.07.07-.15.1-.24.1h-1.13c-.1,0-.18-.03-.25-.1s-.09-.14-.09-.24v-.55c-.12.17-.29.33-.49.49-.21.16-.46.29-.75.38-.29.1-.64.15-1.04.15Zm.48-1.33c.33,0,.62-.07.89-.21.27-.14.48-.36.63-.65.15-.29.23-.67.23-1.11v-.29l-1.4.22c-.55.08-.96.22-1.23.41s-.41.42-.41.69c0,.21.06.38.19.52s.29.25.48.32c.2.07.4.1.62.1Z"/>
        <path d="m372.24,611.93c-.09,0-.17-.03-.24-.1-.07-.07-.1-.14-.1-.24v-6.59c0-.1.03-.19.1-.25.06-.07.14-.1.24-.1h1.13c.09,0,.18.03.25.1.07.07.11.15.11.25v.57c.21-.3.49-.53.83-.69.34-.16.73-.24,1.18-.24h.57c.1,0,.18.03.25.1s.09.14.09.24v1.01c0,.09-.03.17-.09.24s-.14.1-.25.1h-1.09c-.45,0-.8.12-1.04.37-.25.25-.37.59-.37,1.04v3.85c0,.09-.03.17-.1.24-.07.07-.15.1-.25.1h-1.22Z"/>
        <path d="m380.79,612.07c-.67,0-1.26-.13-1.77-.38s-.91-.62-1.19-1.1c-.29-.48-.44-1.06-.47-1.74,0-.14-.01-.32-.01-.55s0-.42.01-.57c.03-.68.18-1.26.47-1.74.28-.48.68-.85,1.19-1.1s1.1-.38,1.77-.38c.6,0,1.11.08,1.53.25s.77.37,1.04.63.47.52.61.8c.13.28.21.53.22.75,0,.1-.02.18-.09.25s-.15.09-.25.09h-1.23c-.09,0-.17-.02-.22-.07-.05-.05-.1-.12-.15-.21-.14-.37-.32-.64-.55-.79-.23-.15-.52-.23-.88-.23-.47,0-.84.15-1.11.44-.28.29-.42.76-.44,1.39-.02.35-.02.68,0,.98.02.64.17,1.11.44,1.4s.65.43,1.11.43c.36,0,.66-.08.88-.23.22-.15.41-.42.55-.79.05-.09.1-.16.15-.21.05-.05.12-.07.22-.07h1.23c.09,0,.17.03.25.09.07.06.1.14.09.25,0,.17-.05.36-.13.57s-.21.42-.38.64c-.17.22-.39.42-.65.6-.26.18-.58.33-.94.44-.37.11-.8.17-1.28.17Z"/>
        <path d="m385.99,611.93c-.09,0-.17-.03-.24-.1s-.1-.14-.1-.24v-9.27c0-.09.03-.17.1-.24s.14-.1.24-.1h1.25c.1,0,.18.03.25.1s.09.14.09.24v3.19c.25-.3.56-.54.92-.73.36-.19.81-.28,1.34-.28.57,0,1.07.13,1.49.38s.75.62.99,1.08.35,1.03.35,1.68v3.93c0,.09-.03.17-.1.24-.06.07-.14.1-.24.1h-1.26c-.09,0-.17-.03-.24-.1s-.1-.14-.1-.24v-3.85c0-.54-.13-.97-.4-1.27s-.65-.46-1.16-.46-.88.15-1.17.46-.44.73-.44,1.27v3.85c0,.09-.03.17-.09.24s-.14.1-.25.1h-1.25Z"/>
      </g>
      <circle class="cls-8" cx="494.88" cy="605.4" r="11.34"/>
      <g>
        <path d="m520.83,611.93c-.09,0-.17-.03-.24-.1-.07-.07-.1-.14-.1-.24v-9.11c0-.1.03-.19.1-.25.06-.07.14-.1.24-.1h3.75c.73,0,1.36.11,1.9.34s.96.57,1.26,1.04.45,1.04.45,1.73-.15,1.28-.45,1.73-.72.79-1.26,1.01c-.54.22-1.18.34-1.9.34h-2.09v3.28c0,.09-.03.17-.09.24s-.14.1-.25.1h-1.33Zm1.64-5.17h2.04c.54,0,.96-.13,1.25-.38.29-.26.43-.64.43-1.14,0-.47-.14-.84-.41-1.13-.27-.28-.7-.43-1.27-.43h-2.04v3.08Z"/>
        <path d="m529.89,611.93c-.09,0-.17-.03-.24-.1-.07-.07-.1-.14-.1-.24v-6.59c0-.1.03-.19.1-.25.06-.07.14-.1.24-.1h1.13c.09,0,.18.03.25.1.07.07.11.15.11.25v.57c.21-.3.49-.53.83-.69.34-.16.73-.24,1.18-.24h.57c.1,0,.18.03.25.1s.09.14.09.24v1.01c0,.09-.03.17-.09.24s-.14.1-.25.1h-1.09c-.45,0-.8.12-1.04.37-.25.25-.37.59-.37,1.04v3.85c0,.09-.03.17-.1.24-.07.07-.15.1-.25.1h-1.22Z"/>
        <path d="m535.67,603.45c-.09,0-.17-.03-.24-.1s-.1-.14-.1-.24v-1.01c0-.09.03-.17.1-.24.07-.06.14-.1.24-.1h1.27c.1,0,.19.03.25.1.06.07.1.15.1.24v1.01c0,.09-.03.17-.1.24-.07.07-.15.1-.25.1h-1.27Zm.06,8.48c-.09,0-.17-.03-.24-.1-.07-.07-.1-.14-.1-.24v-6.61c0-.09.03-.17.1-.24.06-.07.14-.1.24-.1h1.16c.1,0,.18.03.25.1s.09.14.09.24v6.61c0,.09-.03.17-.09.24s-.14.1-.25.1h-1.16Z"/>
        <path d="m542.35,612.07c-.75,0-1.37-.13-1.88-.39-.51-.26-.9-.63-1.16-1.11-.27-.48-.42-1.03-.46-1.67,0-.17-.01-.37-.01-.62s0-.45.01-.62c.04-.64.19-1.2.47-1.67.28-.47.67-.84,1.18-1.1.51-.26,1.13-.39,1.85-.39s1.35.13,1.86.39c.51.26.9.63,1.18,1.1.28.47.43,1.03.47,1.67,0,.17.01.37.01.62s0,.45-.01.62c-.04.63-.19,1.19-.45,1.67-.27.48-.65.84-1.16,1.11-.51.26-1.14.39-1.88.39Zm0-1.39c.5,0,.88-.16,1.15-.47s.42-.77.45-1.38c0-.14.01-.32.01-.55s0-.41-.01-.55c-.03-.61-.18-1.07-.45-1.38-.27-.31-.65-.47-1.15-.47s-.88.16-1.15.47c-.27.31-.42.77-.45,1.38,0,.14-.01.32-.01.55s0,.41.01.55c.03.61.18,1.07.45,1.38s.65.47,1.15.47Z"/>
        <path d="m547.75,611.93c-.09,0-.17-.03-.24-.1-.07-.07-.1-.14-.1-.24v-6.59c0-.1.03-.19.1-.25.06-.07.14-.1.24-.1h1.13c.09,0,.18.03.25.1.07.07.11.15.11.25v.57c.21-.3.49-.53.83-.69.34-.16.73-.24,1.18-.24h.57c.1,0,.18.03.25.1s.09.14.09.24v1.01c0,.09-.03.17-.09.24s-.14.1-.25.1h-1.09c-.45,0-.8.12-1.04.37-.25.25-.37.59-.37,1.04v3.85c0,.09-.03.17-.1.24-.07.07-.15.1-.25.1h-1.22Z"/>
        <path d="m553.53,603.45c-.09,0-.17-.03-.24-.1s-.1-.14-.1-.24v-1.01c0-.09.03-.17.1-.24.07-.06.14-.1.24-.1h1.27c.1,0,.19.03.25.1.06.07.1.15.1.24v1.01c0,.09-.03.17-.1.24-.07.07-.15.1-.25.1h-1.27Zm.06,8.48c-.09,0-.17-.03-.24-.1-.07-.07-.1-.14-.1-.24v-6.61c0-.09.03-.17.1-.24.06-.07.14-.1.24-.1h1.16c.1,0,.18.03.25.1s.09.14.09.24v6.61c0,.09-.03.17-.09.24s-.14.1-.25.1h-1.16Z"/>
        <path d="m560.24,611.93c-.56,0-1.03-.1-1.41-.29s-.67-.49-.85-.88c-.19-.39-.28-.87-.28-1.45v-3.18h-1.11c-.09,0-.17-.03-.24-.1-.07-.07-.1-.15-.1-.25v-.8c0-.09.03-.17.1-.24.06-.07.14-.1.24-.1h1.11v-2.32c0-.09.03-.17.09-.24s.14-.1.25-.1h1.13c.09,0,.17.03.24.1s.1.14.1.24v2.32h1.75c.09,0,.17.03.24.1s.1.14.1.24v.8c0,.1-.03.19-.1.25s-.14.1-.24.1h-1.75v3.04c0,.38.07.68.2.9.14.21.37.32.71.32h.97c.09,0,.17.03.24.1.07.07.1.15.1.24v.87c0,.09-.03.17-.1.24s-.14.1-.24.1h-1.13Z"/>
        <path d="m564.27,614.59c-.08,0-.14-.03-.2-.08-.06-.06-.08-.12-.08-.2,0-.04,0-.07,0-.1,0-.03.02-.07.05-.12l1.09-2.59-2.69-6.34c-.04-.09-.06-.16-.06-.2,0-.08.04-.16.1-.22.06-.06.13-.09.21-.09h1.13c.11,0,.2.03.25.08s.1.12.13.18l1.86,4.58,1.92-4.58c.03-.08.07-.14.13-.19.06-.05.14-.08.25-.08h1.12c.07,0,.14.03.2.08.06.06.09.12.09.2,0,.06-.02.13-.06.22l-3.96,9.17c-.04.08-.08.14-.14.19-.06.05-.14.08-.25.08h-1.11Z"/>
        <path d="m573.87,611.93c-.09,0-.17-.03-.24-.1s-.1-.14-.1-.24v-.71c0-.08.02-.18.06-.3.04-.12.14-.24.29-.36l2.21-2.2c.62-.49,1.11-.9,1.49-1.24s.65-.65.83-.94c.17-.28.26-.57.26-.85,0-.42-.11-.76-.34-1.02-.23-.26-.59-.39-1.08-.39-.33,0-.6.07-.83.2-.22.13-.4.31-.52.54-.13.22-.21.47-.26.74-.02.12-.07.21-.15.25-.08.05-.17.07-.25.07h-1.25c-.08,0-.15-.03-.21-.08-.06-.06-.08-.12-.08-.2,0-.4.09-.79.25-1.17.16-.38.39-.71.69-1.01.3-.29.67-.53,1.11-.71.44-.18.93-.27,1.48-.27.77,0,1.42.13,1.92.39.51.26.89.62,1.15,1.06.26.45.38.95.38,1.51,0,.44-.08.84-.25,1.21-.17.37-.41.72-.73,1.06s-.7.69-1.15,1.04l-1.99,2.02h3.99c.1,0,.18.03.25.09.06.06.09.14.09.25v.99c0,.09-.03.17-.09.24-.06.07-.14.1-.25.1h-6.69Z"/>
        <path d="m586,608.53c-.1,0-.18-.03-.25-.1s-.09-.14-.09-.24v-.92c0-.09.03-.17.09-.24.06-.06.14-.1.25-.1h4.3c.09,0,.17.03.24.1.07.07.1.15.1.24v.92c0,.09-.03.17-.1.24s-.14.1-.24.1h-4.3Z"/>
        <path d="m596.15,611.93c-.09,0-.17-.03-.24-.1-.07-.07-.1-.14-.1-.24v-9.11c0-.1.03-.19.1-.25.06-.07.14-.1.24-.1h3.75c.73,0,1.36.11,1.9.34s.96.57,1.26,1.04.45,1.04.45,1.73-.15,1.28-.45,1.73-.72.79-1.26,1.01c-.54.22-1.18.34-1.9.34h-2.09v3.28c0,.09-.03.17-.09.24s-.14.1-.25.1h-1.33Zm1.64-5.17h2.04c.54,0,.96-.13,1.25-.38.29-.26.43-.64.43-1.14,0-.47-.14-.84-.41-1.13-.27-.28-.7-.43-1.27-.43h-2.04v3.08Z"/>
        <path d="m607.99,612.07c-.75,0-1.37-.13-1.88-.39-.51-.26-.9-.63-1.16-1.11-.27-.48-.42-1.03-.46-1.67,0-.17-.01-.37-.01-.62s0-.45.01-.62c.04-.64.19-1.2.47-1.67.28-.47.67-.84,1.18-1.1.51-.26,1.13-.39,1.85-.39s1.35.13,1.86.39c.51.26.9.63,1.18,1.1.28.47.43,1.03.47,1.67,0,.17.01.37.01.62s0,.45-.01.62c-.04.63-.19,1.19-.45,1.67-.27.48-.65.84-1.16,1.11-.51.26-1.14.39-1.88.39Zm0-1.39c.5,0,.88-.16,1.15-.47s.42-.77.45-1.38c0-.14.01-.32.01-.55s0-.41-.01-.55c-.03-.61-.18-1.07-.45-1.38-.27-.31-.65-.47-1.15-.47s-.88.16-1.15.47c-.27.31-.42.77-.45,1.38,0,.14-.01.32-.01.55s0,.41.01.55c.03.61.18,1.07.45,1.38s.65.47,1.15.47Z"/>
        <path d="m613.41,611.93c-.09,0-.17-.03-.24-.1s-.1-.14-.1-.24v-9.27c0-.09.03-.17.1-.24s.14-.1.24-.1h1.16c.09,0,.17.03.24.1s.1.14.1.24v9.27c0,.09-.03.17-.1.24s-.14.1-.24.1h-1.16Z"/>
        <path d="m617.36,603.45c-.09,0-.17-.03-.24-.1s-.1-.14-.1-.24v-1.01c0-.09.03-.17.1-.24.07-.06.14-.1.24-.1h1.27c.1,0,.19.03.25.1.06.07.1.15.1.24v1.01c0,.09-.03.17-.1.24-.07.07-.15.1-.25.1h-1.27Zm.06,8.48c-.09,0-.17-.03-.24-.1-.07-.07-.1-.14-.1-.24v-6.61c0-.09.03-.17.1-.24.06-.07.14-.1.24-.1h1.16c.1,0,.18.03.25.1s.09.14.09.24v6.61c0,.09-.03.17-.09.24s-.14.1-.25.1h-1.16Z"/>
        <path d="m623.97,612.07c-.67,0-1.26-.13-1.77-.38s-.91-.62-1.19-1.1c-.29-.48-.44-1.06-.47-1.74,0-.14-.01-.32-.01-.55s0-.42.01-.57c.03-.68.18-1.26.47-1.74.28-.48.68-.85,1.19-1.1s1.1-.38,1.77-.38c.6,0,1.11.08,1.53.25s.77.37,1.04.63.47.52.61.8c.13.28.21.53.22.75,0,.1-.02.18-.09.25s-.15.09-.25.09h-1.23c-.09,0-.17-.02-.22-.07-.05-.05-.1-.12-.15-.21-.14-.37-.32-.64-.55-.79-.23-.15-.52-.23-.88-.23-.47,0-.84.15-1.11.44-.28.29-.42.76-.44,1.39-.02.35-.02.68,0,.98.02.64.17,1.11.44,1.4s.65.43,1.11.43c.36,0,.66-.08.88-.23.22-.15.41-.42.55-.79.05-.09.1-.16.15-.21.05-.05.12-.07.22-.07h1.23c.09,0,.17.03.25.09.07.06.1.14.09.25,0,.17-.05.36-.13.57s-.21.42-.38.64c-.17.22-.39.42-.65.6-.26.18-.58.33-.94.44-.37.11-.8.17-1.28.17Z"/>
        <path d="m629.89,614.59c-.08,0-.14-.03-.2-.08-.06-.06-.08-.12-.08-.2,0-.04,0-.07,0-.1,0-.03.02-.07.05-.12l1.09-2.59-2.69-6.34c-.04-.09-.06-.16-.06-.2,0-.08.04-.16.1-.22.06-.06.13-.09.21-.09h1.13c.11,0,.2.03.25.08s.1.12.13.18l1.86,4.58,1.92-4.58c.03-.08.07-.14.13-.19.06-.05.14-.08.25-.08h1.12c.07,0,.14.03.2.08.06.06.09.12.09.2,0,.06-.02.13-.06.22l-3.96,9.17c-.04.08-.08.14-.14.19-.06.05-.14.08-.25.08h-1.11Z"/>
        <path d="m642.63,612.07c-.68,0-1.28-.11-1.78-.34-.51-.23-.91-.55-1.19-.98-.29-.42-.43-.92-.43-1.49,0-.41.08-.78.25-1.1.17-.32.4-.61.69-.87.29-.26.62-.49.99-.71-.4-.42-.69-.8-.85-1.15-.17-.34-.25-.7-.25-1.05,0-.43.11-.82.34-1.18.22-.36.55-.65.97-.88.42-.22.93-.34,1.54-.34.57,0,1.06.11,1.46.32s.72.5.95.86c.22.36.34.75.34,1.18,0,.39-.09.74-.27,1.04-.18.3-.43.58-.74.82-.31.24-.65.47-1.04.69l2.02,2c.11-.19.24-.43.38-.73.14-.3.26-.68.36-1.13.03-.16.13-.24.29-.24h1.02c.08,0,.15.03.2.08.05.05.08.12.08.2,0,.2-.05.41-.12.64-.07.23-.16.48-.28.74-.12.26-.25.52-.4.77-.15.25-.31.49-.48.71l1.48,1.51c.08.07.11.14.11.21s-.02.14-.07.18c-.05.05-.11.07-.2.07h-1.34c-.09,0-.17-.01-.22-.04-.06-.03-.11-.06-.15-.1l-.77-.76c-.37.33-.8.58-1.27.76-.47.18-1.01.27-1.62.27Zm0-1.44c.33,0,.64-.06.95-.18.31-.12.59-.3.85-.55l-2.24-2.21c-.33.18-.61.39-.85.63-.24.24-.36.54-.36.88,0,.3.08.55.23.76.15.21.36.37.61.49.25.12.52.17.8.17Zm-.01-4.76c.25-.14.49-.28.7-.42.21-.14.38-.3.51-.47s.19-.37.19-.58c0-.32-.11-.57-.32-.76s-.49-.28-.81-.28c-.3,0-.56.09-.79.27-.23.18-.34.44-.34.76,0,.14.03.28.08.42.05.14.14.29.27.46.13.16.3.36.52.6Z"/>
        <path d="m653.21,611.93c-.09,0-.17-.03-.24-.1-.07-.07-.1-.14-.1-.24v-9.11c0-.1.03-.19.1-.25.06-.07.14-.1.24-.1h3.75c.73,0,1.36.11,1.9.34s.96.57,1.26,1.04.45,1.04.45,1.73-.15,1.28-.45,1.73-.72.79-1.26,1.01c-.54.22-1.18.34-1.9.34h-2.09v3.28c0,.09-.03.17-.09.24s-.14.1-.25.1h-1.33Zm1.64-5.17h2.04c.54,0,.96-.13,1.25-.38.29-.26.43-.64.43-1.14,0-.47-.14-.84-.41-1.13-.27-.28-.7-.43-1.27-.43h-2.04v3.08Z"/>
        <path d="m663.89,612.07c-.49,0-.92-.1-1.32-.29-.39-.19-.7-.45-.93-.77s-.34-.68-.34-1.08c0-.65.27-1.17.8-1.56.53-.39,1.23-.65,2.09-.78l1.92-.28v-.29c0-.39-.1-.7-.29-.91s-.53-.32-1.01-.32c-.34,0-.61.07-.82.2-.21.14-.37.32-.47.54-.08.12-.18.18-.32.18h-1.11c-.1,0-.18-.03-.23-.08-.05-.06-.08-.13-.08-.22,0-.15.07-.33.19-.55.12-.21.29-.42.53-.62.24-.2.55-.37.93-.51s.84-.21,1.39-.21c.59,0,1.08.07,1.49.22s.73.34.97.58.42.53.53.85c.11.33.17.67.17,1.04v4.4c0,.09-.03.17-.1.24-.07.07-.15.1-.24.1h-1.13c-.1,0-.18-.03-.25-.1s-.09-.14-.09-.24v-.55c-.12.17-.29.33-.49.49-.21.16-.46.29-.75.38-.29.1-.64.15-1.04.15Zm.48-1.33c.33,0,.62-.07.89-.21.27-.14.48-.36.63-.65.15-.29.23-.67.23-1.11v-.29l-1.4.22c-.55.08-.96.22-1.23.41s-.41.42-.41.69c0,.21.06.38.19.52s.29.25.48.32c.2.07.4.1.62.1Z"/>
        <path d="m670.11,611.93c-.09,0-.17-.03-.24-.1-.07-.07-.1-.14-.1-.24v-6.59c0-.1.03-.19.1-.25.06-.07.14-.1.24-.1h1.13c.09,0,.18.03.25.1.07.07.11.15.11.25v.57c.21-.3.49-.53.83-.69.34-.16.73-.24,1.18-.24h.57c.1,0,.18.03.25.1s.09.14.09.24v1.01c0,.09-.03.17-.09.24s-.14.1-.25.1h-1.09c-.45,0-.8.12-1.04.37-.25.25-.37.59-.37,1.04v3.85c0,.09-.03.17-.1.24-.07.07-.15.1-.25.1h-1.22Z"/>
        <path d="m678.9,611.93c-.56,0-1.03-.1-1.41-.29s-.67-.49-.85-.88c-.19-.39-.28-.87-.28-1.45v-3.18h-1.11c-.09,0-.17-.03-.24-.1-.07-.07-.1-.15-.1-.25v-.8c0-.09.03-.17.1-.24.06-.07.14-.1.24-.1h1.11v-2.32c0-.09.03-.17.09-.24s.14-.1.25-.1h1.13c.09,0,.17.03.24.1s.1.14.1.24v2.32h1.75c.09,0,.17.03.24.1s.1.14.1.24v.8c0,.1-.03.19-.1.25s-.14.1-.24.1h-1.75v3.04c0,.38.07.68.2.9.14.21.37.32.71.32h.97c.09,0,.17.03.24.1.07.07.1.15.1.24v.87c0,.09-.03.17-.1.24s-.14.1-.24.1h-1.13Z"/>
        <path d="m681.95,611.93c-.09,0-.17-.03-.24-.1-.07-.07-.1-.14-.1-.24v-6.61c0-.09.03-.17.1-.24.06-.07.14-.1.24-.1h1.15c.09,0,.17.03.24.1.06.07.1.14.1.24v.57c.24-.3.55-.55.93-.75.38-.2.85-.3,1.41-.3s1.06.13,1.48.38.74.62.97,1.08.34,1.03.34,1.68v3.93c0,.09-.03.17-.1.24s-.14.1-.24.1h-1.23c-.09,0-.17-.03-.24-.1s-.1-.14-.1-.24v-3.85c0-.54-.13-.97-.4-1.27s-.65-.46-1.16-.46-.87.15-1.16.46-.43.73-.43,1.27v3.85c0,.09-.03.17-.1.24-.07.07-.15.1-.24.1h-1.23Z"/>
        <path d="m693.49,612.07c-1.04,0-1.86-.3-2.46-.9s-.93-1.45-.98-2.55c0-.09-.01-.21-.01-.36s0-.26.01-.34c.04-.71.2-1.32.48-1.83.29-.51.68-.9,1.18-1.18s1.1-.41,1.78-.41c.76,0,1.39.16,1.9.47s.9.75,1.16,1.3c.26.56.39,1.2.39,1.93v.29c0,.09-.03.17-.1.24-.07.07-.15.1-.25.1h-4.65v.11c0,.33.07.63.19.9.12.28.29.5.52.67.23.17.5.25.82.25.26,0,.48-.04.66-.12.18-.08.32-.17.43-.27.11-.1.19-.19.24-.25.08-.11.15-.18.2-.2.05-.02.13-.04.23-.04h1.2c.09,0,.17.03.23.08s.09.13.08.21c0,.15-.09.33-.23.55s-.35.42-.62.63c-.27.21-.61.38-1.01.51-.41.14-.87.2-1.39.2Zm-1.54-4.41h3.09v-.04c0-.36-.06-.68-.18-.96-.12-.27-.3-.49-.53-.64-.23-.15-.51-.23-.84-.23s-.61.08-.84.23-.41.37-.52.64c-.12.28-.18.6-.18.96v.04Z"/>
        <path d="m698.77,611.93c-.09,0-.17-.03-.24-.1-.07-.07-.1-.14-.1-.24v-6.59c0-.1.03-.19.1-.25.06-.07.14-.1.24-.1h1.13c.09,0,.18.03.25.1.07.07.11.15.11.25v.57c.21-.3.49-.53.83-.69.34-.16.73-.24,1.18-.24h.57c.1,0,.18.03.25.1s.09.14.09.24v1.01c0,.09-.03.17-.09.24s-.14.1-.25.1h-1.09c-.45,0-.8.12-1.04.37-.25.25-.37.59-.37,1.04v3.85c0,.09-.03.17-.1.24-.07.07-.15.1-.25.1h-1.22Z"/>
        <path d="m707.03,612.07c-.56,0-1.04-.07-1.43-.2-.4-.13-.72-.29-.97-.49s-.44-.39-.56-.59c-.12-.2-.19-.36-.2-.49,0-.1.02-.18.09-.25.07-.06.15-.09.23-.09h1.11s.07,0,.1.01c.03,0,.07.04.11.08.12.1.25.21.38.32.13.11.3.21.48.29.19.08.42.12.7.12.36,0,.67-.07.92-.22.25-.14.37-.35.37-.62,0-.2-.05-.35-.16-.48-.11-.12-.31-.23-.59-.33-.29-.1-.7-.2-1.23-.31-.52-.12-.96-.28-1.3-.46-.34-.19-.6-.42-.77-.7s-.25-.61-.25-.98.11-.71.33-1.04c.22-.33.55-.6.98-.82.43-.21.97-.32,1.62-.32.5,0,.94.06,1.32.19.37.13.68.28.93.47s.44.38.57.57c.13.19.2.36.21.5,0,.1-.02.18-.08.25-.07.06-.14.09-.22.09h-1.04s-.09,0-.13-.03-.07-.04-.11-.07c-.1-.09-.21-.19-.34-.3-.12-.11-.27-.2-.44-.27-.17-.07-.4-.11-.68-.11-.36,0-.63.08-.81.23s-.28.35-.28.58c0,.16.04.3.13.41.09.12.27.23.54.33.27.1.68.21,1.23.32.62.11,1.12.28,1.49.5.37.22.63.47.78.76.15.28.23.6.23.94,0,.42-.12.8-.37,1.13-.25.34-.61.6-1.09.79-.48.19-1.08.29-1.79.29Z"/>
        <path d="m712.07,611.93c-.09,0-.17-.03-.24-.1s-.1-.14-.1-.24v-9.27c0-.09.03-.17.1-.24s.14-.1.24-.1h1.25c.1,0,.18.03.25.1s.09.14.09.24v3.19c.25-.3.56-.54.92-.73.36-.19.81-.28,1.34-.28.57,0,1.07.13,1.49.38s.75.62.99,1.08.35,1.03.35,1.68v3.93c0,.09-.03.17-.1.24-.06.07-.14.1-.24.1h-1.26c-.09,0-.17-.03-.24-.1s-.1-.14-.1-.24v-3.85c0-.54-.13-.97-.4-1.27s-.65-.46-1.16-.46-.88.15-1.17.46-.44.73-.44,1.27v3.85c0,.09-.03.17-.09.24s-.14.1-.25.1h-1.25Z"/>
        <path d="m720.8,603.45c-.09,0-.17-.03-.24-.1s-.1-.14-.1-.24v-1.01c0-.09.03-.17.1-.24.07-.06.14-.1.24-.1h1.27c.1,0,.19.03.25.1.06.07.1.15.1.24v1.01c0,.09-.03.17-.1.24-.07.07-.15.1-.25.1h-1.27Zm.06,8.48c-.09,0-.17-.03-.24-.1-.07-.07-.1-.14-.1-.24v-6.61c0-.09.03-.17.1-.24.06-.07.14-.1.24-.1h1.16c.1,0,.18.03.25.1s.09.14.09.24v6.61c0,.09-.03.17-.09.24s-.14.1-.25.1h-1.16Z"/>
        <path d="m724.85,614.59c-.09,0-.17-.03-.24-.1-.07-.06-.1-.14-.1-.24v-9.27c0-.09.03-.17.1-.24s.14-.1.24-.1h1.11c.1,0,.18.03.25.1s.09.14.09.24v.56c.22-.3.52-.55.88-.74.36-.2.82-.29,1.36-.29.49,0,.92.08,1.29.24.36.16.67.38.91.68.24.29.43.64.56,1.04s.21.84.22,1.33c0,.16.01.32.01.49s0,.34-.01.5c0,.47-.08.9-.21,1.29-.13.4-.32.74-.57,1.04s-.55.52-.92.69-.79.25-1.29.25-.93-.09-1.29-.27c-.35-.18-.64-.42-.87-.72v3.18c0,.09-.03.17-.09.24-.06.07-.14.1-.25.1h-1.19Zm3.16-4.02c.4,0,.71-.09.94-.26s.39-.4.49-.68.16-.59.18-.92c0-.28,0-.56,0-.84-.02-.34-.08-.64-.18-.92-.1-.28-.27-.51-.49-.68s-.54-.26-.94-.26-.69.09-.93.27c-.24.18-.41.4-.52.68-.11.28-.17.56-.19.85,0,.17-.01.35-.01.53s0,.37.01.55c0,.28.08.55.2.8s.3.47.53.64c.23.17.54.25.91.25Z"/>
      </g>
    </g>
    <g>
      <circle class="cls-2" cx="162.09" cy="647.77" r="11.34"/>
      <g>
        <path d="m188.27,654.3c-.09,0-.17-.03-.24-.1-.07-.07-.1-.14-.1-.24v-9.11c0-.1.03-.19.1-.25.06-.07.14-.1.24-.1h3.75c.73,0,1.36.11,1.9.34s.96.57,1.26,1.04.45,1.04.45,1.73-.15,1.28-.45,1.73-.72.79-1.26,1.01c-.54.22-1.18.34-1.9.34h-2.09v3.28c0,.09-.03.17-.09.24s-.14.1-.25.1h-1.33Zm1.64-5.17h2.04c.54,0,.96-.13,1.25-.38.29-.26.43-.64.43-1.14,0-.47-.14-.84-.41-1.13-.27-.28-.7-.43-1.27-.43h-2.04v3.08Z"/>
        <path d="m197.32,654.3c-.09,0-.17-.03-.24-.1-.07-.07-.1-.14-.1-.24v-6.59c0-.1.03-.19.1-.25.06-.07.14-.1.24-.1h1.13c.09,0,.18.03.25.1.07.07.11.15.11.25v.57c.21-.3.49-.53.83-.69.34-.16.73-.24,1.18-.24h.57c.1,0,.18.03.25.1s.09.14.09.24v1.01c0,.09-.03.17-.09.24s-.14.1-.25.1h-1.09c-.45,0-.8.12-1.04.37-.25.25-.37.59-.37,1.04v3.85c0,.09-.03.17-.1.24-.07.07-.15.1-.25.1h-1.22Z"/>
        <path d="m203.11,645.82c-.09,0-.17-.03-.24-.1s-.1-.14-.1-.24v-1.01c0-.09.03-.17.1-.24.07-.06.14-.1.24-.1h1.27c.1,0,.19.03.25.1.06.07.1.15.1.24v1.01c0,.09-.03.17-.1.24-.07.07-.15.1-.25.1h-1.27Zm.06,8.48c-.09,0-.17-.03-.24-.1-.07-.07-.1-.14-.1-.24v-6.61c0-.09.03-.17.1-.24.06-.07.14-.1.24-.1h1.16c.1,0,.18.03.25.1s.09.14.09.24v6.61c0,.09-.03.17-.09.24s-.14.1-.25.1h-1.16Z"/>
        <path d="m209.78,654.44c-.75,0-1.37-.13-1.88-.39-.51-.26-.9-.63-1.16-1.11-.27-.48-.42-1.03-.46-1.67,0-.17-.01-.37-.01-.62s0-.45.01-.62c.04-.64.19-1.2.47-1.67.28-.47.67-.84,1.18-1.1.51-.26,1.13-.39,1.85-.39s1.35.13,1.86.39c.51.26.9.63,1.18,1.1.28.47.43,1.03.47,1.67,0,.17.01.37.01.62s0,.45-.01.62c-.04.63-.19,1.19-.45,1.67-.27.48-.65.84-1.16,1.11-.51.26-1.14.39-1.88.39Zm0-1.39c.5,0,.88-.16,1.15-.47s.42-.77.45-1.38c0-.14.01-.32.01-.55s0-.41-.01-.55c-.03-.61-.18-1.07-.45-1.38-.27-.31-.65-.47-1.15-.47s-.88.16-1.15.47c-.27.31-.42.77-.45,1.38,0,.14-.01.32-.01.55s0,.41.01.55c.03.61.18,1.07.45,1.38s.65.47,1.15.47Z"/>
        <path d="m215.19,654.3c-.09,0-.17-.03-.24-.1-.07-.07-.1-.14-.1-.24v-6.59c0-.1.03-.19.1-.25.06-.07.14-.1.24-.1h1.13c.09,0,.18.03.25.1.07.07.11.15.11.25v.57c.21-.3.49-.53.83-.69.34-.16.73-.24,1.18-.24h.57c.1,0,.18.03.25.1s.09.14.09.24v1.01c0,.09-.03.17-.09.24s-.14.1-.25.1h-1.09c-.45,0-.8.12-1.04.37-.25.25-.37.59-.37,1.04v3.85c0,.09-.03.17-.1.24-.07.07-.15.1-.25.1h-1.22Z"/>
        <path d="m220.97,645.82c-.09,0-.17-.03-.24-.1s-.1-.14-.1-.24v-1.01c0-.09.03-.17.1-.24.07-.06.14-.1.24-.1h1.27c.1,0,.19.03.25.1.06.07.1.15.1.24v1.01c0,.09-.03.17-.1.24-.07.07-.15.1-.25.1h-1.27Zm.06,8.48c-.09,0-.17-.03-.24-.1-.07-.07-.1-.14-.1-.24v-6.61c0-.09.03-.17.1-.24.06-.07.14-.1.24-.1h1.16c.1,0,.18.03.25.1s.09.14.09.24v6.61c0,.09-.03.17-.09.24s-.14.1-.25.1h-1.16Z"/>
        <path d="m227.68,654.3c-.56,0-1.03-.1-1.41-.29s-.67-.49-.85-.88c-.19-.39-.28-.87-.28-1.45v-3.18h-1.11c-.09,0-.17-.03-.24-.1-.07-.07-.1-.15-.1-.25v-.8c0-.09.03-.17.1-.24.06-.07.14-.1.24-.1h1.11v-2.32c0-.09.03-.17.09-.24s.14-.1.25-.1h1.13c.09,0,.17.03.24.1s.1.14.1.24v2.32h1.75c.09,0,.17.03.24.1s.1.14.1.24v.8c0,.1-.03.19-.1.25s-.14.1-.24.1h-1.75v3.04c0,.38.07.68.2.9.14.21.37.32.71.32h.97c.09,0,.17.03.24.1.07.07.1.15.1.24v.87c0,.09-.03.17-.1.24s-.14.1-.24.1h-1.13Z"/>
        <path d="m231.71,656.96c-.08,0-.14-.03-.2-.08-.06-.06-.08-.12-.08-.2,0-.04,0-.07,0-.1,0-.03.02-.07.05-.12l1.09-2.59-2.69-6.34c-.04-.09-.06-.16-.06-.2,0-.08.04-.16.1-.22.06-.06.13-.09.21-.09h1.13c.11,0,.2.03.25.08s.1.12.13.18l1.86,4.58,1.92-4.58c.03-.08.07-.14.13-.19.06-.05.14-.08.25-.08h1.12c.07,0,.14.03.2.08.06.06.09.12.09.2,0,.06-.02.13-.06.22l-3.96,9.17c-.04.08-.08.14-.14.19-.06.05-.14.08-.25.08h-1.11Z"/>
        <path d="m244.7,654.44c-.65,0-1.22-.08-1.69-.24-.48-.16-.87-.37-1.18-.62-.31-.26-.55-.54-.71-.84-.16-.3-.24-.6-.25-.9,0-.08.03-.15.09-.2.06-.05.13-.08.22-.08h1.26c.09,0,.17.02.24.06.07.04.12.11.17.22.08.25.22.45.41.6.19.15.41.25.67.32s.52.09.8.09c.56,0,1.01-.13,1.34-.4.33-.27.5-.65.5-1.14s-.15-.85-.46-1.07c-.31-.22-.74-.33-1.29-.33h-1.44c-.1,0-.19-.03-.25-.09-.07-.06-.1-.14-.1-.25v-.59c0-.09.02-.17.06-.25.04-.07.09-.13.13-.17l2.51-2.45h-4c-.1,0-.18-.03-.25-.1-.06-.07-.09-.14-.09-.24v-.92c0-.1.03-.19.09-.25.06-.07.14-.1.25-.1h6.01c.1,0,.19.03.25.1s.1.15.1.25v.84c0,.08-.02.16-.06.22-.04.07-.08.12-.13.17l-2.42,2.49h.17c.57.06,1.08.19,1.52.4s.79.52,1.04.92.37.91.37,1.51-.17,1.18-.5,1.63c-.33.45-.79.8-1.37,1.04-.58.24-1.24.36-1.99.36Z"/>
        <path d="m253.59,650.9c-.1,0-.18-.03-.25-.1s-.09-.14-.09-.24v-.92c0-.09.03-.17.09-.24.06-.06.14-.1.25-.1h4.3c.09,0,.17.03.24.1.07.07.1.15.1.24v.92c0,.09-.03.17-.1.24s-.14.1-.24.1h-4.3Z"/>
        <path d="m267.18,654.44c-.87,0-1.6-.15-2.21-.46-.6-.3-1.06-.74-1.38-1.3-.32-.56-.5-1.24-.53-2.04,0-.38-.01-.79-.01-1.23s0-.86.01-1.26c.04-.78.22-1.46.54-2.03s.78-1.01,1.39-1.31c.6-.3,1.33-.46,2.19-.46.63,0,1.2.08,1.71.25.5.17.93.4,1.29.69s.63.64.83,1.03c.2.39.3.82.31,1.27,0,.08-.02.15-.08.21-.06.06-.13.08-.22.08h-1.33c-.1,0-.19-.03-.25-.08-.07-.05-.11-.14-.14-.26-.15-.62-.41-1.04-.77-1.26-.36-.22-.82-.34-1.36-.34-.63,0-1.12.17-1.5.53-.37.35-.57.93-.6,1.73-.03.77-.03,1.55,0,2.35.03.8.23,1.38.6,1.73.37.35.87.53,1.5.53.54,0,1-.11,1.36-.34.37-.23.62-.65.76-1.25.03-.13.07-.22.14-.27s.15-.07.25-.07h1.33c.08,0,.16.03.22.08.06.06.09.13.08.21,0,.46-.11.88-.31,1.27-.2.39-.47.74-.83,1.03s-.78.52-1.29.69-1.07.25-1.71.25Z"/>
        <path d="m276.03,654.44c-.75,0-1.37-.13-1.88-.39-.51-.26-.9-.63-1.16-1.11-.27-.48-.42-1.03-.46-1.67,0-.17-.01-.37-.01-.62s0-.45.01-.62c.04-.64.19-1.2.47-1.67.28-.47.67-.84,1.18-1.1.51-.26,1.13-.39,1.85-.39s1.35.13,1.86.39c.51.26.9.63,1.18,1.1.28.47.43,1.03.47,1.67,0,.17.01.37.01.62s0,.45-.01.62c-.04.63-.19,1.19-.45,1.67-.27.48-.65.84-1.16,1.11-.51.26-1.14.39-1.88.39Zm0-1.39c.5,0,.88-.16,1.15-.47s.42-.77.45-1.38c0-.14.01-.32.01-.55s0-.41-.01-.55c-.03-.61-.18-1.07-.45-1.38-.27-.31-.65-.47-1.15-.47s-.88.16-1.15.47c-.27.31-.42.77-.45,1.38,0,.14-.01.32-.01.55s0,.41.01.55c.03.61.18,1.07.45,1.38s.65.47,1.15.47Z"/>
        <path d="m281.44,654.3c-.09,0-.17-.03-.24-.1-.07-.07-.1-.14-.1-.24v-6.61c0-.09.03-.17.1-.24.06-.07.14-.1.24-.1h1.09c.09,0,.17.03.24.1s.1.14.1.24v.48c.2-.26.46-.48.79-.67.33-.18.73-.28,1.18-.29,1.06-.02,1.81.4,2.23,1.25.21-.37.53-.67.93-.9.41-.23.86-.34,1.35-.34s.93.11,1.32.34c.4.22.71.56.94,1.01.23.45.34,1.02.34,1.72v4.02c0,.09-.03.17-.1.24s-.14.1-.24.1h-1.15c-.09,0-.17-.03-.24-.1s-.1-.14-.1-.24v-3.91c0-.42-.06-.75-.18-1-.12-.25-.29-.42-.49-.52-.21-.1-.43-.15-.69-.15-.21,0-.41.05-.62.15-.21.1-.37.28-.5.52-.13.25-.2.58-.2,1v3.91c0,.09-.03.17-.1.24s-.14.1-.24.1h-1.15c-.09,0-.17-.03-.24-.1s-.1-.14-.1-.24v-3.91c0-.42-.07-.75-.2-1-.13-.25-.3-.42-.5-.52s-.42-.15-.66-.15c-.21,0-.42.05-.63.16s-.37.28-.5.52c-.13.24-.2.57-.2.99v3.91c0,.09-.03.17-.1.24s-.14.1-.24.1h-1.18Z"/>
        <path d="m294.06,654.3c-.09,0-.17-.03-.24-.1-.07-.07-.1-.14-.1-.24v-6.61c0-.09.03-.17.1-.24.06-.07.14-.1.24-.1h1.09c.09,0,.17.03.24.1s.1.14.1.24v.48c.2-.26.46-.48.79-.67.33-.18.73-.28,1.18-.29,1.06-.02,1.81.4,2.23,1.25.21-.37.53-.67.93-.9.41-.23.86-.34,1.35-.34s.93.11,1.32.34c.4.22.71.56.94,1.01.23.45.34,1.02.34,1.72v4.02c0,.09-.03.17-.1.24s-.14.1-.24.1h-1.15c-.09,0-.17-.03-.24-.1s-.1-.14-.1-.24v-3.91c0-.42-.06-.75-.18-1-.12-.25-.29-.42-.49-.52-.21-.1-.43-.15-.69-.15-.21,0-.41.05-.62.15-.21.1-.37.28-.5.52-.13.25-.2.58-.2,1v3.91c0,.09-.03.17-.1.24s-.14.1-.24.1h-1.15c-.09,0-.17-.03-.24-.1s-.1-.14-.1-.24v-3.91c0-.42-.07-.75-.2-1-.13-.25-.3-.42-.5-.52s-.42-.15-.66-.15c-.21,0-.42.05-.63.16s-.37.28-.5.52c-.13.24-.2.57-.2.99v3.91c0,.09-.03.17-.1.24s-.14.1-.24.1h-1.18Z"/>
        <path d="m309.06,654.44c-.57,0-1.06-.13-1.48-.38-.42-.26-.74-.62-.96-1.09-.22-.47-.34-1.03-.34-1.67v-3.93c0-.09.03-.17.1-.24s.14-.1.24-.1h1.23c.1,0,.18.03.25.1s.09.14.09.24v3.85c0,1.16.51,1.74,1.53,1.74.49,0,.87-.15,1.16-.46.28-.31.43-.73.43-1.27v-3.85c0-.09.03-.17.1-.24s.14-.1.24-.1h1.23c.09,0,.17.03.24.1s.1.14.1.24v6.61c0,.09-.03.17-.1.24s-.14.1-.24.1h-1.13c-.1,0-.18-.03-.25-.1s-.09-.14-.09-.24v-.57c-.25.33-.56.58-.94.77-.37.19-.84.28-1.4.28Z"/>
        <path d="m315.39,654.3c-.09,0-.17-.03-.24-.1-.07-.07-.1-.14-.1-.24v-6.61c0-.09.03-.17.1-.24.06-.07.14-.1.24-.1h1.15c.09,0,.17.03.24.1.06.07.1.14.1.24v.57c.24-.3.55-.55.93-.75.38-.2.85-.3,1.41-.3s1.06.13,1.48.38.74.62.97,1.08.34,1.03.34,1.68v3.93c0,.09-.03.17-.1.24s-.14.1-.24.1h-1.23c-.09,0-.17-.03-.24-.1s-.1-.14-.1-.24v-3.85c0-.54-.13-.97-.4-1.27s-.65-.46-1.16-.46-.87.15-1.16.46-.43.73-.43,1.27v3.85c0,.09-.03.17-.1.24-.07.07-.15.1-.24.1h-1.23Z"/>
        <path d="m324.07,645.82c-.09,0-.17-.03-.24-.1s-.1-.14-.1-.24v-1.01c0-.09.03-.17.1-.24.07-.06.14-.1.24-.1h1.27c.1,0,.19.03.25.1.06.07.1.15.1.24v1.01c0,.09-.03.17-.1.24-.07.07-.15.1-.25.1h-1.27Zm.06,8.48c-.09,0-.17-.03-.24-.1-.07-.07-.1-.14-.1-.24v-6.61c0-.09.03-.17.1-.24.06-.07.14-.1.24-.1h1.16c.1,0,.18.03.25.1s.09.14.09.24v6.61c0,.09-.03.17-.09.24s-.14.1-.25.1h-1.16Z"/>
        <path d="m330.77,654.3c-.56,0-1.03-.1-1.41-.29s-.67-.49-.85-.88c-.19-.39-.28-.87-.28-1.45v-3.18h-1.11c-.09,0-.17-.03-.24-.1-.07-.07-.1-.15-.1-.25v-.8c0-.09.03-.17.1-.24.06-.07.14-.1.24-.1h1.11v-2.32c0-.09.03-.17.09-.24s.14-.1.25-.1h1.13c.09,0,.17.03.24.1s.1.14.1.24v2.32h1.75c.09,0,.17.03.24.1s.1.14.1.24v.8c0,.1-.03.19-.1.25s-.14.1-.24.1h-1.75v3.04c0,.38.07.68.2.9.14.21.37.32.71.32h.97c.09,0,.17.03.24.1.07.07.1.15.1.24v.87c0,.09-.03.17-.1.24s-.14.1-.24.1h-1.13Z"/>
        <path d="m334.8,656.96c-.08,0-.14-.03-.2-.08-.06-.06-.08-.12-.08-.2,0-.04,0-.07,0-.1,0-.03.02-.07.05-.12l1.09-2.59-2.69-6.34c-.04-.09-.06-.16-.06-.2,0-.08.04-.16.1-.22.06-.06.13-.09.21-.09h1.13c.11,0,.2.03.25.08s.1.12.13.18l1.86,4.58,1.92-4.58c.03-.08.07-.14.13-.19.06-.05.14-.08.25-.08h1.12c.07,0,.14.03.2.08.06.06.09.12.09.2,0,.06-.02.13-.06.22l-3.96,9.17c-.04.08-.08.14-.14.19-.06.05-.14.08-.25.08h-1.11Z"/>
        <path d="m347.54,654.44c-.68,0-1.28-.11-1.78-.34-.51-.23-.91-.55-1.19-.98-.29-.42-.43-.92-.43-1.49,0-.41.08-.78.25-1.1.17-.32.4-.61.69-.87.29-.26.62-.49.99-.71-.4-.42-.69-.8-.85-1.15-.17-.34-.25-.7-.25-1.05,0-.43.11-.82.34-1.18.22-.36.55-.65.97-.88.42-.22.93-.34,1.54-.34.57,0,1.06.11,1.46.32s.72.5.95.86c.22.36.34.75.34,1.18,0,.39-.09.74-.27,1.04-.18.3-.43.58-.74.82-.31.24-.65.47-1.04.69l2.02,2c.11-.19.24-.43.38-.73.14-.3.26-.68.36-1.13.03-.16.13-.24.29-.24h1.02c.08,0,.15.03.2.08.05.05.08.12.08.2,0,.2-.05.41-.12.64-.07.23-.16.48-.28.74-.12.26-.25.52-.4.77-.15.25-.31.49-.48.71l1.48,1.51c.08.07.11.14.11.21s-.02.14-.07.18c-.05.05-.11.07-.2.07h-1.34c-.09,0-.17-.01-.22-.04-.06-.03-.11-.06-.15-.1l-.77-.76c-.37.33-.8.58-1.27.76-.47.18-1.01.27-1.62.27Zm0-1.44c.33,0,.64-.06.95-.18.31-.12.59-.3.85-.55l-2.24-2.21c-.33.18-.61.39-.85.63-.24.24-.36.54-.36.88,0,.3.08.55.23.76.15.21.36.37.61.49.25.12.52.17.8.17Zm-.01-4.76c.25-.14.49-.28.7-.42.21-.14.38-.3.51-.47s.19-.37.19-.58c0-.32-.11-.57-.32-.76s-.49-.28-.81-.28c-.3,0-.56.09-.79.27-.23.18-.34.44-.34.76,0,.14.03.28.08.42.05.14.14.29.27.46.13.16.3.36.52.6Z"/>
        <path d="m361.57,654.44c-.87,0-1.6-.15-2.21-.46-.6-.3-1.06-.74-1.38-1.3-.32-.56-.5-1.24-.53-2.04,0-.38-.01-.79-.01-1.23s0-.86.01-1.26c.04-.78.22-1.46.54-2.03s.78-1.01,1.39-1.31c.6-.3,1.33-.46,2.19-.46.63,0,1.2.08,1.71.25.5.17.93.4,1.29.69s.63.64.83,1.03c.2.39.3.82.31,1.27,0,.08-.02.15-.08.21-.06.06-.13.08-.22.08h-1.33c-.1,0-.19-.03-.25-.08-.07-.05-.11-.14-.14-.26-.15-.62-.41-1.04-.77-1.26-.36-.22-.82-.34-1.36-.34-.63,0-1.12.17-1.5.53-.37.35-.57.93-.6,1.73-.03.77-.03,1.55,0,2.35.03.8.23,1.38.6,1.73.37.35.87.53,1.5.53.54,0,1-.11,1.36-.34.37-.23.62-.65.76-1.25.03-.13.07-.22.14-.27s.15-.07.25-.07h1.33c.08,0,.16.03.22.08.06.06.09.13.08.21,0,.46-.11.88-.31,1.27-.2.39-.47.74-.83,1.03s-.78.52-1.29.69-1.07.25-1.71.25Z"/>
        <path d="m369.31,654.44c-.49,0-.92-.1-1.32-.29-.39-.19-.7-.45-.93-.77s-.34-.68-.34-1.08c0-.65.27-1.17.8-1.56.53-.39,1.23-.65,2.09-.78l1.92-.28v-.29c0-.39-.1-.7-.29-.91s-.53-.32-1.01-.32c-.34,0-.61.07-.82.2-.21.14-.37.32-.47.54-.08.12-.18.18-.32.18h-1.11c-.1,0-.18-.03-.23-.08-.05-.06-.08-.13-.08-.22,0-.15.07-.33.19-.55.12-.21.29-.42.53-.62.24-.2.55-.37.93-.51s.84-.21,1.39-.21c.59,0,1.08.07,1.49.22s.73.34.97.58.42.53.53.85c.11.33.17.67.17,1.04v4.4c0,.09-.03.17-.1.24-.07.07-.15.1-.24.1h-1.13c-.1,0-.18-.03-.25-.1s-.09-.14-.09-.24v-.55c-.12.17-.29.33-.49.49-.21.16-.46.29-.75.38-.29.1-.64.15-1.04.15Zm.48-1.33c.33,0,.62-.07.89-.21.27-.14.48-.36.63-.65.15-.29.23-.67.23-1.11v-.29l-1.4.22c-.55.08-.96.22-1.23.41s-.41.42-.41.69c0,.21.06.38.19.52s.29.25.48.32c.2.07.4.1.62.1Z"/>
        <path d="m375.54,656.96c-.09,0-.17-.03-.24-.1-.07-.06-.1-.14-.1-.24v-9.27c0-.09.03-.17.1-.24s.14-.1.24-.1h1.11c.1,0,.18.03.25.1s.09.14.09.24v.56c.22-.3.52-.55.88-.74.36-.2.82-.29,1.36-.29.49,0,.92.08,1.29.24.36.16.67.38.91.68.24.29.43.64.56,1.04s.21.84.22,1.33c0,.16.01.32.01.49s0,.34-.01.5c0,.47-.08.9-.21,1.29-.13.4-.32.74-.57,1.04s-.55.52-.92.69-.79.25-1.29.25-.93-.09-1.29-.27c-.35-.18-.64-.42-.87-.72v3.18c0,.09-.03.17-.09.24-.06.07-.14.1-.25.1h-1.19Zm3.16-4.02c.4,0,.71-.09.94-.26s.39-.4.49-.68.16-.59.18-.92c0-.28,0-.56,0-.84-.02-.34-.08-.64-.18-.92-.1-.28-.27-.51-.49-.68s-.54-.26-.94-.26-.69.09-.93.27c-.24.18-.41.4-.52.68-.11.28-.17.56-.19.85,0,.17-.01.35-.01.53s0,.37.01.55c0,.28.08.55.2.8s.3.47.53.64c.23.17.54.25.91.25Z"/>
        <path d="m385.9,654.44c-.49,0-.92-.1-1.32-.29-.39-.19-.7-.45-.93-.77s-.34-.68-.34-1.08c0-.65.27-1.17.8-1.56.53-.39,1.23-.65,2.09-.78l1.92-.28v-.29c0-.39-.1-.7-.29-.91s-.53-.32-1.01-.32c-.34,0-.61.07-.82.2-.21.14-.37.32-.47.54-.08.12-.18.18-.32.18h-1.11c-.1,0-.18-.03-.23-.08-.05-.06-.08-.13-.08-.22,0-.15.07-.33.19-.55.12-.21.29-.42.53-.62.24-.2.55-.37.93-.51s.84-.21,1.39-.21c.59,0,1.08.07,1.49.22s.73.34.97.58.42.53.53.85c.11.33.17.67.17,1.04v4.4c0,.09-.03.17-.1.24-.07.07-.15.1-.24.1h-1.13c-.1,0-.18-.03-.25-.1s-.09-.14-.09-.24v-.55c-.12.17-.29.33-.49.49-.21.16-.46.29-.75.38-.29.1-.64.15-1.04.15Zm.48-1.33c.33,0,.62-.07.89-.21.27-.14.48-.36.63-.65.15-.29.23-.67.23-1.11v-.29l-1.4.22c-.55.08-.96.22-1.23.41s-.41.42-.41.69c0,.21.06.38.19.52s.29.25.48.32c.2.07.4.1.62.1Z"/>
        <path d="m394.93,654.44c-.67,0-1.26-.13-1.77-.38s-.91-.62-1.19-1.1c-.29-.48-.44-1.06-.47-1.74,0-.14-.01-.32-.01-.55s0-.42.01-.57c.03-.68.18-1.26.47-1.74.28-.48.68-.85,1.19-1.1s1.1-.38,1.77-.38c.6,0,1.11.08,1.53.25s.77.37,1.04.63.47.52.61.8c.13.28.21.53.22.75,0,.1-.02.18-.09.25s-.15.09-.25.09h-1.23c-.09,0-.17-.02-.22-.07-.05-.05-.1-.12-.15-.21-.14-.37-.32-.64-.55-.79-.23-.15-.52-.23-.88-.23-.47,0-.84.15-1.11.44-.28.29-.42.76-.44,1.39-.02.35-.02.68,0,.98.02.64.17,1.11.44,1.4s.65.43,1.11.43c.36,0,.66-.08.88-.23.22-.15.41-.42.55-.79.05-.09.1-.16.15-.21.05-.05.12-.07.22-.07h1.23c.09,0,.17.03.25.09.07.06.1.14.09.25,0,.17-.05.36-.13.57s-.21.42-.38.64c-.17.22-.39.42-.65.6-.26.18-.58.33-.94.44-.37.11-.8.17-1.28.17Z"/>
        <path d="m400.06,645.82c-.09,0-.17-.03-.24-.1s-.1-.14-.1-.24v-1.01c0-.09.03-.17.1-.24.07-.06.14-.1.24-.1h1.27c.1,0,.19.03.25.1.06.07.1.15.1.24v1.01c0,.09-.03.17-.1.24-.07.07-.15.1-.25.1h-1.27Zm.06,8.48c-.09,0-.17-.03-.24-.1-.07-.07-.1-.14-.1-.24v-6.61c0-.09.03-.17.1-.24.06-.07.14-.1.24-.1h1.16c.1,0,.18.03.25.1s.09.14.09.24v6.61c0,.09-.03.17-.09.24s-.14.1-.25.1h-1.16Z"/>
        <path d="m406.76,654.3c-.56,0-1.03-.1-1.41-.29s-.67-.49-.85-.88c-.19-.39-.28-.87-.28-1.45v-3.18h-1.11c-.09,0-.17-.03-.24-.1-.07-.07-.1-.15-.1-.25v-.8c0-.09.03-.17.1-.24.06-.07.14-.1.24-.1h1.11v-2.32c0-.09.03-.17.09-.24s.14-.1.25-.1h1.13c.09,0,.17.03.24.1s.1.14.1.24v2.32h1.75c.09,0,.17.03.24.1s.1.14.1.24v.8c0,.1-.03.19-.1.25s-.14.1-.24.1h-1.75v3.04c0,.38.07.68.2.9.14.21.37.32.71.32h.97c.09,0,.17.03.24.1.07.07.1.15.1.24v.87c0,.09-.03.17-.1.24s-.14.1-.24.1h-1.13Z"/>
        <path d="m410.8,656.96c-.08,0-.14-.03-.2-.08-.06-.06-.08-.12-.08-.2,0-.04,0-.07,0-.1,0-.03.02-.07.05-.12l1.09-2.59-2.69-6.34c-.04-.09-.06-.16-.06-.2,0-.08.04-.16.1-.22.06-.06.13-.09.21-.09h1.13c.11,0,.2.03.25.08s.1.12.13.18l1.86,4.58,1.92-4.58c.03-.08.07-.14.13-.19.06-.05.14-.08.25-.08h1.12c.07,0,.14.03.2.08.06.06.09.12.09.2,0,.06-.02.13-.06.22l-3.96,9.17c-.04.08-.08.14-.14.19-.06.05-.14.08-.25.08h-1.11Z"/>
      </g>
      <circle class="cls-7" cx="494.88" cy="647.77" r="11.34"/>
      <g>
        <path d="m520.83,654.3c-.09,0-.17-.03-.24-.1-.07-.07-.1-.14-.1-.24v-9.11c0-.1.03-.19.1-.25.06-.07.14-.1.24-.1h3.75c.73,0,1.36.11,1.9.34s.96.57,1.26,1.04.45,1.04.45,1.73-.15,1.28-.45,1.73-.72.79-1.26,1.01c-.54.22-1.18.34-1.9.34h-2.09v3.28c0,.09-.03.17-.09.24s-.14.1-.25.1h-1.33Zm1.64-5.17h2.04c.54,0,.96-.13,1.25-.38.29-.26.43-.64.43-1.14,0-.47-.14-.84-.41-1.13-.27-.28-.7-.43-1.27-.43h-2.04v3.08Z"/>
        <path d="m529.89,654.3c-.09,0-.17-.03-.24-.1-.07-.07-.1-.14-.1-.24v-6.59c0-.1.03-.19.1-.25.06-.07.14-.1.24-.1h1.13c.09,0,.18.03.25.1.07.07.11.15.11.25v.57c.21-.3.49-.53.83-.69.34-.16.73-.24,1.18-.24h.57c.1,0,.18.03.25.1s.09.14.09.24v1.01c0,.09-.03.17-.09.24s-.14.1-.25.1h-1.09c-.45,0-.8.12-1.04.37-.25.25-.37.59-.37,1.04v3.85c0,.09-.03.17-.1.24-.07.07-.15.1-.25.1h-1.22Z"/>
        <path d="m535.67,645.82c-.09,0-.17-.03-.24-.1s-.1-.14-.1-.24v-1.01c0-.09.03-.17.1-.24.07-.06.14-.1.24-.1h1.27c.1,0,.19.03.25.1.06.07.1.15.1.24v1.01c0,.09-.03.17-.1.24-.07.07-.15.1-.25.1h-1.27Zm.06,8.48c-.09,0-.17-.03-.24-.1-.07-.07-.1-.14-.1-.24v-6.61c0-.09.03-.17.1-.24.06-.07.14-.1.24-.1h1.16c.1,0,.18.03.25.1s.09.14.09.24v6.61c0,.09-.03.17-.09.24s-.14.1-.25.1h-1.16Z"/>
        <path d="m542.35,654.44c-.75,0-1.37-.13-1.88-.39-.51-.26-.9-.63-1.16-1.11-.27-.48-.42-1.03-.46-1.67,0-.17-.01-.37-.01-.62s0-.45.01-.62c.04-.64.19-1.2.47-1.67.28-.47.67-.84,1.18-1.1.51-.26,1.13-.39,1.85-.39s1.35.13,1.86.39c.51.26.9.63,1.18,1.1.28.47.43,1.03.47,1.67,0,.17.01.37.01.62s0,.45-.01.62c-.04.63-.19,1.19-.45,1.67-.27.48-.65.84-1.16,1.11-.51.26-1.14.39-1.88.39Zm0-1.39c.5,0,.88-.16,1.15-.47s.42-.77.45-1.38c0-.14.01-.32.01-.55s0-.41-.01-.55c-.03-.61-.18-1.07-.45-1.38-.27-.31-.65-.47-1.15-.47s-.88.16-1.15.47c-.27.31-.42.77-.45,1.38,0,.14-.01.32-.01.55s0,.41.01.55c.03.61.18,1.07.45,1.38s.65.47,1.15.47Z"/>
        <path d="m547.75,654.3c-.09,0-.17-.03-.24-.1-.07-.07-.1-.14-.1-.24v-6.59c0-.1.03-.19.1-.25.06-.07.14-.1.24-.1h1.13c.09,0,.18.03.25.1.07.07.11.15.11.25v.57c.21-.3.49-.53.83-.69.34-.16.73-.24,1.18-.24h.57c.1,0,.18.03.25.1s.09.14.09.24v1.01c0,.09-.03.17-.09.24s-.14.1-.25.1h-1.09c-.45,0-.8.12-1.04.37-.25.25-.37.59-.37,1.04v3.85c0,.09-.03.17-.1.24-.07.07-.15.1-.25.1h-1.22Z"/>
        <path d="m553.53,645.82c-.09,0-.17-.03-.24-.1s-.1-.14-.1-.24v-1.01c0-.09.03-.17.1-.24.07-.06.14-.1.24-.1h1.27c.1,0,.19.03.25.1.06.07.1.15.1.24v1.01c0,.09-.03.17-.1.24-.07.07-.15.1-.25.1h-1.27Zm.06,8.48c-.09,0-.17-.03-.24-.1-.07-.07-.1-.14-.1-.24v-6.61c0-.09.03-.17.1-.24.06-.07.14-.1.24-.1h1.16c.1,0,.18.03.25.1s.09.14.09.24v6.61c0,.09-.03.17-.09.24s-.14.1-.25.1h-1.16Z"/>
        <path d="m560.24,654.3c-.56,0-1.03-.1-1.41-.29s-.67-.49-.85-.88c-.19-.39-.28-.87-.28-1.45v-3.18h-1.11c-.09,0-.17-.03-.24-.1-.07-.07-.1-.15-.1-.25v-.8c0-.09.03-.17.1-.24.06-.07.14-.1.24-.1h1.11v-2.32c0-.09.03-.17.09-.24s.14-.1.25-.1h1.13c.09,0,.17.03.24.1s.1.14.1.24v2.32h1.75c.09,0,.17.03.24.1s.1.14.1.24v.8c0,.1-.03.19-.1.25s-.14.1-.24.1h-1.75v3.04c0,.38.07.68.2.9.14.21.37.32.71.32h.97c.09,0,.17.03.24.1.07.07.1.15.1.24v.87c0,.09-.03.17-.1.24s-.14.1-.24.1h-1.13Z"/>
        <path d="m564.27,656.96c-.08,0-.14-.03-.2-.08-.06-.06-.08-.12-.08-.2,0-.04,0-.07,0-.1,0-.03.02-.07.05-.12l1.09-2.59-2.69-6.34c-.04-.09-.06-.16-.06-.2,0-.08.04-.16.1-.22.06-.06.13-.09.21-.09h1.13c.11,0,.2.03.25.08s.1.12.13.18l1.86,4.58,1.92-4.58c.03-.08.07-.14.13-.19.06-.05.14-.08.25-.08h1.12c.07,0,.14.03.2.08.06.06.09.12.09.2,0,.06-.02.13-.06.22l-3.96,9.17c-.04.08-.08.14-.14.19-.06.05-.14.08-.25.08h-1.11Z"/>
        <path d="m578.44,654.3c-.09,0-.17-.03-.24-.1s-.1-.14-.1-.24v-1.79h-4.44c-.1,0-.18-.03-.25-.1s-.09-.14-.09-.24v-.95c0-.06.01-.12.04-.2s.06-.15.12-.22l4.13-5.73c.12-.16.29-.24.52-.24h1.53c.09,0,.17.03.24.1.06.07.1.14.1.24v5.68h1.25c.11,0,.2.03.26.09.06.06.09.14.09.25v.98c0,.09-.03.17-.1.24s-.14.1-.24.1h-1.26v1.79c0,.09-.03.17-.1.24-.07.07-.15.1-.24.1h-1.22Zm-3.16-3.72h2.87v-4.05l-2.87,4.05Z"/>
        <path d="m586.46,650.9c-.1,0-.18-.03-.25-.1s-.09-.14-.09-.24v-.92c0-.09.03-.17.09-.24.06-.06.14-.1.25-.1h4.3c.09,0,.17.03.24.1.07.07.1.15.1.24v.92c0,.09-.03.17-.1.24s-.14.1-.24.1h-4.3Z"/>
        <path d="m596.61,654.3c-.09,0-.17-.03-.24-.1-.07-.07-.1-.14-.1-.24v-9.13c0-.09.03-.17.1-.24.06-.07.14-.1.24-.1h1.32c.1,0,.18.03.25.1.06.07.09.14.09.24v9.13c0,.09-.03.17-.09.24-.06.07-.14.1-.25.1h-1.32Z"/>
        <path d="m600.63,654.3c-.09,0-.17-.03-.24-.1-.07-.07-.1-.14-.1-.24v-6.61c0-.09.03-.17.1-.24.06-.07.14-.1.24-.1h1.15c.09,0,.17.03.24.1.06.07.1.14.1.24v.57c.24-.3.55-.55.93-.75.38-.2.85-.3,1.41-.3s1.06.13,1.48.38.74.62.97,1.08.34,1.03.34,1.68v3.93c0,.09-.03.17-.1.24s-.14.1-.24.1h-1.23c-.09,0-.17-.03-.24-.1s-.1-.14-.1-.24v-3.85c0-.54-.13-.97-.4-1.27s-.65-.46-1.16-.46-.87.15-1.16.46-.43.73-.43,1.27v3.85c0,.09-.03.17-.1.24-.07.07-.15.1-.24.1h-1.23Z"/>
        <path d="m610.05,654.3c-.09,0-.17-.03-.24-.1s-.1-.14-.1-.24v-5.46h-1.13c-.09,0-.17-.03-.24-.1s-.1-.15-.1-.25v-.8c0-.09.03-.17.1-.24s.14-.1.24-.1h1.13v-.57c0-.56.1-1.02.31-1.39.21-.37.51-.65.91-.83s.91-.28,1.53-.28h.95c.1,0,.18.03.25.1.06.07.09.14.09.24v.8c0,.1-.03.19-.09.25-.06.07-.14.1-.25.1h-.9c-.37,0-.63.09-.77.28-.14.19-.21.46-.21.81v.5h1.74c.1,0,.18.03.25.1s.09.14.09.24v.8c0,.1-.03.19-.09.25s-.14.1-.25.1h-1.74v5.46c0,.09-.03.17-.1.24s-.14.1-.24.1h-1.15Z"/>
        <path d="m615.06,654.3c-.09,0-.17-.03-.24-.1-.07-.07-.1-.14-.1-.24v-6.59c0-.1.03-.19.1-.25.06-.07.14-.1.24-.1h1.13c.09,0,.18.03.25.1.07.07.11.15.11.25v.57c.21-.3.49-.53.83-.69.34-.16.73-.24,1.18-.24h.57c.1,0,.18.03.25.1s.09.14.09.24v1.01c0,.09-.03.17-.09.24s-.14.1-.25.1h-1.09c-.45,0-.8.12-1.04.37-.25.25-.37.59-.37,1.04v3.85c0,.09-.03.17-.1.24-.07.07-.15.1-.25.1h-1.22Z"/>
        <path d="m622.57,654.44c-.49,0-.92-.1-1.32-.29-.39-.19-.7-.45-.93-.77s-.34-.68-.34-1.08c0-.65.27-1.17.8-1.56.53-.39,1.23-.65,2.09-.78l1.92-.28v-.29c0-.39-.1-.7-.29-.91s-.53-.32-1.01-.32c-.34,0-.61.07-.82.2-.21.14-.37.32-.47.54-.08.12-.18.18-.32.18h-1.11c-.1,0-.18-.03-.23-.08-.05-.06-.08-.13-.08-.22,0-.15.07-.33.19-.55.12-.21.29-.42.53-.62.24-.2.55-.37.93-.51s.84-.21,1.39-.21c.59,0,1.08.07,1.49.22s.73.34.97.58.42.53.53.85c.11.33.17.67.17,1.04v4.4c0,.09-.03.17-.1.24-.07.07-.15.1-.24.1h-1.13c-.1,0-.18-.03-.25-.1s-.09-.14-.09-.24v-.55c-.12.17-.29.33-.49.49-.21.16-.46.29-.75.38-.29.1-.64.15-1.04.15Zm.48-1.33c.33,0,.62-.07.89-.21.27-.14.48-.36.63-.65.15-.29.23-.67.23-1.11v-.29l-1.4.22c-.55.08-.96.22-1.23.41s-.41.42-.41.69c0,.21.06.38.19.52s.29.25.48.32c.2.07.4.1.62.1Z"/>
        <path d="m631.2,654.44c-.56,0-1.04-.07-1.43-.2-.4-.13-.72-.29-.97-.49s-.44-.39-.56-.59c-.12-.2-.19-.36-.2-.49,0-.1.02-.18.09-.25.07-.06.15-.09.23-.09h1.11s.07,0,.1.01c.03,0,.07.04.11.08.12.1.25.21.38.32.13.11.3.21.48.29.19.08.42.12.7.12.36,0,.67-.07.92-.22.25-.14.37-.35.37-.62,0-.2-.05-.35-.16-.48-.11-.12-.31-.23-.59-.33-.29-.1-.7-.2-1.23-.31-.52-.12-.96-.28-1.3-.46-.34-.19-.6-.42-.77-.7s-.25-.61-.25-.98.11-.71.33-1.04c.22-.33.55-.6.98-.82.43-.21.97-.32,1.62-.32.5,0,.94.06,1.32.19.37.13.68.28.93.47s.44.38.57.57c.13.19.2.36.21.5,0,.1-.02.18-.08.25-.07.06-.14.09-.22.09h-1.04s-.09,0-.13-.03-.07-.04-.11-.07c-.1-.09-.21-.19-.34-.3-.12-.11-.27-.2-.44-.27-.17-.07-.4-.11-.68-.11-.36,0-.63.08-.81.23s-.28.35-.28.58c0,.16.04.3.13.41.09.12.27.23.54.33.27.1.68.21,1.23.32.62.11,1.12.28,1.49.5.37.22.63.47.78.76.15.28.23.6.23.94,0,.42-.12.8-.37,1.13-.25.34-.61.6-1.09.79-.48.19-1.08.29-1.79.29Z"/>
        <path d="m639.16,654.3c-.56,0-1.03-.1-1.41-.29s-.67-.49-.85-.88c-.19-.39-.28-.87-.28-1.45v-3.18h-1.11c-.09,0-.17-.03-.24-.1-.07-.07-.1-.15-.1-.25v-.8c0-.09.03-.17.1-.24.06-.07.14-.1.24-.1h1.11v-2.32c0-.09.03-.17.09-.24s.14-.1.25-.1h1.13c.09,0,.17.03.24.1s.1.14.1.24v2.32h1.75c.09,0,.17.03.24.1s.1.14.1.24v.8c0,.1-.03.19-.1.25s-.14.1-.24.1h-1.75v3.04c0,.38.07.68.2.9.14.21.37.32.71.32h.97c.09,0,.17.03.24.1.07.07.1.15.1.24v.87c0,.09-.03.17-.1.24s-.14.1-.24.1h-1.13Z"/>
        <path d="m642.21,654.3c-.09,0-.17-.03-.24-.1-.07-.07-.1-.14-.1-.24v-6.59c0-.1.03-.19.1-.25.06-.07.14-.1.24-.1h1.13c.09,0,.18.03.25.1.07.07.11.15.11.25v.57c.21-.3.49-.53.83-.69.34-.16.73-.24,1.18-.24h.57c.1,0,.18.03.25.1s.09.14.09.24v1.01c0,.09-.03.17-.09.24s-.14.1-.25.1h-1.09c-.45,0-.8.12-1.04.37-.25.25-.37.59-.37,1.04v3.85c0,.09-.03.17-.1.24-.07.07-.15.1-.25.1h-1.22Z"/>
        <path d="m650.41,654.44c-.57,0-1.06-.13-1.48-.38-.42-.26-.74-.62-.96-1.09-.22-.47-.34-1.03-.34-1.67v-3.93c0-.09.03-.17.1-.24s.14-.1.24-.1h1.23c.1,0,.18.03.25.1s.09.14.09.24v3.85c0,1.16.51,1.74,1.53,1.74.49,0,.87-.15,1.16-.46.28-.31.43-.73.43-1.27v-3.85c0-.09.03-.17.1-.24s.14-.1.24-.1h1.23c.09,0,.17.03.24.1s.1.14.1.24v6.61c0,.09-.03.17-.1.24s-.14.1-.24.1h-1.13c-.1,0-.18-.03-.25-.1s-.09-.14-.09-.24v-.57c-.25.33-.56.58-.94.77-.37.19-.84.28-1.4.28Z"/>
        <path d="m659.55,654.44c-.67,0-1.26-.13-1.77-.38s-.91-.62-1.19-1.1c-.29-.48-.44-1.06-.47-1.74,0-.14-.01-.32-.01-.55s0-.42.01-.57c.03-.68.18-1.26.47-1.74.28-.48.68-.85,1.19-1.1s1.1-.38,1.77-.38c.6,0,1.11.08,1.53.25s.77.37,1.04.63.47.52.61.8c.13.28.21.53.22.75,0,.1-.02.18-.09.25s-.15.09-.25.09h-1.23c-.09,0-.17-.02-.22-.07-.05-.05-.1-.12-.15-.21-.14-.37-.32-.64-.55-.79-.23-.15-.52-.23-.88-.23-.47,0-.84.15-1.11.44-.28.29-.42.76-.44,1.39-.02.35-.02.68,0,.98.02.64.17,1.11.44,1.4s.65.43,1.11.43c.36,0,.66-.08.88-.23.22-.15.41-.42.55-.79.05-.09.1-.16.15-.21.05-.05.12-.07.22-.07h1.23c.09,0,.17.03.25.09.07.06.1.14.09.25,0,.17-.05.36-.13.57s-.21.42-.38.64c-.17.22-.39.42-.65.6-.26.18-.58.33-.94.44-.37.11-.8.17-1.28.17Z"/>
        <path d="m667.69,654.3c-.56,0-1.03-.1-1.41-.29s-.67-.49-.85-.88c-.19-.39-.28-.87-.28-1.45v-3.18h-1.11c-.09,0-.17-.03-.24-.1-.07-.07-.1-.15-.1-.25v-.8c0-.09.03-.17.1-.24.06-.07.14-.1.24-.1h1.11v-2.32c0-.09.03-.17.09-.24s.14-.1.25-.1h1.13c.09,0,.17.03.24.1s.1.14.1.24v2.32h1.75c.09,0,.17.03.24.1s.1.14.1.24v.8c0,.1-.03.19-.1.25s-.14.1-.24.1h-1.75v3.04c0,.38.07.68.2.9.14.21.37.32.71.32h.97c.09,0,.17.03.24.1.07.07.1.15.1.24v.87c0,.09-.03.17-.1.24s-.14.1-.24.1h-1.13Z"/>
        <path d="m673.11,654.44c-.57,0-1.06-.13-1.48-.38-.42-.26-.74-.62-.96-1.09-.22-.47-.34-1.03-.34-1.67v-3.93c0-.09.03-.17.1-.24s.14-.1.24-.1h1.23c.1,0,.18.03.25.1s.09.14.09.24v3.85c0,1.16.51,1.74,1.53,1.74.49,0,.87-.15,1.16-.46.28-.31.43-.73.43-1.27v-3.85c0-.09.03-.17.1-.24s.14-.1.24-.1h1.23c.09,0,.17.03.24.1s.1.14.1.24v6.61c0,.09-.03.17-.1.24s-.14.1-.24.1h-1.13c-.1,0-.18-.03-.25-.1s-.09-.14-.09-.24v-.57c-.25.33-.56.58-.94.77-.37.19-.84.28-1.4.28Z"/>
        <path d="m679.43,654.3c-.09,0-.17-.03-.24-.1-.07-.07-.1-.14-.1-.24v-6.59c0-.1.03-.19.1-.25.06-.07.14-.1.24-.1h1.13c.09,0,.18.03.25.1.07.07.11.15.11.25v.57c.21-.3.49-.53.83-.69.34-.16.73-.24,1.18-.24h.57c.1,0,.18.03.25.1s.09.14.09.24v1.01c0,.09-.03.17-.09.24s-.14.1-.25.1h-1.09c-.45,0-.8.12-1.04.37-.25.25-.37.59-.37,1.04v3.85c0,.09-.03.17-.1.24-.07.07-.15.1-.25.1h-1.22Z"/>
        <path d="m687.97,654.44c-1.04,0-1.86-.3-2.46-.9s-.93-1.45-.98-2.55c0-.09-.01-.21-.01-.36s0-.26.01-.34c.04-.71.2-1.32.48-1.83.29-.51.68-.9,1.18-1.18s1.1-.41,1.78-.41c.76,0,1.39.16,1.9.47s.9.75,1.16,1.3c.26.56.39,1.2.39,1.93v.29c0,.09-.03.17-.1.24-.07.07-.15.1-.25.1h-4.65v.11c0,.33.07.63.19.9.12.28.29.5.52.67.23.17.5.25.82.25.26,0,.48-.04.66-.12.18-.08.32-.17.43-.27.11-.1.19-.19.24-.25.08-.11.15-.18.2-.2.05-.02.13-.04.23-.04h1.2c.09,0,.17.03.23.08s.09.13.08.21c0,.15-.09.33-.23.55s-.35.42-.62.63c-.27.21-.61.38-1.01.51-.41.14-.87.2-1.39.2Zm-1.54-4.41h3.09v-.04c0-.36-.06-.68-.18-.96-.12-.27-.3-.49-.53-.64-.23-.15-.51-.23-.84-.23s-.61.08-.84.23-.41.37-.52.64c-.12.28-.18.6-.18.96v.04Z"/>
        <path d="m699.3,654.44c-.68,0-1.28-.11-1.78-.34-.51-.23-.91-.55-1.19-.98-.29-.42-.43-.92-.43-1.49,0-.41.08-.78.25-1.1.17-.32.4-.61.69-.87.29-.26.62-.49.99-.71-.4-.42-.69-.8-.85-1.15-.17-.34-.25-.7-.25-1.05,0-.43.11-.82.34-1.18.22-.36.55-.65.97-.88.42-.22.93-.34,1.54-.34.57,0,1.06.11,1.46.32s.72.5.95.86c.22.36.34.75.34,1.18,0,.39-.09.74-.27,1.04-.18.3-.43.58-.74.82-.31.24-.65.47-1.04.69l2.02,2c.11-.19.24-.43.38-.73.14-.3.26-.68.36-1.13.03-.16.13-.24.29-.24h1.02c.08,0,.15.03.2.08.05.05.08.12.08.2,0,.2-.05.41-.12.64-.07.23-.16.48-.28.74-.12.26-.25.52-.4.77-.15.25-.31.49-.48.71l1.48,1.51c.08.07.11.14.11.21s-.02.14-.07.18c-.05.05-.11.07-.2.07h-1.34c-.09,0-.17-.01-.22-.04-.06-.03-.11-.06-.15-.1l-.77-.76c-.37.33-.8.58-1.27.76-.47.18-1.01.27-1.62.27Zm0-1.44c.33,0,.64-.06.95-.18.31-.12.59-.3.85-.55l-2.24-2.21c-.33.18-.61.39-.85.63-.24.24-.36.54-.36.88,0,.3.08.55.23.76.15.21.36.37.61.49.25.12.52.17.8.17Zm-.01-4.76c.25-.14.49-.28.7-.42.21-.14.38-.3.51-.47s.19-.37.19-.58c0-.32-.11-.57-.32-.76s-.49-.28-.81-.28c-.3,0-.56.09-.79.27-.23.18-.34.44-.34.76,0,.14.03.28.08.42.05.14.14.29.27.46.13.16.3.36.52.6Z"/>
        <path d="m709.88,654.3c-.09,0-.17-.03-.24-.1-.07-.07-.1-.14-.1-.24v-9.11c0-.1.03-.19.1-.25.06-.07.14-.1.24-.1h3.42c.94,0,1.72.14,2.33.43.61.29,1.07.72,1.39,1.29.31.57.47,1.26.48,2.09.02.41.03.78.03,1.09s0,.68-.03,1.08c-.02.87-.18,1.58-.48,2.15-.3.56-.75.98-1.35,1.26-.6.28-1.37.41-2.3.41h-3.49Zm1.61-1.61h1.81c.52,0,.95-.07,1.27-.22.33-.15.57-.39.72-.72s.24-.77.25-1.31c0-.28.02-.52.02-.73,0-.21,0-.42,0-.63,0-.21-.01-.45-.02-.72-.02-.76-.21-1.33-.57-1.69-.36-.36-.94-.55-1.74-.55h-1.74v6.58Z"/>
        <path d="m721.34,654.44c-.49,0-.92-.1-1.32-.29-.39-.19-.7-.45-.93-.77s-.34-.68-.34-1.08c0-.65.27-1.17.8-1.56.53-.39,1.23-.65,2.09-.78l1.92-.28v-.29c0-.39-.1-.7-.29-.91s-.53-.32-1.01-.32c-.34,0-.61.07-.82.2-.21.14-.37.32-.47.54-.08.12-.18.18-.32.18h-1.11c-.1,0-.18-.03-.23-.08-.05-.06-.08-.13-.08-.22,0-.15.07-.33.19-.55.12-.21.29-.42.53-.62.24-.2.55-.37.93-.51s.84-.21,1.39-.21c.59,0,1.08.07,1.49.22s.73.34.97.58.42.53.53.85c.11.33.17.67.17,1.04v4.4c0,.09-.03.17-.1.24-.07.07-.15.1-.24.1h-1.13c-.1,0-.18-.03-.25-.1s-.09-.14-.09-.24v-.55c-.12.17-.29.33-.49.49-.21.16-.46.29-.75.38-.29.1-.64.15-1.04.15Zm.48-1.33c.33,0,.62-.07.89-.21.27-.14.48-.36.63-.65.15-.29.23-.67.23-1.11v-.29l-1.4.22c-.55.08-.96.22-1.23.41s-.41.42-.41.69c0,.21.06.38.19.52s.29.25.48.32c.2.07.4.1.62.1Z"/>
        <path d="m730.44,654.3c-.56,0-1.03-.1-1.41-.29s-.67-.49-.85-.88c-.19-.39-.28-.87-.28-1.45v-3.18h-1.11c-.09,0-.17-.03-.24-.1-.07-.07-.1-.15-.1-.25v-.8c0-.09.03-.17.1-.24.06-.07.14-.1.24-.1h1.11v-2.32c0-.09.03-.17.09-.24s.14-.1.25-.1h1.13c.09,0,.17.03.24.1s.1.14.1.24v2.32h1.75c.09,0,.17.03.24.1s.1.14.1.24v.8c0,.1-.03.19-.1.25s-.14.1-.24.1h-1.75v3.04c0,.38.07.68.2.9.14.21.37.32.71.32h.97c.09,0,.17.03.24.1.07.07.1.15.1.24v.87c0,.09-.03.17-.1.24s-.14.1-.24.1h-1.13Z"/>
        <path d="m735.27,654.44c-.49,0-.92-.1-1.32-.29-.39-.19-.7-.45-.93-.77s-.34-.68-.34-1.08c0-.65.27-1.17.8-1.56.53-.39,1.23-.65,2.09-.78l1.92-.28v-.29c0-.39-.1-.7-.29-.91s-.53-.32-1.01-.32c-.34,0-.61.07-.82.2-.21.14-.37.32-.47.54-.08.12-.18.18-.32.18h-1.11c-.1,0-.18-.03-.23-.08-.05-.06-.08-.13-.08-.22,0-.15.07-.33.19-.55.12-.21.29-.42.53-.62.24-.2.55-.37.93-.51s.84-.21,1.39-.21c.59,0,1.08.07,1.49.22s.73.34.97.58.42.53.53.85c.11.33.17.67.17,1.04v4.4c0,.09-.03.17-.1.24-.07.07-.15.1-.24.1h-1.13c-.1,0-.18-.03-.25-.1s-.09-.14-.09-.24v-.55c-.12.17-.29.33-.49.49-.21.16-.46.29-.75.38-.29.1-.64.15-1.04.15Zm.48-1.33c.33,0,.62-.07.89-.21.27-.14.48-.36.63-.65.15-.29.23-.67.23-1.11v-.29l-1.4.22c-.55.08-.96.22-1.23.41s-.41.42-.41.69c0,.21.06.38.19.52s.29.25.48.32c.2.07.4.1.62.1Z"/>
      </g>
    </g>
  </g>
</svg>