<?xml version="1.0" encoding="UTF-8"?>
<svg id="Layer_1" data-name="Layer 1" xmlns="http://www.w3.org/2000/svg" version="1.1" viewBox="0 0 861 700">
  <defs>
    <style>
      .cls-1 {
        fill: #0078b4;
      }

      .cls-1, .cls-2, .cls-3 {
        stroke-width: 0px;
      }

      .cls-2 {
        fill: #000;
      }

      .cls-3 {
        fill: #d1628e;
      }

      .cls-4 {
        fill: #fff;
        stroke: #fff;
        stroke-miterlimit: 10;
        stroke-width: .2px;
      }
    </style>
  </defs>
  <g>
    <g>
      <path class="cls-1" d="M635.5,411.4c18.7-54.3,15.3-112.6-9.5-164.3l-197,96.1V124c-33.1.2-63.7,7.4-93.5,21.9-52,25.4-91.1,69.5-110,124.3-18.9,54.8-15.3,113.6,10.1,165.6,25.4,52,69.5,91.1,124.3,110,54.8,18.9,113.6,15.3,165.6-10.1,52-25.4,91.1-69.5,110-124.3Z"/>
      <path class="cls-3" d="M432,124v214.4l192.7-94c-37.7-76.1-107.8-119.9-192.7-120.4Z"/>
    </g>
    <g>
      <path class="cls-2" d="M338.4,74.6c-.3,0-.6,0-.8-.3-.2-.2-.3-.4-.4-.7l-3.6-20.5s0,0,0-.1h0c0-.3,0-.4.2-.6s.3-.2.5-.2h3.4c.6,0,.9.2.9.7l2.4,13.5,2.6-8.4c0-.2.2-.4.3-.5.1-.2.4-.3.7-.3h2c.3,0,.6,0,.7.3.1.2.2.4.3.5l2.6,8.4,2.4-13.5c0-.4.4-.7,1-.7h3.4c.2,0,.4,0,.5.2.1.1.2.3.2.5h0c0,.1,0,.2,0,.2l-3.6,20.5c0,.3-.2.5-.4.7-.2.2-.5.3-.8.3h-2.6c-.3,0-.6,0-.8-.3-.2-.2-.3-.4-.4-.6l-3.4-9.9-3.4,9.9c0,.2-.2.4-.4.6s-.5.3-.8.3h-2.6Z"/>
      <path class="cls-2" d="M361.9,74.6c-.2,0-.4,0-.6-.2-.1-.1-.2-.3-.2-.6v-20.8c0-.2,0-.4.2-.6.2-.1.3-.2.6-.2h8.7c1.7,0,3.2.3,4.5.8s2.3,1.3,3,2.4,1.1,2.4,1.1,4-.4,3-1.1,4c-.7,1.1-1.7,1.8-3,2.4s-2.8.8-4.5.8h-4.3v7.2c0,.2,0,.4-.2.6-.2.1-.3.2-.6.2h-3.6ZM366.2,62.6h4.2c1.1,0,1.9-.3,2.5-.8.6-.5.9-1.3.9-2.4s-.3-1.7-.8-2.3c-.5-.6-1.4-.9-2.6-.9h-4.2v6.4Z"/>
      <path class="cls-2" d="M393.6,74.6c-.3,0-.6,0-.7-.2s-.3-.3-.4-.6l-6-14.8c0,0,0-.2,0-.3,0-.2,0-.4.2-.5s.3-.2.5-.2h3.1c.3,0,.5,0,.6.2.1.1.2.3.3.4l3.9,10.6,3.9-10.6c0-.1.2-.3.3-.4.1-.1.3-.2.6-.2h3.1c.2,0,.4,0,.5.2.1.1.2.3.2.5s0,.2,0,.3l-6,14.8c0,.2-.2.4-.4.6-.2.2-.4.2-.7.2h-2.9Z"/>
      <path class="cls-2" d="M412.4,74.9c-1.3,0-2.5-.2-3.4-.5-.9-.3-1.7-.7-2.3-1.1-.6-.4-1-.9-1.3-1.4s-.4-.8-.5-1.2c0-.2,0-.4.2-.6s.3-.2.5-.2h3.1c0,0,.1,0,.2,0,0,0,.1,0,.2.2.3.2.6.4.9.7s.6.5,1,.6.9.3,1.5.3,1.3-.1,1.8-.4c.5-.3.7-.7.7-1.2s-.1-.7-.3-1c-.2-.3-.6-.5-1.3-.7-.6-.2-1.5-.4-2.8-.7-1.2-.3-2.1-.6-2.9-1s-1.4-1-1.8-1.6c-.4-.7-.6-1.4-.6-2.4s.3-1.6.8-2.4c.5-.8,1.3-1.4,2.3-1.9,1-.5,2.3-.8,3.8-.8s2.2.1,3.1.4c.9.3,1.6.7,2.2,1.1s1.1.9,1.4,1.3c.3.5.5.9.5,1.2,0,.2,0,.4-.2.5s-.3.2-.5.2h-2.8c-.1,0-.2,0-.3,0,0,0-.2,0-.2-.1-.3-.2-.5-.4-.8-.6-.3-.2-.6-.4-.9-.6-.4-.2-.8-.3-1.4-.3s-1.2.2-1.6.5c-.4.3-.6.7-.6,1.2s0,.6.3.8c.2.3.6.5,1.2.7.6.2,1.5.4,2.7.7,1.5.3,2.6.6,3.5,1.2s1.5,1.1,1.8,1.8c.4.7.6,1.4.6,2.2s-.3,1.9-.9,2.7c-.6.8-1.5,1.4-2.6,1.8-1.1.4-2.5.7-4.2.7Z"/>
      <path class="cls-2" d="M428.5,74.6c-.2,0-.4,0-.5-.2-.1-.1-.2-.3-.2-.5s0-.2,0-.3l7.6-20.6c0-.2.2-.4.4-.6s.5-.3.8-.3h4.1c.3,0,.6,0,.8.3.2.2.3.4.4.6l7.6,20.6c0,0,0,.2,0,.3,0,.2,0,.3-.2.5-.1.1-.3.2-.5.2h-3.3c-.3,0-.6,0-.7-.2-.2-.1-.2-.3-.3-.4l-1.4-3.6h-9l-1.4,3.6c0,.1-.1.3-.3.4s-.4.2-.7.2h-3.3ZM435.3,66.2h6.6l-3.3-9.2-3.3,9.2Z"/>
      <path class="cls-2" d="M457.9,74.9c-1.1,0-2-.2-2.8-.5-.8-.4-1.5-.9-2.1-1.5-.6-.7-1-1.5-1.3-2.4s-.5-2-.5-3.1c0-.4,0-.8,0-1.1s0-.7,0-1.1c0-1.1.2-2.1.5-3,.3-.9.7-1.7,1.3-2.4s1.3-1.2,2.1-1.6,1.8-.6,2.9-.6,2.1.2,2.8.6,1.4.9,2,1.5v-7c0-.2,0-.4.2-.6.1-.1.3-.2.6-.2h3.3c.2,0,.4,0,.5.2.1.1.2.3.2.6v21.1c0,.2,0,.4-.2.6s-.3.2-.5.2h-3.1c-.2,0-.4,0-.5-.2s-.2-.3-.2-.6v-1.1c-.5.6-1.2,1.2-2,1.6-.8.4-1.8.6-3,.6ZM459.4,71c.8,0,1.4-.2,1.9-.5.5-.4.8-.8,1.1-1.4s.3-1.2.4-1.8c0-.4,0-.8,0-1.2s0-.8,0-1.2c0-.6-.1-1.2-.4-1.7-.2-.5-.6-1-1.1-1.3-.5-.3-1.1-.5-1.9-.5s-1.5.2-1.9.5c-.5.4-.8.8-1,1.4-.2.6-.3,1.2-.4,1.9,0,.7,0,1.3,0,2,0,.7.2,1.3.4,1.9.2.6.5,1,1,1.4.5.4,1.1.5,1.9.5Z"/>
      <path class="cls-2" d="M472.4,74.6c-.2,0-.4,0-.5-.2-.1-.1-.2-.3-.2-.6v-15c0-.2,0-.4.2-.6s.3-.2.5-.2h3c.2,0,.4,0,.6.2.2.1.2.3.2.6v1.1c.4-.6,1-1.1,1.8-1.5.8-.4,1.7-.7,2.7-.7,2.5,0,4.2.9,5.1,2.8.5-.8,1.2-1.5,2.1-2,.9-.5,1.9-.8,3.1-.8s2.1.3,3,.8c.9.5,1.6,1.3,2.1,2.3.5,1,.8,2.4.8,4v9.1c0,.2,0,.4-.2.6s-.3.2-.5.2h-3.2c-.2,0-.4,0-.5-.2s-.2-.3-.2-.6v-8.9c0-.9-.1-1.6-.4-2.1-.3-.5-.6-.9-1-1.1-.4-.2-.9-.3-1.4-.3s-.9.1-1.3.3c-.4.2-.8.6-1,1.1s-.4,1.2-.4,2.1v8.9c0,.2,0,.4-.2.6s-.3.2-.6.2h-3.1c-.2,0-.4,0-.6-.2s-.2-.3-.2-.6v-8.9c0-.9-.1-1.6-.4-2.1s-.6-.9-1-1.1c-.4-.2-.9-.3-1.4-.3s-.9.1-1.3.3c-.4.2-.8.6-1,1.1-.3.5-.4,1.2-.4,2v8.9c0,.2,0,.4-.2.6s-.3.2-.5.2h-3.2Z"/>
      <path class="cls-2" d="M501.4,55.4c-.2,0-.4,0-.5-.2s-.2-.3-.2-.6v-2.6c0-.2,0-.4.2-.6.1-.2.3-.2.5-.2h3.4c.2,0,.4,0,.6.2.2.2.2.4.2.6v2.6c0,.2,0,.4-.2.6-.2.1-.4.2-.6.2h-3.4ZM501.5,74.6c-.2,0-.4,0-.5-.2-.1-.1-.2-.3-.2-.6v-15c0-.2,0-.4.2-.6s.3-.2.5-.2h3.2c.2,0,.4,0,.6.2.1.1.2.3.2.6v15c0,.2,0,.4-.2.6s-.3.2-.6.2h-3.2Z"/>
      <path class="cls-2" d="M511.1,74.6c-.2,0-.4,0-.5-.2-.1-.1-.2-.3-.2-.6v-15c0-.2,0-.4.2-.6s.3-.2.5-.2h3.1c.2,0,.4,0,.6.2.1.1.2.3.2.6v1.2c.6-.7,1.3-1.2,2.1-1.7.9-.4,1.9-.7,3.2-.7s2.4.3,3.3.8,1.7,1.4,2.2,2.5.8,2.4.8,3.9v8.9c0,.2,0,.4-.2.6-.2.1-.3.2-.6.2h-3.4c-.2,0-.4,0-.6-.2s-.2-.3-.2-.6v-8.7c0-1.1-.3-2-.8-2.6-.5-.6-1.3-.9-2.4-.9s-1.8.3-2.4.9c-.6.6-.9,1.5-.9,2.6v8.7c0,.2,0,.4-.2.6s-.3.2-.5.2h-3.4Z"/>
    </g>
    <g>
      <circle class="cls-1" cx="306" cy="625.1" r="11.3"/>
      <g>
        <path class="cls-2" d="M333.5,631.6c-.1,0-.2,0-.3-.1s-.1-.2-.2-.3l-1.7-9s0,0,0,0,0,0,0,0c0,0,0-.2,0-.2,0,0,.1,0,.2,0h1.2c.2,0,.4,0,.4.3l1.2,6.3,1.3-4.1c0,0,0-.2.1-.2,0,0,.2-.1.3-.1h.8c.1,0,.3,0,.3.1s.1.2.1.2l1.3,4.1,1.2-6.3c0-.2.2-.3.4-.3h1.2c0,0,.1,0,.2,0,0,0,0,.1,0,.2h0c0,0,0,0,0,.1l-1.7,9c0,.1,0,.2-.2.3s-.2.1-.3.1h-.9c-.1,0-.2,0-.3-.1,0,0-.1-.2-.2-.2l-1.6-4.7-1.6,4.7c0,0,0,.2-.2.2,0,0-.2.1-.3.1h-.9Z"/>
        <path class="cls-2" d="M343.6,631.6c0,0-.2,0-.2,0,0,0,0-.1,0-.2v-9.1c0-.1,0-.2,0-.3,0,0,.1,0,.2,0h3.8c.7,0,1.4.1,1.9.3s1,.6,1.3,1,.4,1,.4,1.7-.1,1.3-.4,1.7-.7.8-1.3,1c-.5.2-1.2.3-1.9.3h-2.1v3.3c0,0,0,.2,0,.2s-.1,0-.2,0h-1.3ZM345.3,626.4h2c.5,0,1-.1,1.2-.4.3-.3.4-.6.4-1.1s-.1-.8-.4-1.1c-.3-.3-.7-.4-1.3-.4h-2v3.1Z"/>
        <path class="cls-2" d="M357.6,631.6c0,0-.2,0-.2,0s0-.1,0-.2v-7.7h-2.6c0,0-.2,0-.2,0s0-.1,0-.2v-1c0-.1,0-.2,0-.3s.1,0,.2,0h7.1c.1,0,.2,0,.3,0s0,.1,0,.3v1c0,0,0,.2,0,.2s-.1,0-.3,0h-2.6v7.7c0,0,0,.2,0,.2s-.1,0-.3,0h-1.3Z"/>
        <path class="cls-2" d="M365.3,631.8c-.7,0-1.4-.1-1.9-.4-.5-.3-.9-.6-1.2-1.1-.3-.5-.4-1-.5-1.7,0-.2,0-.4,0-.6s0-.4,0-.6c0-.6.2-1.2.5-1.7.3-.5.7-.8,1.2-1.1.5-.3,1.1-.4,1.9-.4s1.3.1,1.9.4c.5.3.9.6,1.2,1.1.3.5.4,1,.5,1.7,0,.2,0,.4,0,.6s0,.4,0,.6c0,.6-.2,1.2-.5,1.7-.3.5-.7.8-1.2,1.1-.5.3-1.1.4-1.9.4ZM365.3,630.4c.5,0,.9-.2,1.1-.5s.4-.8.4-1.4c0-.1,0-.3,0-.5s0-.4,0-.5c0-.6-.2-1.1-.4-1.4-.3-.3-.7-.5-1.1-.5s-.9.2-1.1.5c-.3.3-.4.8-.4,1.4,0,.1,0,.3,0,.5s0,.4,0,.5c0,.6.2,1.1.4,1.4s.7.5,1.1.5Z"/>
        <path class="cls-2" d="M373.6,631.6c-.6,0-1,0-1.4-.3s-.7-.5-.9-.9c-.2-.4-.3-.9-.3-1.4v-3.2h-1.1c0,0-.2,0-.2,0,0,0,0-.1,0-.3v-.8c0,0,0-.2,0-.2,0,0,.1,0,.2,0h1.1v-2.3c0,0,0-.2,0-.2s.1,0,.2,0h1.1c0,0,.2,0,.2,0s0,.1,0,.2v2.3h1.8c0,0,.2,0,.2,0s0,.1,0,.2v.8c0,.1,0,.2,0,.3s-.1,0-.2,0h-1.8v3c0,.4,0,.7.2.9.1.2.4.3.7.3h1c0,0,.2,0,.2,0,0,0,0,.1,0,.2v.9c0,0,0,.2,0,.2s-.1,0-.2,0h-1.1Z"/>
        <path class="cls-2" d="M378.5,631.8c-.5,0-.9,0-1.3-.3-.4-.2-.7-.4-.9-.8s-.3-.7-.3-1.1c0-.7.3-1.2.8-1.6.5-.4,1.2-.6,2.1-.8l1.9-.3v-.3c0-.4,0-.7-.3-.9s-.5-.3-1-.3-.6,0-.8.2c-.2.1-.4.3-.5.5,0,.1-.2.2-.3.2h-1.1c-.1,0-.2,0-.2,0,0,0,0-.1,0-.2,0-.1,0-.3.2-.5.1-.2.3-.4.5-.6.2-.2.5-.4.9-.5s.8-.2,1.4-.2,1.1,0,1.5.2.7.3,1,.6.4.5.5.9c.1.3.2.7.2,1v4.4c0,0,0,.2,0,.2,0,0-.1,0-.2,0h-1.1c-.1,0-.2,0-.2,0s0-.1,0-.2v-.5c-.1.2-.3.3-.5.5-.2.2-.5.3-.7.4-.3,0-.6.1-1,.1ZM378.9,630.4c.3,0,.6,0,.9-.2.3-.1.5-.4.6-.7.2-.3.2-.7.2-1.1v-.3l-1.4.2c-.6,0-1,.2-1.2.4s-.4.4-.4.7,0,.4.2.5.3.3.5.3c.2,0,.4.1.6.1Z"/>
        <path class="cls-2" d="M384.7,631.6c0,0-.2,0-.2,0s0-.1,0-.2v-9.3c0,0,0-.2,0-.2s.1,0,.2,0h1.2c0,0,.2,0,.2,0s0,.1,0,.2v9.3c0,0,0,.2,0,.2s-.1,0-.2,0h-1.2Z"/>
      </g>
      <circle class="cls-3" cx="464.2" cy="625.1" r="11.3"/>
      <g>
        <path class="cls-2" d="M489.2,631.6c0,0-.1,0-.2,0s0-.1,0-.2,0,0,0-.1l3.4-9c0,0,0-.2.2-.2,0,0,.2-.1.3-.1h1.5c.1,0,.2,0,.3.1,0,0,.1.2.2.2l3.4,9s0,0,0,.1c0,0,0,.2,0,.2,0,0-.1,0-.2,0h-1.2c-.1,0-.2,0-.3,0s-.1-.1-.1-.2l-.7-1.7h-4.2l-.7,1.7c0,0,0,.1-.1.2s-.2,0-.3,0h-1.2ZM492,628h3.2l-1.6-4.3-1.6,4.3Z"/>
        <path class="cls-2" d="M502,631.8c-.5,0-.9,0-1.3-.2-.4-.2-.7-.4-.9-.7-.2-.3-.4-.7-.6-1.1-.1-.4-.2-.9-.2-1.3,0-.2,0-.3,0-.5s0-.3,0-.5c0-.5,0-.9.2-1.3s.3-.8.6-1.1.6-.5.9-.7c.4-.2.8-.3,1.3-.3s.9,0,1.3.3c.3.2.6.4.9.7v-3.1c0,0,0-.2,0-.2s.1,0,.2,0h1.2c0,0,.2,0,.2,0s0,.1,0,.2v9.3c0,0,0,.2,0,.2s-.1,0-.2,0h-1.1c-.1,0-.2,0-.2,0s0-.1,0-.2v-.5c-.2.3-.5.5-.9.7s-.8.3-1.4.3ZM502.5,630.3c.4,0,.7,0,.9-.3.2-.2.4-.4.5-.7.1-.3.2-.6.2-.8,0-.2,0-.3,0-.5s0-.4,0-.5c0-.3,0-.5-.2-.8s-.3-.5-.5-.6-.5-.3-.9-.3-.7,0-.9.3-.4.4-.5.7c-.1.3-.2.6-.2.9,0,.3,0,.6,0,.8,0,.3,0,.6.2.9s.3.5.5.7.5.3.9.3Z"/>
        <path class="cls-2" d="M508.2,631.6c0,0-.2,0-.2,0,0,0,0-.1,0-.2v-6.6c0,0,0-.2,0-.2,0,0,.1,0,.2,0h1.1c0,0,.2,0,.2,0s0,.1,0,.2v.5c.2-.3.5-.5.8-.7.3-.2.7-.3,1.2-.3,1.1,0,1.8.4,2.2,1.2.2-.4.5-.7.9-.9.4-.2.9-.3,1.4-.3s.9.1,1.3.3c.4.2.7.6.9,1,.2.5.3,1,.3,1.7v4c0,0,0,.2,0,.2s-.1,0-.2,0h-1.1c0,0-.2,0-.2,0s0-.1,0-.2v-3.9c0-.4,0-.8-.2-1-.1-.2-.3-.4-.5-.5-.2-.1-.4-.2-.7-.2s-.4,0-.6.2c-.2.1-.4.3-.5.5-.1.2-.2.6-.2,1v3.9c0,0,0,.2,0,.2s-.1,0-.2,0h-1.1c0,0-.2,0-.2,0s0-.1,0-.2v-3.9c0-.4,0-.8-.2-1-.1-.2-.3-.4-.5-.5s-.4-.2-.7-.2-.4,0-.6.2-.4.3-.5.5c-.1.2-.2.6-.2,1v3.9c0,0,0,.2,0,.2s-.1,0-.2,0h-1.2Z"/>
        <path class="cls-2" d="M520.8,623.1c0,0-.2,0-.2,0s0-.1,0-.2v-1c0,0,0-.2,0-.2,0,0,.1,0,.2,0h1.3c.1,0,.2,0,.3,0,0,0,0,.1,0,.2v1c0,0,0,.2,0,.2,0,0-.1,0-.3,0h-1.3ZM520.8,631.6c0,0-.2,0-.2,0,0,0,0-.1,0-.2v-6.6c0,0,0-.2,0-.2,0,0,.1,0,.2,0h1.2c.1,0,.2,0,.2,0s0,.1,0,.2v6.6c0,0,0,.2,0,.2s-.1,0-.2,0h-1.2Z"/>
        <path class="cls-2" d="M524.8,631.6c0,0-.2,0-.2,0,0,0,0-.1,0-.2v-6.6c0,0,0-.2,0-.2,0,0,.1,0,.2,0h1.1c0,0,.2,0,.2,0,0,0,0,.1,0,.2v.6c.2-.3.6-.5.9-.7.4-.2.8-.3,1.4-.3s1.1.1,1.5.4.7.6,1,1.1.3,1,.3,1.7v3.9c0,0,0,.2,0,.2s-.1,0-.2,0h-1.2c0,0-.2,0-.2,0s0-.1,0-.2v-3.8c0-.5-.1-1-.4-1.3s-.7-.5-1.2-.5-.9.2-1.2.5-.4.7-.4,1.3v3.8c0,0,0,.2,0,.2,0,0-.1,0-.2,0h-1.2Z"/>
        <path class="cls-2" d="M538.7,631.6c0,0-.2,0-.2,0s0-.1,0-.2v-7.7h-2.6c0,0-.2,0-.2,0s0-.1,0-.2v-1c0-.1,0-.2,0-.3s.1,0,.2,0h7.1c.1,0,.2,0,.3,0s0,.1,0,.3v1c0,0,0,.2,0,.2s-.1,0-.3,0h-2.6v7.7c0,0,0,.2,0,.2s-.1,0-.3,0h-1.3Z"/>
        <path class="cls-2" d="M546.5,631.8c-.7,0-1.4-.1-1.9-.4-.5-.3-.9-.6-1.2-1.1-.3-.5-.4-1-.5-1.7,0-.2,0-.4,0-.6s0-.4,0-.6c0-.6.2-1.2.5-1.7.3-.5.7-.8,1.2-1.1.5-.3,1.1-.4,1.9-.4s1.3.1,1.9.4c.5.3.9.6,1.2,1.1.3.5.4,1,.5,1.7,0,.2,0,.4,0,.6s0,.4,0,.6c0,.6-.2,1.2-.5,1.7-.3.5-.7.8-1.2,1.1-.5.3-1.1.4-1.9.4ZM546.5,630.4c.5,0,.9-.2,1.1-.5s.4-.8.4-1.4c0-.1,0-.3,0-.5s0-.4,0-.5c0-.6-.2-1.1-.4-1.4-.3-.3-.7-.5-1.1-.5s-.9.2-1.1.5c-.3.3-.4.8-.4,1.4,0,.1,0,.3,0,.5s0,.4,0,.5c0,.6.2,1.1.4,1.4s.7.5,1.1.5Z"/>
        <path class="cls-2" d="M554.8,631.6c-.6,0-1,0-1.4-.3s-.7-.5-.9-.9c-.2-.4-.3-.9-.3-1.4v-3.2h-1.1c0,0-.2,0-.2,0,0,0,0-.1,0-.3v-.8c0,0,0-.2,0-.2,0,0,.1,0,.2,0h1.1v-2.3c0,0,0-.2,0-.2s.1,0,.2,0h1.1c0,0,.2,0,.2,0s0,.1,0,.2v2.3h1.8c0,0,.2,0,.2,0s0,.1,0,.2v.8c0,.1,0,.2,0,.3s-.1,0-.2,0h-1.8v3c0,.4,0,.7.2.9.1.2.4.3.7.3h1c0,0,.2,0,.2,0,0,0,0,.1,0,.2v.9c0,0,0,.2,0,.2s-.1,0-.2,0h-1.1Z"/>
        <path class="cls-2" d="M559.6,631.8c-.5,0-.9,0-1.3-.3-.4-.2-.7-.4-.9-.8s-.3-.7-.3-1.1c0-.7.3-1.2.8-1.6.5-.4,1.2-.6,2.1-.8l1.9-.3v-.3c0-.4,0-.7-.3-.9s-.5-.3-1-.3-.6,0-.8.2c-.2.1-.4.3-.5.5,0,.1-.2.2-.3.2h-1.1c-.1,0-.2,0-.2,0,0,0,0-.1,0-.2,0-.1,0-.3.2-.5.1-.2.3-.4.5-.6.2-.2.5-.4.9-.5s.8-.2,1.4-.2,1.1,0,1.5.2.7.3,1,.6.4.5.5.9c.1.3.2.7.2,1v4.4c0,0,0,.2,0,.2,0,0-.1,0-.2,0h-1.1c-.1,0-.2,0-.2,0s0-.1,0-.2v-.5c-.1.2-.3.3-.5.5-.2.2-.5.3-.7.4-.3,0-.6.1-1,.1ZM560.1,630.4c.3,0,.6,0,.9-.2.3-.1.5-.4.6-.7.2-.3.2-.7.2-1.1v-.3l-1.4.2c-.6,0-1,.2-1.2.4s-.4.4-.4.7,0,.4.2.5.3.3.5.3c.2,0,.4.1.6.1Z"/>
        <path class="cls-2" d="M565.8,631.6c0,0-.2,0-.2,0s0-.1,0-.2v-9.3c0,0,0-.2,0-.2s.1,0,.2,0h1.2c0,0,.2,0,.2,0s0,.1,0,.2v9.3c0,0,0,.2,0,.2s-.1,0-.2,0h-1.2Z"/>
      </g>
    </g>
  </g>
  <g>
    <path class="cls-4" d="M410.9,446.9c-1.1,0-2.1-.1-2.9-.4-.8-.3-1.6-.6-2.1-1.1-.6-.5-1-1-1.3-1.6-.3-.6-.4-1.3-.4-2.1s.2-1.7.7-2.4,1-1.2,1.7-1.5c-.6-.4-1-.8-1.3-1.4-.3-.6-.5-1.2-.5-2s.2-1.7.7-2.4c.5-.7,1.1-1.3,2.1-1.7.9-.4,2.1-.6,3.4-.6s2.5.2,3.4.6c.9.4,1.6,1,2,1.7.5.7.7,1.5.7,2.4s-.2,1.4-.5,2c-.3.6-.7,1-1.3,1.4.7.3,1.3.9,1.7,1.5.4.7.6,1.5.6,2.4s-.3,1.9-.8,2.6c-.5.8-1.3,1.4-2.3,1.8-1,.5-2.3.7-3.7.7ZM410.9,444.2c.6,0,1.1,0,1.5-.3.5-.2.8-.5,1.1-.8.3-.4.4-.8.4-1.3s-.1-.9-.4-1.3c-.3-.4-.6-.6-1.1-.8-.5-.2-1-.3-1.5-.3s-1.1,0-1.5.3-.8.5-1.1.8c-.3.4-.4.8-.4,1.3s.1.9.4,1.3c.3.4.6.6,1.1.8.5.2,1,.3,1.5.3ZM410.9,436.7c.5,0,.9-.1,1.3-.3s.7-.4,1-.7.4-.7.4-1.1-.1-.8-.3-1.1c-.2-.3-.5-.5-.9-.7-.4-.2-.8-.3-1.4-.3s-1,0-1.4.3c-.4.2-.7.4-.9.7-.2.3-.3.7-.3,1.1s.1.8.3,1.1c.2.3.5.6.9.7.4.2.9.3,1.4.3Z"/>
    <path class="cls-4" d="M420.4,446.7c-.2,0-.3,0-.4-.2-.1-.1-.2-.3-.2-.4v-1.4c0-.1,0-.3.1-.5s.2-.4.5-.6l3.1-3.1c1.2-.9,2.1-1.6,2.8-2.3.7-.6,1.3-1.2,1.6-1.7.3-.5.5-1,.5-1.5s-.2-1.1-.5-1.5c-.3-.4-.9-.6-1.7-.6s-.9.1-1.3.3c-.3.2-.6.5-.8.8-.2.3-.3.7-.4,1.1,0,.2-.1.3-.3.4-.2,0-.3.1-.5.1h-2.5c-.2,0-.3,0-.4-.2,0-.1-.1-.2-.1-.3,0-.7.2-1.4.5-2.1.3-.6.7-1.2,1.2-1.7.5-.5,1.2-.9,1.9-1.2s1.6-.4,2.6-.4,2.4.2,3.3.7,1.6,1,2,1.8c.5.8.7,1.6.7,2.6s-.2,1.5-.5,2.1-.8,1.3-1.3,1.9c-.6.6-1.3,1.2-2.1,1.8l-2.8,2.8h6.5c.2,0,.3,0,.4.2.1.1.2.3.2.4v2c0,.2,0,.3-.2.4-.1.1-.3.2-.4.2h-11.8Z"/>
    <path class="cls-4" d="M443.7,438.4c-1.1,0-1.9-.3-2.6-.8-.6-.6-1-1.3-1-2.3,0-.4,0-.8,0-1.1,0-.3,0-.7,0-1.1,0-1,.4-1.7,1-2.3.6-.6,1.5-.9,2.6-.9s2,.3,2.6.9.9,1.4,1,2.3c0,.4,0,.8,0,1.1s0,.7,0,1.1c0,1-.4,1.7-1,2.3-.6.6-1.5.8-2.6.8ZM441.8,446.7c-.3,0-.5-.2-.5-.5s0-.2,0-.3l11.7-15.4c.1-.1.2-.3.3-.3.1,0,.3-.1.5-.1h1.5c.3,0,.5.2.5.5s0,.2,0,.3l-11.7,15.4c-.1.1-.2.3-.3.3-.1,0-.3.1-.5.1h-1.5ZM443.7,436.5c.3,0,.5,0,.7-.2.2-.1.3-.3.4-.5,0-.2.1-.4.2-.6,0-.4,0-.7,0-1s0-.6,0-1c0-.3-.1-.6-.3-.9-.2-.3-.5-.4-1-.4s-.8.1-.9.4c-.2.3-.3.6-.3.9,0,.3,0,.7,0,1s0,.6,0,1c0,.2,0,.4.2.6,0,.2.2.4.4.5.2.1.4.2.7.2ZM453.5,446.8c-1.1,0-1.9-.3-2.6-.9-.6-.6-1-1.3-1-2.3,0-.4,0-.8,0-1.1,0-.3,0-.7,0-1.1,0-1,.4-1.7,1-2.3.6-.6,1.5-.9,2.6-.9s2,.3,2.6.9.9,1.4,1,2.3c0,.4,0,.8,0,1.1s0,.7,0,1.1c0,1-.4,1.7-1,2.3-.6.6-1.5.9-2.6.9ZM453.5,444.8c.3,0,.5,0,.7-.2.2-.1.3-.3.4-.5,0-.2.1-.4.2-.6,0-.4,0-.7,0-1s0-.6,0-1c0-.3-.1-.6-.3-.9-.2-.3-.5-.4-1-.4s-.8.1-.9.4c-.2.3-.3.6-.3.9,0,.4,0,.7,0,1s0,.6,0,1c0,.2,0,.4.2.6s.2.4.4.5c.2.1.4.2.7.2Z"/>
  </g>
  <g>
    <path class="cls-4" d="M480.7,234c-.2,0-.3,0-.4-.2-.1-.1-.2-.3-.2-.4v-11.8l-3.4,2.6c-.1.1-.3.2-.4.1-.2,0-.3-.1-.4-.3l-1.2-1.5c0-.1-.1-.3-.1-.5s.1-.3.2-.4l5.4-4.2c0,0,.2-.1.3-.1,0,0,.2,0,.3,0h2.5c.2,0,.3,0,.4.2.1.1.2.3.2.4v15.4c0,.2,0,.3-.2.4-.1.1-.2.2-.4.2h-2.6Z"/>
    <path class="cls-4" d="M493.4,234.2c-1.1,0-2.1-.1-2.9-.4-.8-.3-1.6-.6-2.1-1.1-.6-.5-1-1-1.3-1.6-.3-.6-.4-1.3-.4-2.1s.2-1.7.7-2.4,1-1.2,1.7-1.5c-.6-.4-1-.8-1.3-1.4-.3-.6-.5-1.2-.5-2s.2-1.7.7-2.4c.5-.7,1.1-1.3,2.1-1.7.9-.4,2.1-.6,3.4-.6s2.5.2,3.4.6c.9.4,1.6,1,2,1.7.5.7.7,1.5.7,2.4s-.2,1.4-.5,2c-.3.6-.7,1-1.3,1.4.7.3,1.3.9,1.7,1.5.4.7.6,1.5.6,2.4s-.3,1.9-.8,2.6c-.5.8-1.3,1.4-2.3,1.8-1,.5-2.3.7-3.7.7ZM493.4,231.5c.6,0,1.1,0,1.5-.3.5-.2.8-.5,1.1-.8.3-.4.4-.8.4-1.3s-.1-.9-.4-1.3c-.3-.4-.6-.6-1.1-.8-.5-.2-1-.3-1.5-.3s-1.1,0-1.5.3-.8.5-1.1.8c-.3.4-.4.8-.4,1.3s.1.9.4,1.3c.3.4.6.6,1.1.8.5.2,1,.3,1.5.3ZM493.4,224.1c.5,0,.9-.1,1.3-.3s.7-.4,1-.7.4-.7.4-1.1-.1-.8-.3-1.1c-.2-.3-.5-.5-.9-.7-.4-.2-.8-.3-1.4-.3s-1,0-1.4.3c-.4.2-.7.4-.9.7-.2.3-.3.7-.3,1.1s.1.8.3,1.1c.2.3.5.6.9.7.4.2.9.3,1.4.3Z"/>
    <path class="cls-4" d="M511.1,225.8c-1.1,0-1.9-.3-2.6-.8-.6-.6-1-1.3-1-2.3,0-.4,0-.8,0-1.1,0-.3,0-.7,0-1.1,0-1,.4-1.7,1-2.3.6-.6,1.5-.9,2.6-.9s2,.3,2.6.9.9,1.4,1,2.3c0,.4,0,.8,0,1.1s0,.7,0,1.1c0,1-.4,1.7-1,2.3-.6.6-1.5.8-2.6.8ZM509.2,234c-.3,0-.5-.2-.5-.5s0-.2,0-.3l11.7-15.4c.1-.1.2-.3.3-.3.1,0,.3-.1.5-.1h1.5c.3,0,.5.2.5.5s0,.2,0,.3l-11.7,15.4c-.1.1-.2.3-.3.3-.1,0-.3.1-.5.1h-1.5ZM511.1,223.8c.3,0,.5,0,.7-.2.2-.1.3-.3.4-.5,0-.2.1-.4.2-.6,0-.4,0-.7,0-1s0-.6,0-1c0-.3-.1-.6-.3-.9-.2-.3-.5-.4-1-.4s-.8.1-.9.4c-.2.3-.3.6-.3.9,0,.3,0,.7,0,1s0,.6,0,1c0,.2,0,.4.2.6,0,.2.2.4.4.5.2.1.4.2.7.2ZM520.9,234.1c-1.1,0-1.9-.3-2.6-.9-.6-.6-1-1.3-1-2.3,0-.4,0-.8,0-1.1,0-.3,0-.7,0-1.1,0-1,.4-1.7,1-2.3.6-.6,1.5-.9,2.6-.9s2,.3,2.6.9.9,1.4,1,2.3c0,.4,0,.8,0,1.1s0,.7,0,1.1c0,1-.4,1.7-1,2.3-.6.6-1.5.9-2.6.9ZM520.9,232.2c.3,0,.5,0,.7-.2.2-.1.3-.3.4-.5,0-.2.1-.4.2-.6,0-.4,0-.7,0-1s0-.6,0-1c0-.3-.1-.6-.3-.9-.2-.3-.5-.4-1-.4s-.8.1-.9.4c-.2.3-.3.6-.3.9,0,.4,0,.7,0,1s0,.6,0,1c0,.2,0,.4.2.6s.2.4.4.5c.2.1.4.2.7.2Z"/>
  </g>
</svg>