<?xml version="1.0" encoding="UTF-8"?>
<svg id="Layer_1" data-name="Layer 1" xmlns="http://www.w3.org/2000/svg" width="860.97" height="700" viewBox="0 0 860.97 700">
  <defs>
    <style>
      .cls-1 {
        fill: #0078b4;
      }

      .cls-2 {
        fill: #fff;
      }

      .cls-3 {
        fill: #d1628e;
      }
    </style>
  </defs>
  <g>
    <path class="cls-1" d="m222.07,281.07c-15.96,55.67-9.29,114.22,18.79,164.87,28.08,50.65,74.2,87.34,129.87,103.3,55.67,15.96,114.22,9.29,164.87-18.79,50.65-28.08,87.34-74.2,103.3-129.87,15.82-55.19,9.4-113.21-18.06-163.56l-191.85,106.34V124.02c-37.63.22-70.59,8.88-103.61,27.18-50.65,28.08-87.34,74.2-103.3,129.87Z"/>
    <path class="cls-3" d="m541.03,153.16c-32.42-19.1-69.1-28.9-109.05-29.13v214.26l187.4-103.88c-19.58-34.83-45.93-62.16-78.35-81.25Z"/>
  </g>
  <g>
    <path class="cls-2" d="m495.16,222.47c-.16,0-.3-.06-.42-.17-.12-.11-.18-.26-.18-.43v-11.93l-3.46,2.66c-.14.11-.29.15-.44.12-.15-.03-.29-.12-.4-.26l-1.2-1.56c-.1-.14-.13-.3-.11-.46.02-.16.11-.29.25-.38l5.47-4.22c.1-.06.19-.11.28-.13.09-.02.19-.04.3-.04h2.54c.16,0,.3.06.41.17.11.11.17.26.17.43v15.6c0,.18-.06.32-.17.43s-.25.17-.41.17h-2.64Z"/>
    <path class="cls-2" d="m503.43,222.47c-.14,0-.26-.05-.36-.16-.1-.1-.14-.23-.14-.37,0-.06.02-.14.05-.22l5.66-12.84h-7.37c-.16,0-.3-.06-.42-.17-.12-.11-.18-.25-.18-.41v-2.04c0-.18.06-.32.18-.43.12-.11.26-.17.42-.17h10.87c.19,0,.34.06.44.17.1.11.16.26.16.43v1.8c0,.24-.02.44-.06.59-.04.15-.1.31-.18.47l-5.64,12.77c-.05.1-.13.22-.25.36-.12.14-.31.22-.56.22h-2.62Z"/>
    <path class="cls-2" d="m523.31,214.14c-1.09,0-1.95-.28-2.58-.85-.63-.57-.98-1.33-1.04-2.29-.03-.42-.04-.78-.04-1.09,0-.31.02-.69.04-1.14.05-.98.38-1.76,1-2.34.62-.58,1.49-.88,2.63-.88s2.03.29,2.64.88c.61.58.94,1.36.98,2.34.03.45.05.83.05,1.14s-.02.68-.05,1.09c-.05.96-.39,1.72-1.03,2.29-.64.57-1.5.85-2.59.85Zm-1.94,8.33c-.35,0-.53-.16-.53-.48,0-.1.03-.18.1-.26l11.86-15.6c.11-.14.22-.26.34-.34s.27-.12.48-.12h1.49c.35,0,.53.16.53.48,0,.1-.03.18-.1.26l-11.86,15.6c-.11.14-.22.26-.32.34-.1.08-.27.12-.49.12h-1.49Zm1.94-10.27c.3,0,.54-.06.72-.19.18-.13.31-.3.4-.5s.14-.42.16-.62c.03-.38.05-.72.05-1.02s-.02-.62-.05-.97c-.02-.34-.12-.64-.31-.92-.19-.28-.51-.42-.96-.42s-.76.14-.95.42c-.18.28-.29.59-.32.92-.02.35-.02.68-.02.97s0,.64.02,1.02c.03.21.09.42.17.62s.21.38.38.5.42.19.72.19Zm9.86,10.39c-1.09,0-1.95-.29-2.58-.86s-.98-1.34-1.04-2.3c-.03-.42-.04-.78-.04-1.1,0-.32.02-.7.04-1.15.05-.96.38-1.74,1-2.33s1.49-.89,2.63-.89,2.01.3,2.63.89.95,1.37,1,2.33c.03.45.05.83.05,1.15s-.02.69-.05,1.1c-.05.96-.4,1.73-1.04,2.3-.65.58-1.51.86-2.58.86Zm0-1.97c.3,0,.54-.06.72-.19.18-.13.31-.3.4-.5s.14-.42.16-.65c.03-.37.05-.7.05-1s-.02-.63-.05-1c-.02-.34-.12-.64-.31-.91-.19-.27-.51-.41-.96-.41s-.76.14-.95.41c-.18.27-.29.58-.32.91-.02.37-.02.7-.02,1s0,.63.02,1c.03.22.08.44.16.65.07.21.2.38.38.5.18.13.43.19.73.19Z"/>
  </g>
  <g>
    <path class="cls-2" d="m410.57,449.92c-1.12,0-2.11-.13-2.96-.4-.86-.26-1.57-.63-2.15-1.1s-1.01-1.02-1.3-1.66-.43-1.32-.43-2.08c0-.91.22-1.7.67-2.38.45-.67,1.02-1.19,1.7-1.56-.56-.37-1-.84-1.31-1.4-.31-.57-.47-1.23-.47-1.98,0-.91.23-1.72.7-2.42.46-.7,1.16-1.26,2.08-1.68.92-.42,2.08-.62,3.47-.62s2.52.2,3.43.61,1.6.96,2.06,1.67c.46.7.7,1.51.7,2.42,0,.75-.15,1.42-.46,1.99-.3.58-.74,1.05-1.3,1.42.74.35,1.32.87,1.75,1.56.43.69.65,1.49.65,2.4,0,.99-.26,1.88-.77,2.66-.51.78-1.28,1.4-2.3,1.86-1.02.46-2.28.68-3.77.68Zm0-2.76c.56,0,1.07-.1,1.54-.3.46-.2.83-.48,1.09-.85s.4-.8.4-1.3-.13-.95-.4-1.31c-.26-.36-.63-.64-1.09-.84-.46-.2-.98-.3-1.54-.3s-1.09.1-1.55.3c-.46.2-.82.48-1.09.84-.27.36-.41.8-.41,1.31s.14.93.41,1.3c.27.37.64.65,1.09.85.46.2.97.3,1.55.3Zm0-7.51c.5-.02.94-.11,1.34-.29.4-.18.72-.42.96-.73.24-.31.36-.68.36-1.09s-.12-.8-.35-1.12c-.23-.31-.55-.56-.95-.73-.4-.18-.86-.26-1.37-.26s-.97.09-1.38.26c-.41.18-.72.42-.95.73-.22.31-.34.68-.34,1.12s.11.8.34,1.12c.22.31.54.56.95.73.41.18.87.26,1.38.26Z"/>
    <path class="cls-2" d="m426.19,449.92c-1.18,0-2.2-.14-3.05-.43-.85-.29-1.54-.66-2.09-1.1s-.95-.94-1.22-1.48c-.27-.54-.42-1.05-.43-1.55,0-.14.05-.26.14-.36.1-.1.22-.14.36-.14h2.64c.18,0,.32.04.43.11.11.07.22.2.31.37.13.37.34.66.62.89.29.22.63.38,1.02.47.39.09.81.13,1.26.13.9,0,1.6-.21,2.11-.62.51-.42.77-1,.77-1.75s-.24-1.32-.72-1.66-1.16-.5-2.04-.5h-2.57c-.16,0-.3-.06-.41-.17s-.17-.25-.17-.41v-1.18c0-.19.04-.35.11-.48s.15-.22.23-.29l4.13-3.79h-6.77c-.18,0-.32-.06-.43-.17-.11-.11-.17-.25-.17-.41v-1.92c0-.18.06-.32.17-.43.11-.11.26-.17.43-.17h10.66c.18,0,.32.06.43.17.11.11.17.26.17.43v1.73c0,.18-.03.32-.1.44-.06.12-.14.21-.24.28l-3.91,3.86.24.02c.94.1,1.78.33,2.52.7.74.37,1.32.89,1.74,1.57s.64,1.54.64,2.58-.3,2.02-.89,2.81-1.4,1.39-2.42,1.81c-1.02.42-2.19.64-3.5.64Z"/>
    <path class="cls-2" d="m443.93,441.35c-1.09,0-1.95-.28-2.58-.85-.63-.57-.98-1.33-1.04-2.29-.03-.42-.04-.78-.04-1.09,0-.31.02-.69.04-1.14.05-.98.38-1.76,1-2.34.62-.58,1.49-.88,2.63-.88s2.03.29,2.64.88c.61.58.94,1.36.98,2.34.03.45.05.83.05,1.14s-.02.68-.05,1.09c-.05.96-.39,1.72-1.03,2.29-.64.57-1.5.85-2.59.85Zm-1.94,8.33c-.35,0-.53-.16-.53-.48,0-.1.03-.18.1-.26l11.86-15.6c.11-.14.22-.26.34-.34s.27-.12.48-.12h1.49c.35,0,.53.16.53.48,0,.1-.03.18-.1.26l-11.86,15.6c-.11.14-.22.26-.32.34-.1.08-.27.12-.49.12h-1.49Zm1.94-10.27c.3,0,.54-.06.72-.19.18-.13.31-.3.4-.5s.14-.42.16-.62c.03-.38.05-.72.05-1.02s-.02-.62-.05-.97c-.02-.34-.12-.64-.31-.92-.19-.28-.51-.42-.96-.42s-.76.14-.95.42c-.18.28-.29.59-.32.92-.02.35-.02.68-.02.97s0,.64.02,1.02c.03.21.09.42.17.62s.21.38.38.5.42.19.72.19Zm9.86,10.39c-1.09,0-1.95-.29-2.58-.86s-.98-1.34-1.04-2.3c-.03-.42-.04-.78-.04-1.1,0-.32.02-.7.04-1.15.05-.96.38-1.74,1-2.33s1.49-.89,2.63-.89,2.01.3,2.63.89.95,1.37,1,2.33c.03.45.05.83.05,1.15s-.02.69-.05,1.1c-.05.96-.4,1.73-1.04,2.3-.65.58-1.51.86-2.58.86Zm0-1.97c.3,0,.54-.06.72-.19.18-.13.31-.3.4-.5s.14-.42.16-.65c.03-.37.05-.7.05-1s-.02-.63-.05-1c-.02-.34-.12-.64-.31-.91-.19-.27-.51-.41-.96-.41s-.76.14-.95.41c-.18.27-.29.58-.32.91-.02.37-.02.7-.02,1s0,.63.02,1c.03.22.08.44.16.65.07.21.2.38.38.5.18.13.43.19.73.19Z"/>
  </g>
  <g>
    <path d="m338.39,74.56c-.34,0-.61-.1-.82-.29-.2-.19-.33-.43-.37-.7l-3.65-20.51s-.03-.08-.03-.13v-.1c0-.17.06-.33.19-.46s.29-.21.48-.21h3.36c.55,0,.86.22.93.67l2.4,13.54,2.59-8.42c.06-.17.17-.35.32-.54.15-.19.39-.29.74-.29h2.02c.34,0,.59.1.74.29.15.19.25.37.29.54l2.62,8.38,2.37-13.5c.06-.45.38-.67.96-.67h3.36c.19,0,.35.07.48.21.13.14.19.29.19.46v.1s-.01.09-.03.13l-3.65,20.51c-.04.28-.17.51-.37.7-.2.19-.47.29-.82.29h-2.59c-.34,0-.6-.09-.78-.27-.18-.18-.3-.37-.37-.56l-3.42-9.92-3.39,9.92c-.06.19-.19.38-.37.56s-.45.27-.82.27h-2.56Z"/>
    <path d="m361.88,74.56c-.23,0-.43-.07-.58-.22-.15-.15-.22-.34-.22-.58v-20.8c0-.23.07-.43.22-.58.15-.15.34-.22.58-.22h8.74c1.73,0,3.23.27,4.5.8s2.26,1.34,2.98,2.42,1.07,2.42,1.07,4.02-.36,2.96-1.07,4.02c-.71,1.06-1.71,1.84-2.98,2.35s-2.77.77-4.5.77h-4.29v7.23c0,.24-.08.43-.22.58-.15.15-.34.22-.58.22h-3.65Zm4.35-12h4.22c1.09,0,1.94-.27,2.54-.8.61-.53.91-1.33.91-2.4,0-.94-.27-1.71-.82-2.3-.54-.6-1.42-.9-2.64-.9h-4.22v6.4Z"/>
    <path d="m393.56,74.56c-.32,0-.56-.08-.72-.24s-.29-.35-.4-.56l-6.02-14.85c-.04-.08-.06-.18-.06-.29,0-.19.07-.36.21-.5s.3-.21.5-.21h3.1c.28,0,.49.08.62.22.14.15.23.29.27.42l3.94,10.56,3.94-10.56c.06-.13.17-.27.3-.42.14-.15.34-.22.59-.22h3.1c.19,0,.36.07.5.21.14.14.21.3.21.5,0,.11-.01.2-.03.29l-6.05,14.85c-.09.21-.21.4-.38.56-.17.16-.42.24-.74.24h-2.88Z"/>
    <path d="m412.37,74.88c-1.32,0-2.46-.16-3.41-.46-.95-.31-1.72-.69-2.3-1.14-.59-.45-1.02-.9-1.31-1.36s-.44-.85-.46-1.17c-.02-.23.05-.43.22-.58s.34-.22.51-.22h3.1c.06,0,.13.01.19.03.06.02.13.08.19.16.28.19.57.41.86.66s.65.45,1.04.62.89.26,1.49.26c.7,0,1.3-.14,1.79-.43.49-.29.74-.7.74-1.23,0-.38-.11-.7-.34-.96-.22-.26-.65-.49-1.26-.7-.62-.21-1.54-.45-2.75-.7-1.15-.26-2.13-.6-2.94-1.02s-1.42-.96-1.82-1.62c-.41-.65-.61-1.43-.61-2.35,0-.83.26-1.63.78-2.4.52-.77,1.3-1.4,2.32-1.9,1.02-.5,2.3-.75,3.84-.75,1.17,0,2.2.14,3.09.43.88.29,1.63.65,2.22,1.09s1.05.88,1.36,1.34c.31.46.47.86.5,1.2.02.21-.04.39-.19.54s-.32.22-.51.22h-2.85c-.11,0-.2-.02-.29-.05-.09-.03-.16-.08-.22-.14-.26-.17-.52-.37-.78-.59-.27-.22-.58-.42-.94-.59-.36-.17-.83-.26-1.41-.26-.7,0-1.24.16-1.62.46-.37.31-.56.7-.56,1.17,0,.3.1.58.29.83.19.26.59.49,1.18.7.6.21,1.5.44,2.72.67,1.45.26,2.6.64,3.46,1.15s1.47,1.1,1.84,1.78c.37.67.56,1.39.56,2.16,0,1-.3,1.89-.9,2.67-.6.78-1.47,1.39-2.61,1.82-1.14.44-2.54.66-4.21.66Z"/>
    <path d="m428.47,74.56c-.19,0-.35-.07-.48-.21-.13-.14-.19-.29-.19-.46,0-.11.01-.2.03-.29l7.62-20.58c.06-.23.19-.44.38-.61s.46-.26.8-.26h4.1c.34,0,.61.08.8.26.19.17.32.37.38.61l7.62,20.58c.02.09.03.18.03.29,0,.17-.06.33-.19.46-.13.14-.29.21-.48.21h-3.33c-.32,0-.55-.07-.7-.22-.15-.15-.25-.29-.29-.42l-1.38-3.58h-9.02l-1.38,3.58c-.04.13-.14.27-.29.42s-.38.22-.7.22h-3.33Zm6.88-8.35h6.62l-3.3-9.22-3.33,9.22Z"/>
    <path d="m457.94,74.88c-1.07,0-2.02-.18-2.85-.53-.83-.35-1.54-.86-2.11-1.54-.58-.67-1.01-1.47-1.31-2.4s-.48-1.96-.54-3.09c-.02-.41-.03-.77-.03-1.1s.01-.69.03-1.07c.04-1.11.22-2.12.53-3.04.31-.92.75-1.71,1.31-2.38s1.27-1.19,2.11-1.57,1.8-.56,2.86-.56,2.06.19,2.85.56,1.44.86,1.95,1.46v-6.98c0-.23.07-.43.22-.58.15-.15.34-.22.58-.22h3.3c.21,0,.39.08.54.22.15.15.22.34.22.58v21.12c0,.24-.08.43-.22.58s-.33.22-.54.22h-3.07c-.21,0-.39-.07-.54-.22s-.22-.34-.22-.58v-1.09c-.53.64-1.21,1.17-2.02,1.58-.81.42-1.82.62-3.04.62Zm1.47-3.84c.79,0,1.42-.18,1.9-.54.48-.36.83-.82,1.06-1.38s.35-1.15.37-1.79c.04-.41.06-.81.06-1.22s-.02-.8-.06-1.18c-.02-.6-.15-1.16-.38-1.68-.24-.52-.59-.96-1.07-1.3-.48-.34-1.1-.51-1.87-.51-.81,0-1.45.18-1.92.53-.47.35-.81.82-1.01,1.39-.2.58-.33,1.21-.37,1.89-.06.66-.06,1.32,0,1.98.04.68.17,1.31.37,1.89.2.58.54,1.04,1.01,1.39.47.35,1.11.53,1.92.53Z"/>
    <path d="m472.44,74.56c-.21,0-.4-.07-.54-.22-.15-.15-.22-.34-.22-.58v-15.04c0-.23.08-.43.22-.58s.33-.22.54-.22h2.98c.21,0,.4.08.56.22.16.15.24.34.24.58v1.09c.43-.6,1.02-1.11,1.78-1.54.76-.43,1.66-.65,2.7-.67,2.47-.04,4.17.9,5.09,2.82.49-.83,1.2-1.51,2.13-2.03.93-.52,1.95-.78,3.06-.78s2.11.25,3.01.75c.9.5,1.6,1.27,2.13,2.3.52,1.03.78,2.36.78,3.98v9.12c0,.24-.08.43-.22.58s-.33.22-.54.22h-3.17c-.21,0-.39-.07-.54-.22s-.22-.34-.22-.58v-8.86c0-.87-.13-1.56-.38-2.06-.26-.5-.59-.86-1.01-1.07-.42-.21-.88-.32-1.39-.32-.45,0-.88.11-1.3.32-.42.21-.76.57-1.02,1.07s-.4,1.19-.4,2.06v8.86c0,.24-.08.43-.22.58s-.34.22-.58.22h-3.14c-.24,0-.43-.07-.58-.22s-.22-.34-.22-.58v-8.86c0-.87-.13-1.56-.38-2.06s-.59-.86-1.01-1.07c-.42-.21-.87-.32-1.36-.32-.45,0-.89.11-1.31.34-.43.22-.77.58-1.04,1.07-.27.49-.4,1.16-.4,2.02v8.9c0,.24-.08.43-.22.58s-.33.22-.54.22h-3.23Z"/>
    <path d="m501.43,55.36c-.21,0-.4-.07-.54-.22s-.22-.34-.22-.58v-2.56c0-.23.07-.43.22-.59.15-.16.33-.24.54-.24h3.36c.23,0,.43.08.59.24.16.16.24.36.24.59v2.56c0,.24-.08.43-.24.58-.16.15-.36.22-.59.22h-3.36Zm.1,19.2c-.21,0-.4-.07-.54-.22-.15-.15-.22-.34-.22-.58v-15.04c0-.23.08-.43.22-.58s.33-.22.54-.22h3.2c.23,0,.43.08.58.22.15.15.22.34.22.58v15.04c0,.24-.08.43-.22.58s-.34.22-.58.22h-3.2Z"/>
    <path d="m511.13,74.56c-.21,0-.4-.07-.54-.22-.15-.15-.22-.34-.22-.58v-15.04c0-.23.08-.43.22-.58s.33-.22.54-.22h3.14c.23,0,.43.08.58.22.15.15.22.34.22.58v1.25c.55-.68,1.27-1.25,2.14-1.7.87-.45,1.94-.67,3.2-.67s2.36.28,3.31.85,1.7,1.39,2.24,2.46.82,2.38.82,3.92v8.93c0,.24-.08.43-.24.58-.16.15-.35.22-.56.22h-3.39c-.24,0-.43-.07-.58-.22s-.22-.34-.22-.58v-8.74c0-1.13-.27-2.01-.82-2.64-.54-.63-1.34-.94-2.38-.94s-1.8.32-2.4.94c-.6.63-.9,1.51-.9,2.64v8.74c0,.24-.08.43-.22.58s-.33.22-.54.22h-3.39Z"/>
  </g>
  <g>
    <circle class="cls-1" cx="306.04" cy="625.09" r="11.34"/>
    <g>
      <path d="m333.49,631.62c-.14,0-.25-.04-.33-.12s-.13-.18-.16-.3l-1.67-8.97s0-.05,0-.07,0-.03,0-.04c0-.08.03-.15.09-.21.06-.06.13-.08.2-.08h1.23c.23,0,.36.09.39.28l1.16,6.34,1.26-4.1c.03-.07.08-.15.15-.23.07-.08.18-.12.32-.12h.76c.15,0,.26.04.32.12s.11.16.13.23l1.27,4.09,1.16-6.33c.03-.19.16-.28.39-.28h1.23c.08,0,.14.03.2.08.06.06.08.13.08.21v.04s0,.04-.01.07l-1.67,8.97c-.02.12-.07.22-.15.3s-.2.12-.34.12h-.94c-.14,0-.25-.04-.33-.11-.08-.07-.13-.15-.16-.24l-1.57-4.68-1.57,4.68c-.04.08-.09.16-.17.24-.07.08-.19.11-.34.11h-.94Z"/>
      <path d="m343.64,631.62c-.09,0-.17-.03-.24-.1-.07-.07-.1-.14-.1-.24v-9.11c0-.1.03-.19.1-.25.06-.07.14-.1.24-.1h3.75c.73,0,1.36.11,1.9.34s.96.57,1.26,1.04.45,1.04.45,1.73-.15,1.28-.45,1.73-.72.79-1.26,1.01c-.54.22-1.18.34-1.9.34h-2.09v3.28c0,.09-.03.17-.09.24s-.14.1-.25.1h-1.33Zm1.64-5.17h2.04c.54,0,.96-.13,1.25-.38.29-.26.43-.64.43-1.14,0-.47-.14-.84-.41-1.13-.27-.28-.7-.43-1.27-.43h-2.04v3.08Z"/>
      <path d="m357.59,631.62c-.09,0-.17-.03-.24-.1s-.1-.14-.1-.24v-7.74h-2.59c-.09,0-.17-.03-.24-.1s-.1-.14-.1-.24v-1.04c0-.1.03-.19.1-.25s.14-.1.24-.1h7.14c.1,0,.19.03.25.1s.1.15.1.25v1.04c0,.09-.03.17-.1.24s-.15.1-.25.1h-2.58v7.74c0,.09-.03.17-.1.24s-.15.1-.25.1h-1.29Z"/>
      <path d="m365.33,631.76c-.75,0-1.37-.13-1.88-.39-.51-.26-.9-.63-1.16-1.11-.27-.48-.42-1.03-.46-1.67,0-.17-.01-.37-.01-.62s0-.45.01-.62c.04-.64.19-1.2.47-1.67.28-.47.67-.84,1.18-1.1.51-.26,1.13-.39,1.85-.39s1.35.13,1.86.39c.51.26.9.63,1.18,1.1.28.47.43,1.03.47,1.67,0,.17.01.37.01.62s0,.45-.01.62c-.04.63-.19,1.19-.45,1.67-.27.48-.65.84-1.16,1.11-.51.26-1.14.39-1.88.39Zm0-1.39c.5,0,.88-.16,1.15-.47s.42-.77.45-1.38c0-.14.01-.32.01-.55s0-.41-.01-.55c-.03-.61-.18-1.07-.45-1.38-.27-.31-.65-.47-1.15-.47s-.88.16-1.15.47c-.27.31-.42.77-.45,1.38,0,.14-.01.32-.01.55s0,.41.01.55c.03.61.18,1.07.45,1.38s.65.47,1.15.47Z"/>
      <path d="m373.63,631.62c-.56,0-1.03-.1-1.41-.29s-.67-.49-.85-.88c-.19-.39-.28-.87-.28-1.45v-3.18h-1.11c-.09,0-.17-.03-.24-.1-.07-.07-.1-.15-.1-.25v-.8c0-.09.03-.17.1-.24.06-.07.14-.1.24-.1h1.11v-2.32c0-.09.03-.17.09-.24s.14-.1.25-.1h1.13c.09,0,.17.03.24.1s.1.14.1.24v2.32h1.75c.09,0,.17.03.24.1s.1.14.1.24v.8c0,.1-.03.19-.1.25s-.14.1-.24.1h-1.75v3.04c0,.38.07.68.2.9.14.21.37.32.71.32h.97c.09,0,.17.03.24.1.07.07.1.15.1.24v.87c0,.09-.03.17-.1.24s-.14.1-.24.1h-1.13Z"/>
      <path d="m378.46,631.76c-.49,0-.92-.1-1.32-.29-.39-.19-.7-.45-.93-.77s-.34-.68-.34-1.08c0-.65.27-1.17.8-1.56.53-.39,1.23-.65,2.09-.78l1.92-.28v-.29c0-.39-.1-.7-.29-.91s-.53-.32-1.01-.32c-.34,0-.61.07-.82.2-.21.14-.37.32-.47.54-.08.12-.18.18-.32.18h-1.11c-.1,0-.18-.03-.23-.08-.05-.06-.08-.13-.08-.22,0-.15.07-.33.19-.55.12-.21.29-.42.53-.62.24-.2.55-.37.93-.51s.84-.21,1.39-.21c.59,0,1.08.07,1.49.22s.73.34.97.58.42.53.53.85c.11.33.17.67.17,1.04v4.4c0,.09-.03.17-.1.24-.07.07-.15.1-.24.1h-1.13c-.1,0-.18-.03-.25-.1s-.09-.14-.09-.24v-.55c-.12.17-.29.33-.49.49-.21.16-.46.29-.75.38-.29.1-.64.15-1.04.15Zm.48-1.33c.33,0,.62-.07.89-.21.27-.14.48-.36.63-.65.15-.29.23-.67.23-1.11v-.29l-1.4.22c-.55.08-.96.22-1.23.41s-.41.42-.41.69c0,.21.06.38.19.52s.29.25.48.32c.2.07.4.1.62.1Z"/>
      <path d="m384.69,631.62c-.09,0-.17-.03-.24-.1s-.1-.14-.1-.24v-9.27c0-.09.03-.17.1-.24s.14-.1.24-.1h1.16c.09,0,.17.03.24.1s.1.14.1.24v9.27c0,.09-.03.17-.1.24s-.14.1-.24.1h-1.16Z"/>
    </g>
    <circle class="cls-3" cx="464.21" cy="625.09" r="11.34"/>
    <g>
      <path d="m489.23,631.62c-.08,0-.14-.03-.2-.08s-.09-.13-.09-.21c0-.04,0-.08.03-.13l3.37-9.03c.03-.09.08-.17.16-.25.08-.07.19-.1.33-.1h1.53c.14,0,.25.04.32.1.08.07.13.15.17.25l3.37,9.03s.01.09.01.13c0,.08-.03.15-.08.21-.06.06-.12.08-.2.08h-1.22c-.13,0-.23-.03-.29-.09s-.1-.12-.12-.17l-.66-1.71h-4.16l-.66,1.71c-.02.06-.06.11-.12.17s-.16.09-.29.09h-1.22Zm2.77-3.58h3.18l-1.6-4.33-1.58,4.33Z"/>
      <path d="m501.98,631.76c-.49,0-.91-.08-1.28-.25-.37-.16-.67-.39-.92-.69-.24-.3-.43-.65-.56-1.06-.13-.41-.21-.85-.22-1.34,0-.17-.01-.32-.01-.46s0-.29.01-.45c.02-.47.09-.9.22-1.3s.31-.75.56-1.06.56-.54.92-.71c.37-.17.8-.25,1.28-.25s.93.09,1.28.26c.35.17.64.39.88.67v-3.11c0-.09.03-.17.09-.24s.14-.1.25-.1h1.19c.09,0,.17.03.24.1s.1.14.1.24v9.27c0,.09-.03.17-.1.24s-.14.1-.24.1h-1.11c-.1,0-.18-.03-.25-.1s-.09-.14-.09-.24v-.52c-.23.29-.53.53-.89.71s-.81.28-1.35.28Zm.52-1.5c.39,0,.71-.09.94-.27.23-.18.41-.4.52-.68.11-.28.17-.56.18-.85,0-.17.01-.35.01-.54s0-.37-.01-.54c0-.28-.08-.55-.2-.81s-.3-.47-.53-.64-.54-.25-.91-.25-.7.09-.93.26-.39.4-.5.68c-.1.28-.16.59-.18.92,0,.28,0,.56,0,.84.02.34.08.64.18.92s.27.51.5.68.54.26.93.26Z"/>
      <path d="m508.2,631.62c-.09,0-.17-.03-.24-.1-.07-.07-.1-.14-.1-.24v-6.61c0-.09.03-.17.1-.24.06-.07.14-.1.24-.1h1.09c.09,0,.17.03.24.1s.1.14.1.24v.48c.2-.26.46-.48.79-.67.33-.18.73-.28,1.18-.29,1.06-.02,1.81.4,2.23,1.25.21-.37.53-.67.93-.9.41-.23.86-.34,1.35-.34s.93.11,1.32.34c.4.22.71.56.94,1.01.23.45.34,1.02.34,1.72v4.02c0,.09-.03.17-.1.24s-.14.1-.24.1h-1.15c-.09,0-.17-.03-.24-.1s-.1-.14-.1-.24v-3.91c0-.42-.06-.75-.18-1-.12-.25-.29-.42-.49-.52-.21-.1-.43-.15-.69-.15-.21,0-.41.05-.62.15-.21.1-.37.28-.5.52-.13.25-.2.58-.2,1v3.91c0,.09-.03.17-.1.24s-.14.1-.24.1h-1.15c-.09,0-.17-.03-.24-.1s-.1-.14-.1-.24v-3.91c0-.42-.07-.75-.2-1-.13-.25-.3-.42-.5-.52s-.42-.15-.66-.15c-.21,0-.42.05-.63.16s-.37.28-.5.52c-.13.24-.2.57-.2.99v3.91c0,.09-.03.17-.1.24s-.14.1-.24.1h-1.18Z"/>
      <path d="m520.77,623.13c-.09,0-.17-.03-.24-.1s-.1-.14-.1-.24v-1.01c0-.09.03-.17.1-.24.07-.06.14-.1.24-.1h1.27c.1,0,.19.03.25.1.06.07.1.15.1.24v1.01c0,.09-.03.17-.1.24-.07.07-.15.1-.25.1h-1.27Zm.06,8.48c-.09,0-.17-.03-.24-.1-.07-.07-.1-.14-.1-.24v-6.61c0-.09.03-.17.1-.24.06-.07.14-.1.24-.1h1.16c.1,0,.18.03.25.1s.09.14.09.24v6.61c0,.09-.03.17-.09.24s-.14.1-.25.1h-1.16Z"/>
      <path d="m524.8,631.62c-.09,0-.17-.03-.24-.1-.07-.07-.1-.14-.1-.24v-6.61c0-.09.03-.17.1-.24.06-.07.14-.1.24-.1h1.15c.09,0,.17.03.24.1.06.07.1.14.1.24v.57c.24-.3.55-.55.93-.75.38-.2.85-.3,1.41-.3s1.06.13,1.48.38.74.62.97,1.08.34,1.03.34,1.68v3.93c0,.09-.03.17-.1.24s-.14.1-.24.1h-1.23c-.09,0-.17-.03-.24-.1s-.1-.14-.1-.24v-3.85c0-.54-.13-.97-.4-1.27s-.65-.46-1.16-.46-.87.15-1.16.46-.43.73-.43,1.27v3.85c0,.09-.03.17-.1.24-.07.07-.15.1-.24.1h-1.23Z"/>
      <path d="m538.73,631.62c-.09,0-.17-.03-.24-.1s-.1-.14-.1-.24v-7.74h-2.59c-.09,0-.17-.03-.24-.1s-.1-.14-.1-.24v-1.04c0-.1.03-.19.1-.25s.14-.1.24-.1h7.14c.1,0,.19.03.25.1s.1.15.1.25v1.04c0,.09-.03.17-.1.24s-.15.1-.25.1h-2.58v7.74c0,.09-.03.17-.1.24s-.15.1-.25.1h-1.29Z"/>
      <path d="m546.47,631.76c-.75,0-1.37-.13-1.88-.39-.51-.26-.9-.63-1.16-1.11-.27-.48-.42-1.03-.46-1.67,0-.17-.01-.37-.01-.62s0-.45.01-.62c.04-.64.19-1.2.47-1.67.28-.47.67-.84,1.18-1.1.51-.26,1.13-.39,1.85-.39s1.35.13,1.86.39c.51.26.9.63,1.18,1.1.28.47.43,1.03.47,1.67,0,.17.01.37.01.62s0,.45-.01.62c-.04.63-.19,1.19-.45,1.67-.27.48-.65.84-1.16,1.11-.51.26-1.14.39-1.88.39Zm0-1.39c.5,0,.88-.16,1.15-.47s.42-.77.45-1.38c0-.14.01-.32.01-.55s0-.41-.01-.55c-.03-.61-.18-1.07-.45-1.38-.27-.31-.65-.47-1.15-.47s-.88.16-1.15.47c-.27.31-.42.77-.45,1.38,0,.14-.01.32-.01.55s0,.41.01.55c.03.61.18,1.07.45,1.38s.65.47,1.15.47Z"/>
      <path d="m554.77,631.62c-.56,0-1.03-.1-1.41-.29s-.67-.49-.85-.88c-.19-.39-.28-.87-.28-1.45v-3.18h-1.11c-.09,0-.17-.03-.24-.1-.07-.07-.1-.15-.1-.25v-.8c0-.09.03-.17.1-.24.06-.07.14-.1.24-.1h1.11v-2.32c0-.09.03-.17.09-.24s.14-.1.25-.1h1.13c.09,0,.17.03.24.1s.1.14.1.24v2.32h1.75c.09,0,.17.03.24.1s.1.14.1.24v.8c0,.1-.03.19-.1.25s-.14.1-.24.1h-1.75v3.04c0,.38.07.68.2.9.14.21.37.32.71.32h.97c.09,0,.17.03.24.1.07.07.1.15.1.24v.87c0,.09-.03.17-.1.24s-.14.1-.24.1h-1.13Z"/>
      <path d="m559.6,631.76c-.49,0-.92-.1-1.32-.29-.39-.19-.7-.45-.93-.77s-.34-.68-.34-1.08c0-.65.27-1.17.8-1.56.53-.39,1.23-.65,2.09-.78l1.92-.28v-.29c0-.39-.1-.7-.29-.91s-.53-.32-1.01-.32c-.34,0-.61.07-.82.2-.21.14-.37.32-.47.54-.08.12-.18.18-.32.18h-1.11c-.1,0-.18-.03-.23-.08-.05-.06-.08-.13-.08-.22,0-.15.07-.33.19-.55.12-.21.29-.42.53-.62.24-.2.55-.37.93-.51s.84-.21,1.39-.21c.59,0,1.08.07,1.49.22s.73.34.97.58.42.53.53.85c.11.33.17.67.17,1.04v4.4c0,.09-.03.17-.1.24-.07.07-.15.1-.24.1h-1.13c-.1,0-.18-.03-.25-.1s-.09-.14-.09-.24v-.55c-.12.17-.29.33-.49.49-.21.16-.46.29-.75.38-.29.1-.64.15-1.04.15Zm.48-1.33c.33,0,.62-.07.89-.21.27-.14.48-.36.63-.65.15-.29.23-.67.23-1.11v-.29l-1.4.22c-.55.08-.96.22-1.23.41s-.41.42-.41.69c0,.21.06.38.19.52s.29.25.48.32c.2.07.4.1.62.1Z"/>
      <path d="m565.83,631.62c-.09,0-.17-.03-.24-.1s-.1-.14-.1-.24v-9.27c0-.09.03-.17.1-.24s.14-.1.24-.1h1.16c.09,0,.17.03.24.1s.1.14.1.24v9.27c0,.09-.03.17-.1.24s-.14.1-.24.1h-1.16Z"/>
    </g>
  </g>
</svg>