<?xml version="1.0" encoding="UTF-8"?>
<svg id="Layer_1" data-name="Layer 1" xmlns="http://www.w3.org/2000/svg" width="1200" height="700" viewBox="0 0 1200 700">
  <defs>
    <style>
      .cls-1 {
        fill: #0078b4;
      }

      .cls-2 {
        fill: #fff;
      }

      .cls-3 {
        fill: #d1628e;
      }
    </style>
  </defs>
  <rect class="cls-2" x="-1949.58" y="-106.96" width="3218.25" height="864"/>
  <g>
    <g>
      <path class="cls-1" d="m228.12,151.05c-31.22,17.31-57.96,42.72-78.24,75.16-22.28,35.65-32.9,75.27-32.9,114.42,0,72.12,36.04,142.62,101.71,183.65,35.65,22.28,75.27,32.9,114.42,32.9,71.5,0,141.38-35.44,182.56-100.03l-183.42-114.61-.94-.59V124.56c-37.5.32-72.52,9.49-103.2,26.49Z"/>
      <path class="cls-3" d="m549.64,340.84c0-59.74-24.21-113.8-63.36-152.96-38.71-38.71-92.01-62.8-150.96-63.33v215.18l182.49,114.03c10.87-17.68,18.74-35.04,23.94-53.16,5.36-18.7,7.88-38.22,7.88-59.77Z"/>
    </g>
    <g>
      <path class="cls-1" d="m761.5,151.05c-31.22,17.31-57.96,42.72-78.24,75.16-22.28,35.65-32.9,75.27-32.9,114.42,0,72.12,36.04,142.62,101.71,183.65,35.65,22.28,75.27,32.9,114.42,32.9,71.5,0,141.38-35.44,182.56-100.03l-183.42-114.61-.94-.59V124.56c-37.5.32-72.52,9.49-103.2,26.49Z"/>
      <path class="cls-3" d="m1083.02,340.84c0-59.74-24.21-113.8-63.36-152.96-38.71-38.71-92.01-62.8-150.96-63.33v215.18l182.49,114.03c10.87-17.68,18.74-35.04,23.94-53.16,5.36-18.7,7.88-38.22,7.88-59.77Z"/>
    </g>
  </g>
  <g>
    <path class="cls-2" d="m418.86,279.87c-1.18,0-2.2-.14-3.05-.43-.85-.29-1.54-.66-2.09-1.1-.54-.45-.95-.94-1.22-1.48-.27-.54-.42-1.05-.43-1.55,0-.14.05-.26.14-.36.1-.1.21-.14.36-.14h2.64c.18,0,.32.04.43.11.11.07.21.2.31.37.13.37.34.66.62.89.29.22.63.38,1.02.47.39.09.81.13,1.26.13.9,0,1.6-.21,2.11-.62.51-.42.77-1,.77-1.75s-.24-1.32-.72-1.66-1.16-.5-2.04-.5h-2.57c-.16,0-.3-.06-.41-.17-.11-.11-.17-.25-.17-.41v-1.18c0-.19.04-.35.11-.48s.15-.22.23-.29l4.13-3.79h-6.77c-.18,0-.32-.06-.43-.17-.11-.11-.17-.25-.17-.41v-1.92c0-.18.06-.32.17-.43s.26-.17.43-.17h10.66c.18,0,.32.06.43.17.11.11.17.26.17.43v1.73c0,.18-.03.32-.1.44s-.14.21-.24.28l-3.91,3.86.24.02c.95.1,1.79.33,2.52.7.73.37,1.31.89,1.74,1.57s.64,1.54.64,2.58-.3,2.02-.89,2.81-1.4,1.39-2.42,1.81c-1.02.42-2.19.64-3.5.64Z"/>
    <path class="cls-2" d="m436.09,279.63c-.16,0-.3-.06-.41-.17-.11-.11-.17-.26-.17-.43v-2.88h-7.56c-.16,0-.3-.06-.41-.17-.11-.11-.17-.25-.17-.43v-1.94c0-.11.02-.23.07-.36.05-.13.11-.25.19-.36l7.03-9.65c.21-.27.5-.41.89-.41h3.05c.16,0,.3.06.41.17s.17.26.17.43v9.53h2.14c.19,0,.34.06.44.17s.16.25.16.41v2.02c0,.18-.06.32-.17.43-.11.11-.25.17-.41.17h-2.16v2.88c0,.18-.06.32-.17.43-.11.11-.25.17-.41.17h-2.52Zm-4.99-6.55h4.49v-6.31l-4.49,6.31Z"/>
    <path class="cls-2" d="m452.6,271.3c-1.09,0-1.95-.28-2.58-.85-.63-.57-.98-1.33-1.04-2.29-.03-.42-.04-.78-.04-1.09,0-.31.02-.69.04-1.14.05-.98.38-1.76,1-2.34.62-.58,1.49-.88,2.63-.88s2.03.29,2.64.88c.61.58.94,1.36.98,2.34.03.45.05.83.05,1.14s-.02.68-.05,1.09c-.05.96-.39,1.72-1.03,2.29-.64.57-1.5.85-2.59.85Zm-1.94,8.33c-.35,0-.53-.16-.53-.48,0-.1.03-.18.1-.26l11.86-15.6c.11-.14.22-.26.34-.34.11-.08.27-.12.48-.12h1.49c.35,0,.53.16.53.48,0,.1-.03.18-.1.26l-11.86,15.6c-.11.14-.22.26-.32.34-.1.08-.27.12-.49.12h-1.49Zm1.94-10.27c.3,0,.54-.06.72-.19.18-.13.31-.3.39-.5s.14-.42.16-.62c.03-.38.05-.72.05-1.02s-.02-.62-.05-.97c-.02-.34-.12-.64-.31-.92-.19-.28-.51-.42-.96-.42s-.76.14-.95.42c-.19.28-.29.59-.32.92-.02.35-.03.68-.03.97s0,.64.03,1.02c.03.21.09.42.17.62s.21.38.38.5.42.19.72.19Zm9.86,10.39c-1.09,0-1.95-.29-2.58-.86-.63-.58-.98-1.34-1.04-2.3-.03-.42-.04-.78-.04-1.1,0-.32.02-.7.04-1.15.05-.96.38-1.74,1-2.33.62-.59,1.49-.89,2.63-.89s2.01.3,2.63.89c.62.59.95,1.37,1,2.33.03.45.05.83.05,1.15s-.02.69-.05,1.1c-.05.96-.4,1.73-1.04,2.3-.65.58-1.51.86-2.58.86Zm0-1.97c.3,0,.54-.06.72-.19s.31-.3.4-.5.14-.42.16-.65c.03-.37.05-.7.05-1s-.02-.63-.05-1c-.02-.34-.12-.64-.31-.91-.19-.27-.51-.41-.96-.41s-.76.14-.95.41c-.18.27-.29.58-.32.91-.02.37-.02.7-.02,1s0,.63.02,1c.03.22.08.44.16.65s.2.38.38.5c.18.13.43.19.73.19Z"/>
  </g>
  <g>
    <path class="cls-2" d="m225.98,373.85c-1.41,0-2.63-.26-3.66-.77-1.03-.51-1.83-1.22-2.4-2.12-.57-.9-.85-1.92-.85-3.06,0-.48.07-.96.22-1.44.14-.48.32-.93.53-1.36s.42-.8.64-1.14c.22-.34.4-.61.54-.82l4.32-5.86c.08-.08.18-.18.31-.3.13-.12.3-.18.53-.18h2.69c.14,0,.26.05.36.16.1.1.14.23.14.37,0,.06,0,.12-.02.18s-.04.1-.07.13l-3.31,4.54c.13-.03.28-.06.44-.07.17-.02.32-.02.44-.02.77.03,1.51.19,2.22.48.71.29,1.35.68,1.91,1.19.56.5,1,1.1,1.33,1.79.33.69.49,1.46.49,2.3,0,1.07-.28,2.06-.83,2.98-.55.91-1.34,1.64-2.35,2.2-1.02.55-2.22.83-3.61.83Zm-.05-3.1c.53,0,1.02-.11,1.46-.32.45-.22.81-.54,1.08-.97.27-.43.41-.95.41-1.56s-.14-1.15-.41-1.57-.63-.74-1.08-.96-.94-.32-1.46-.32-1.02.11-1.46.32c-.45.22-.81.54-1.08.96-.27.42-.41.95-.41,1.57s.14,1.13.42,1.56c.28.43.64.76,1.08.97.44.22.92.32,1.45.32Z"/>
    <path class="cls-2" d="m241.29,373.85c-1.41,0-2.63-.26-3.66-.77-1.03-.51-1.83-1.22-2.4-2.12-.57-.9-.85-1.92-.85-3.06,0-.48.07-.96.22-1.44.14-.48.32-.93.53-1.36s.42-.8.64-1.14c.22-.34.4-.61.54-.82l4.32-5.86c.08-.08.18-.18.31-.3.13-.12.3-.18.53-.18h2.69c.14,0,.26.05.36.16.1.1.14.23.14.37,0,.06,0,.12-.02.18s-.04.1-.07.13l-3.31,4.54c.13-.03.28-.06.44-.07.17-.02.32-.02.44-.02.77.03,1.51.19,2.22.48.71.29,1.35.68,1.91,1.19.56.5,1,1.1,1.33,1.79.33.69.49,1.46.49,2.3,0,1.07-.28,2.06-.83,2.98-.55.91-1.34,1.64-2.35,2.2-1.02.55-2.22.83-3.61.83Zm-.05-3.1c.53,0,1.02-.11,1.46-.32.45-.22.81-.54,1.08-.97.27-.43.41-.95.41-1.56s-.14-1.15-.41-1.57-.63-.74-1.08-.96-.94-.32-1.46-.32-1.02.11-1.46.32c-.45.22-.81.54-1.08.96-.27.42-.41.95-.41,1.57s.14,1.13.42,1.56c.28.43.64.76,1.08.97.44.22.92.32,1.45.32Z"/>
    <path class="cls-2" d="m258.71,365.28c-1.09,0-1.95-.28-2.58-.85-.63-.57-.98-1.33-1.04-2.29-.03-.42-.04-.78-.04-1.09,0-.31.02-.69.04-1.14.05-.98.38-1.76,1-2.34.62-.58,1.49-.88,2.63-.88s2.03.29,2.64.88c.61.58.94,1.36.98,2.34.03.45.05.83.05,1.14s-.02.68-.05,1.09c-.05.96-.39,1.72-1.03,2.29-.64.57-1.5.85-2.59.85Zm-1.94,8.33c-.35,0-.53-.16-.53-.48,0-.1.03-.18.1-.26l11.86-15.6c.11-.14.22-.26.34-.34s.27-.12.48-.12h1.49c.35,0,.53.16.53.48,0,.1-.03.18-.1.26l-11.86,15.6c-.11.14-.22.26-.32.34-.1.08-.27.12-.49.12h-1.49Zm1.94-10.27c.3,0,.54-.06.72-.19.18-.13.31-.3.4-.5s.14-.42.16-.62c.03-.38.05-.72.05-1.02s-.02-.62-.05-.97c-.02-.34-.12-.64-.31-.92-.19-.28-.51-.42-.96-.42s-.76.14-.95.42c-.18.28-.29.59-.32.92-.02.35-.02.68-.02.97s0,.64.02,1.02c.03.21.09.42.17.62s.21.38.38.5.42.19.72.19Zm9.86,10.39c-1.09,0-1.95-.29-2.58-.86s-.98-1.34-1.04-2.3c-.03-.42-.04-.78-.04-1.1,0-.32.02-.7.04-1.15.05-.96.38-1.74,1-2.33s1.49-.89,2.63-.89,2.01.3,2.63.89.95,1.37,1,2.33c.03.45.05.83.05,1.15s-.02.69-.05,1.1c-.05.96-.4,1.73-1.04,2.3-.65.58-1.51.86-2.58.86Zm0-1.97c.3,0,.54-.06.72-.19.18-.13.31-.3.4-.5s.14-.42.16-.65c.03-.37.05-.7.05-1s-.02-.63-.05-1c-.02-.34-.12-.64-.31-.91-.19-.27-.51-.41-.96-.41s-.76.14-.95.41c-.18.27-.29.58-.32.91-.02.37-.02.7-.02,1s0,.63.02,1c.03.22.08.44.16.65.07.21.2.38.38.5.18.13.43.19.73.19Z"/>
  </g>
  <g>
    <path class="cls-2" d="m956.88,279.87c-1.18,0-2.2-.14-3.05-.43-.85-.29-1.54-.66-2.09-1.1s-.95-.94-1.22-1.48c-.27-.54-.42-1.05-.43-1.55,0-.14.05-.26.14-.36.1-.1.22-.14.36-.14h2.64c.18,0,.32.04.43.11.11.07.22.2.31.37.13.37.34.66.62.89.29.22.63.38,1.02.47.39.09.81.13,1.26.13.9,0,1.6-.21,2.11-.62.51-.42.77-1,.77-1.75s-.24-1.32-.72-1.66-1.16-.5-2.04-.5h-2.57c-.16,0-.3-.06-.41-.17s-.17-.25-.17-.41v-1.18c0-.19.04-.35.11-.48s.15-.22.23-.29l4.13-3.79h-6.77c-.18,0-.32-.06-.43-.17-.11-.11-.17-.25-.17-.41v-1.92c0-.18.06-.32.17-.43.11-.11.26-.17.43-.17h10.66c.18,0,.32.06.43.17.11.11.17.26.17.43v1.73c0,.18-.03.32-.1.44-.06.12-.14.21-.24.28l-3.91,3.86.24.02c.94.1,1.78.33,2.52.7.74.37,1.32.89,1.74,1.57s.64,1.54.64,2.58-.3,2.02-.89,2.81-1.4,1.39-2.42,1.81c-1.02.42-2.19.64-3.5.64Z"/>
    <path class="cls-2" d="m974.11,279.63c-.16,0-.3-.06-.41-.17-.11-.11-.17-.26-.17-.43v-2.88h-7.56c-.16,0-.3-.06-.41-.17-.11-.11-.17-.25-.17-.43v-1.94c0-.11.02-.23.07-.36.05-.13.11-.25.19-.36l7.03-9.65c.21-.27.5-.41.89-.41h3.05c.16,0,.3.06.41.17.11.11.17.26.17.43v9.53h2.14c.19,0,.34.06.44.17.1.11.16.25.16.41v2.02c0,.18-.06.32-.17.43s-.25.17-.41.17h-2.16v2.88c0,.18-.06.32-.17.43s-.25.17-.41.17h-2.52Zm-4.99-6.55h4.49v-6.31l-4.49,6.31Z"/>
    <path class="cls-2" d="m990.62,271.3c-1.09,0-1.95-.28-2.58-.85-.63-.57-.98-1.33-1.04-2.29-.03-.42-.04-.78-.04-1.09,0-.31.02-.69.04-1.14.05-.98.38-1.76,1-2.34.62-.58,1.49-.88,2.63-.88s2.03.29,2.64.88c.61.58.94,1.36.98,2.34.03.45.05.83.05,1.14s-.02.68-.05,1.09c-.05.96-.39,1.72-1.03,2.29-.64.57-1.5.85-2.59.85Zm-1.94,8.33c-.35,0-.53-.16-.53-.48,0-.1.03-.18.1-.26l11.86-15.6c.11-.14.22-.26.34-.34s.27-.12.48-.12h1.49c.35,0,.53.16.53.48,0,.1-.03.18-.1.26l-11.86,15.6c-.11.14-.22.26-.32.34-.1.08-.27.12-.49.12h-1.49Zm1.94-10.27c.3,0,.54-.06.72-.19.18-.13.31-.3.4-.5s.14-.42.16-.62c.03-.38.05-.72.05-1.02s-.02-.62-.05-.97c-.02-.34-.12-.64-.31-.92-.19-.28-.51-.42-.96-.42s-.76.14-.95.42c-.18.28-.29.59-.32.92-.02.35-.02.68-.02.97s0,.64.02,1.02c.03.21.09.42.17.62s.21.38.38.5.42.19.72.19Zm9.86,10.39c-1.09,0-1.95-.29-2.58-.86s-.98-1.34-1.04-2.3c-.03-.42-.04-.78-.04-1.1,0-.32.02-.7.04-1.15.05-.96.38-1.74,1-2.33s1.49-.89,2.63-.89,2.01.3,2.63.89.95,1.37,1,2.33c.03.45.05.83.05,1.15s-.02.69-.05,1.1c-.05.96-.4,1.73-1.04,2.3-.65.58-1.51.86-2.58.86Zm0-1.97c.3,0,.54-.06.72-.19.18-.13.31-.3.4-.5s.14-.42.16-.65c.03-.37.05-.7.05-1s-.02-.63-.05-1c-.02-.34-.12-.64-.31-.91-.19-.27-.51-.41-.96-.41s-.76.14-.95.41c-.18.27-.29.58-.32.91-.02.37-.02.7-.02,1s0,.63.02,1c.03.22.08.44.16.65.07.21.2.38.38.5.18.13.43.19.73.19Z"/>
  </g>
  <g>
    <path class="cls-2" d="m757.25,373.85c-1.41,0-2.63-.26-3.66-.77-1.03-.51-1.83-1.22-2.4-2.12-.57-.9-.85-1.92-.85-3.06,0-.48.07-.96.22-1.44.14-.48.32-.93.53-1.36s.42-.8.64-1.14c.22-.34.4-.61.54-.82l4.32-5.86c.08-.08.18-.18.31-.3.13-.12.3-.18.53-.18h2.69c.14,0,.26.05.36.16.1.1.14.23.14.37,0,.06,0,.12-.02.18s-.04.1-.07.13l-3.31,4.54c.13-.03.28-.06.44-.07.17-.02.32-.02.44-.02.77.03,1.51.19,2.22.48.71.29,1.35.68,1.91,1.19.56.5,1,1.1,1.33,1.79.33.69.49,1.46.49,2.3,0,1.07-.28,2.06-.83,2.98-.55.91-1.34,1.64-2.35,2.2-1.02.55-2.22.83-3.61.83Zm-.05-3.1c.53,0,1.02-.11,1.46-.32.45-.22.81-.54,1.08-.97.27-.43.41-.95.41-1.56s-.14-1.15-.41-1.57-.63-.74-1.08-.96-.94-.32-1.46-.32-1.02.11-1.46.32c-.45.22-.81.54-1.08.96-.27.42-.41.95-.41,1.57s.14,1.13.42,1.56c.28.43.64.76,1.08.97.44.22.92.32,1.45.32Z"/>
    <path class="cls-2" d="m772.56,373.85c-1.41,0-2.63-.26-3.66-.77-1.03-.51-1.83-1.22-2.4-2.12-.57-.9-.85-1.92-.85-3.06,0-.48.07-.96.22-1.44.14-.48.32-.93.53-1.36s.42-.8.64-1.14c.22-.34.4-.61.54-.82l4.32-5.86c.08-.08.18-.18.31-.3.13-.12.3-.18.53-.18h2.69c.14,0,.26.05.36.16.1.1.14.23.14.37,0,.06,0,.12-.02.18s-.04.1-.07.13l-3.31,4.54c.13-.03.28-.06.44-.07.17-.02.32-.02.44-.02.77.03,1.51.19,2.22.48.71.29,1.35.68,1.91,1.19.56.5,1,1.1,1.33,1.79.33.69.49,1.46.49,2.3,0,1.07-.28,2.06-.83,2.98-.55.91-1.34,1.64-2.35,2.2-1.02.55-2.22.83-3.61.83Zm-.05-3.1c.53,0,1.02-.11,1.46-.32.45-.22.81-.54,1.08-.97.27-.43.41-.95.41-1.56s-.14-1.15-.41-1.57-.63-.74-1.08-.96-.94-.32-1.46-.32-1.02.11-1.46.32c-.45.22-.81.54-1.08.96-.27.42-.41.95-.41,1.57s.14,1.13.42,1.56c.28.43.64.76,1.08.97.44.22.92.32,1.45.32Z"/>
    <path class="cls-2" d="m789.99,365.28c-1.09,0-1.95-.28-2.58-.85-.63-.57-.98-1.33-1.04-2.29-.03-.42-.04-.78-.04-1.09,0-.31.02-.69.04-1.14.05-.98.38-1.76,1-2.34.62-.58,1.49-.88,2.63-.88s2.03.29,2.64.88c.61.58.94,1.36.98,2.34.03.45.05.83.05,1.14s-.02.68-.05,1.09c-.05.96-.39,1.72-1.03,2.29-.64.57-1.5.85-2.59.85Zm-1.94,8.33c-.35,0-.53-.16-.53-.48,0-.1.03-.18.1-.26l11.86-15.6c.11-.14.22-.26.34-.34s.27-.12.48-.12h1.49c.35,0,.53.16.53.48,0,.1-.03.18-.1.26l-11.86,15.6c-.11.14-.22.26-.32.34-.1.08-.27.12-.49.12h-1.49Zm1.94-10.27c.3,0,.54-.06.72-.19.18-.13.31-.3.4-.5s.14-.42.16-.62c.03-.38.05-.72.05-1.02s-.02-.62-.05-.97c-.02-.34-.12-.64-.31-.92-.19-.28-.51-.42-.96-.42s-.76.14-.95.42c-.18.28-.29.59-.32.92-.02.35-.02.68-.02.97s0,.64.02,1.02c.03.21.09.42.17.62s.21.38.38.5.42.19.72.19Zm9.86,10.39c-1.09,0-1.95-.29-2.58-.86s-.98-1.34-1.04-2.3c-.03-.42-.04-.78-.04-1.1,0-.32.02-.7.04-1.15.05-.96.38-1.74,1-2.33s1.49-.89,2.63-.89,2.01.3,2.63.89.95,1.37,1,2.33c.03.45.05.83.05,1.15s-.02.69-.05,1.1c-.05.96-.4,1.73-1.04,2.3-.65.58-1.51.86-2.58.86Zm0-1.97c.3,0,.54-.06.72-.19.18-.13.31-.3.4-.5s.14-.42.16-.65c.03-.37.05-.7.05-1s-.02-.63-.05-1c-.02-.34-.12-.64-.31-.91-.19-.27-.51-.41-.96-.41s-.76.14-.95.41c-.18.27-.29.58-.32.91-.02.37-.02.7-.02,1s0,.63.02,1c.03.22.08.44.16.65.07.21.2.38.38.5.18.13.43.19.73.19Z"/>
  </g>
  <g>
    <path d="m263.31,74.88c-2.01,0-3.71-.34-5.1-1.01-1.4-.67-2.48-1.65-3.25-2.94-.77-1.29-1.2-2.86-1.28-4.72-.02-.88-.03-1.81-.03-2.82s.01-1.96.03-2.88c.08-1.83.52-3.4,1.3-4.69.78-1.29,1.87-2.28,3.28-2.96s3.09-1.02,5.06-1.02c1.43,0,2.73.18,3.9.54,1.17.36,2.19.89,3.04,1.57.85.68,1.51,1.48,1.98,2.4.47.92.72,1.94.77,3.07,0,.19-.07.35-.21.48-.14.13-.3.19-.5.19h-3.65c-.26,0-.46-.06-.61-.19-.15-.13-.27-.34-.35-.64-.32-1.26-.85-2.12-1.6-2.59-.75-.47-1.68-.7-2.78-.7-1.32,0-2.37.36-3.14,1.09-.77.73-1.18,1.93-1.25,3.62-.06,1.75-.06,3.54,0,5.38.06,1.69.48,2.89,1.25,3.62.77.73,1.81,1.09,3.14,1.09,1.11,0,2.04-.24,2.8-.72.76-.48,1.29-1.34,1.58-2.58.09-.32.2-.54.35-.66.15-.12.35-.18.61-.18h3.65c.19,0,.36.06.5.19s.21.29.21.48c-.04,1.13-.3,2.16-.77,3.07-.47.92-1.13,1.72-1.98,2.4-.85.68-1.87,1.21-3.04,1.57s-2.47.54-3.9.54Z"/>
    <path d="m283.86,74.88c-1.77,0-3.25-.29-4.45-.88-1.19-.59-2.11-1.42-2.74-2.51-.63-1.09-.98-2.36-1.04-3.81-.02-.43-.03-.91-.03-1.46s.01-1.02.03-1.42c.06-1.47.43-2.75,1.09-3.82.66-1.08,1.59-1.91,2.78-2.5,1.19-.59,2.64-.88,4.35-.88s3.12.29,4.32.88c1.19.59,2.12,1.42,2.78,2.5.66,1.08,1.02,2.35,1.09,3.82.04.41.06.88.06,1.42s-.02,1.03-.06,1.46c-.06,1.45-.41,2.72-1.04,3.81-.63,1.09-1.54,1.92-2.74,2.51-1.2.59-2.67.88-4.42.88Zm0-3.52c1.04,0,1.83-.32,2.37-.98.53-.65.82-1.6.86-2.86.02-.32.03-.75.03-1.28s-.01-.96-.03-1.28c-.04-1.24-.33-2.19-.86-2.85-.53-.66-1.32-.99-2.37-.99s-1.84.33-2.38.99c-.54.66-.84,1.61-.88,2.85-.02.32-.03.75-.03,1.28s.01.96.03,1.28c.04,1.26.34,2.21.88,2.86.54.65,1.34.98,2.38.98Z"/>
    <path d="m296.24,74.56c-.21,0-.4-.07-.54-.22-.15-.15-.22-.34-.22-.58v-15.04c0-.21.08-.4.22-.56.15-.16.33-.24.54-.24h3.14c.21,0,.4.08.56.24s.24.35.24.56v1.28c.53-.66,1.19-1.17,1.97-1.54.78-.36,1.68-.54,2.7-.54h1.38c.21,0,.39.08.54.22.15.15.22.34.22.58v2.75c0,.24-.08.43-.22.58s-.33.22-.54.22h-2.82c-.94,0-1.67.26-2.21.78-.53.52-.8,1.26-.8,2.22v8.48c0,.24-.08.43-.22.58s-.34.22-.58.22h-3.36Z"/>
    <path d="m316.62,74.88c-2.45,0-4.4-.68-5.84-2.05-1.44-1.37-2.2-3.35-2.29-5.95v-1.38c.09-1.64.46-3.06,1.12-4.24.66-1.18,1.59-2.09,2.78-2.72s2.59-.94,4.19-.94c1.79,0,3.29.37,4.5,1.1,1.21.74,2.11,1.74,2.72,3.01s.91,2.73.91,4.37v.74c0,.21-.08.4-.24.54-.16.15-.35.22-.56.22h-10.46v.26c.02.68.15,1.31.4,1.87s.6,1.02,1.06,1.36c.46.34,1.01.51,1.65.51.53,0,.97-.07,1.31-.22.34-.15.62-.33.85-.54.22-.21.39-.39.5-.54.19-.21.35-.35.46-.4s.3-.08.56-.08h3.33c.21,0,.39.06.53.18s.2.28.18.5c-.02.34-.2.76-.53,1.26-.33.5-.82.99-1.46,1.47-.64.48-1.43.88-2.38,1.2-.95.32-2.04.48-3.28.48Zm-3.17-10.21h6.27v-.06c0-.77-.12-1.43-.37-2-.25-.56-.6-1.01-1.07-1.33-.47-.32-1.03-.48-1.7-.48s-1.23.16-1.7.48c-.47.32-.83.76-1.07,1.33-.25.57-.37,1.23-.37,2v.06Z"/>
    <path d="m340.08,74.56c-.32,0-.56-.08-.72-.24s-.29-.35-.4-.56l-6.02-14.85c-.04-.08-.06-.18-.06-.29,0-.19.07-.36.21-.5s.3-.21.5-.21h3.1c.28,0,.49.08.62.22.14.15.23.29.27.42l3.94,10.56,3.94-10.56c.06-.13.17-.27.3-.42.14-.15.34-.22.59-.22h3.1c.19,0,.36.07.5.21.14.14.21.3.21.5,0,.11-.01.2-.03.29l-6.05,14.85c-.09.21-.21.4-.38.56-.17.16-.42.24-.74.24h-2.88Z"/>
    <path d="m358.9,74.88c-1.32,0-2.46-.16-3.41-.46-.95-.31-1.72-.69-2.3-1.14-.59-.45-1.02-.9-1.31-1.36s-.44-.85-.46-1.17c-.02-.23.05-.43.22-.58s.34-.22.51-.22h3.1c.06,0,.13.01.19.03.06.02.13.08.19.16.28.19.57.41.86.66s.65.45,1.04.62.89.26,1.49.26c.7,0,1.3-.14,1.79-.43.49-.29.74-.7.74-1.23,0-.38-.11-.7-.34-.96-.22-.26-.65-.49-1.26-.7-.62-.21-1.54-.45-2.75-.7-1.15-.26-2.13-.6-2.94-1.02s-1.42-.96-1.82-1.62c-.41-.65-.61-1.43-.61-2.35,0-.83.26-1.63.78-2.4.52-.77,1.3-1.4,2.32-1.9,1.02-.5,2.3-.75,3.84-.75,1.17,0,2.2.14,3.09.43.88.29,1.63.65,2.22,1.09s1.05.88,1.36,1.34c.31.46.47.86.5,1.2.02.21-.04.39-.19.54s-.32.22-.51.22h-2.85c-.11,0-.2-.02-.29-.05-.09-.03-.16-.08-.22-.14-.26-.17-.52-.37-.78-.59-.27-.22-.58-.42-.94-.59-.36-.17-.83-.26-1.41-.26-.7,0-1.24.16-1.62.46-.37.31-.56.7-.56,1.17,0,.3.1.58.29.83.19.26.59.49,1.18.7.6.21,1.5.44,2.72.67,1.45.26,2.6.64,3.46,1.15s1.47,1.1,1.84,1.78c.37.67.56,1.39.56,2.16,0,1-.3,1.89-.9,2.67-.6.78-1.47,1.39-2.61,1.82-1.14.44-2.54.66-4.21.66Z"/>
    <path d="m385.17,74.88c-2.05,0-3.76-.3-5.14-.9-1.38-.6-2.42-1.38-3.12-2.34s-1.08-1.98-1.12-3.07c0-.17.06-.33.19-.46.13-.14.29-.21.48-.21h3.42c.28,0,.49.06.64.18s.29.26.42.43c.15.36.39.71.72,1.06.33.34.78.62,1.36.85.58.22,1.29.34,2.14.34,1.39,0,2.43-.22,3.12-.67.69-.45,1.04-1.06,1.04-1.82,0-.55-.19-1-.56-1.34-.37-.34-.96-.65-1.76-.93-.8-.28-1.86-.58-3.18-.9-1.6-.34-2.96-.78-4.08-1.33s-1.96-1.25-2.53-2.11c-.57-.86-.85-1.94-.85-3.22s.35-2.42,1.06-3.41c.7-.99,1.7-1.77,2.98-2.34,1.28-.56,2.8-.85,4.58-.85,1.43,0,2.69.19,3.79.58,1.1.38,2.02.89,2.75,1.5.74.62,1.3,1.28,1.68,1.98.38.7.59,1.39.61,2.05,0,.17-.06.33-.19.46s-.29.21-.48.21h-3.58c-.21,0-.41-.04-.58-.13-.17-.08-.31-.23-.42-.45-.13-.55-.51-1.04-1.14-1.46-.63-.42-1.45-.62-2.45-.62s-1.87.19-2.48.58c-.61.38-.91.97-.91,1.76,0,.51.16.94.46,1.3.31.35.83.66,1.57.93.74.27,1.71.56,2.93.88,1.88.38,3.4.84,4.58,1.38s2.04,1.22,2.59,2.06.83,1.9.83,3.18c0,1.43-.4,2.66-1.2,3.68-.8,1.02-1.9,1.81-3.3,2.35s-3.02.82-4.88.82Z"/>
    <path d="m398.77,74.56c-.24,0-.43-.07-.58-.22s-.22-.34-.22-.58v-20.8c0-.23.07-.43.22-.58s.34-.22.58-.22h14.27c.23,0,.43.07.58.22s.22.34.22.58v2.72c0,.24-.08.43-.22.58s-.34.22-.58.22h-10.08v5.41h9.44c.23,0,.43.08.58.22.15.15.22.34.22.58v2.72c0,.21-.07.39-.22.54s-.34.22-.58.22h-9.44v7.58c0,.24-.08.43-.22.58s-.34.22-.58.22h-3.39Z"/>
  </g>
  <g>
    <path d="m677.81,74.88c-2.05,0-3.76-.3-5.14-.9-1.38-.6-2.42-1.38-3.12-2.34-.7-.96-1.08-1.98-1.12-3.07,0-.17.06-.33.19-.46.13-.14.29-.21.48-.21h3.42c.28,0,.49.06.64.18s.29.26.42.43c.15.36.39.71.72,1.06.33.34.78.62,1.36.85.58.22,1.29.34,2.14.34,1.39,0,2.43-.22,3.12-.67.69-.45,1.04-1.06,1.04-1.82,0-.55-.19-1-.56-1.34-.37-.34-.96-.65-1.76-.93-.8-.28-1.86-.58-3.18-.9-1.6-.34-2.96-.78-4.08-1.33-1.12-.54-1.96-1.25-2.53-2.11-.57-.86-.85-1.94-.85-3.22s.35-2.42,1.06-3.41c.71-.99,1.7-1.77,2.98-2.34,1.28-.56,2.8-.85,4.58-.85,1.43,0,2.69.19,3.79.58s2.02.89,2.75,1.5c.74.62,1.3,1.28,1.68,1.98.38.7.59,1.39.61,2.05,0,.17-.06.33-.19.46s-.29.21-.48.21h-3.58c-.21,0-.41-.04-.58-.13-.17-.08-.31-.23-.42-.45-.13-.55-.51-1.04-1.14-1.46s-1.45-.62-2.45-.62-1.87.19-2.48.58c-.61.38-.91.97-.91,1.76,0,.51.15.94.46,1.3.31.35.83.66,1.57.93.74.27,1.71.56,2.93.88,1.88.38,3.4.84,4.58,1.38s2.04,1.22,2.59,2.06c.55.84.83,1.9.83,3.18,0,1.43-.4,2.66-1.2,3.68-.8,1.02-1.9,1.81-3.29,2.35-1.4.54-3.02.82-4.88.82Z"/>
    <path d="m695.15,74.88c-1.13,0-2.14-.22-3.04-.66-.9-.44-1.61-1.03-2.14-1.78-.53-.75-.8-1.58-.8-2.5,0-1.51.61-2.71,1.84-3.58,1.23-.88,2.84-1.47,4.85-1.79l4.19-.61v-.58c0-.83-.19-1.47-.58-1.92-.38-.45-1.06-.67-2.02-.67-.7,0-1.27.14-1.7.42s-.76.64-.99,1.09c-.17.28-.42.42-.74.42h-3.04c-.23,0-.42-.07-.54-.21-.13-.14-.18-.3-.16-.5,0-.36.14-.79.42-1.28.28-.49.7-.98,1.28-1.46.58-.48,1.31-.88,2.21-1.2.9-.32,1.99-.48,3.29-.48s2.5.16,3.46.48c.96.32,1.73.77,2.3,1.34.58.58,1,1.24,1.28,2,.28.76.42,1.57.42,2.45v9.89c0,.24-.08.43-.22.58-.15.15-.34.22-.58.22h-3.14c-.21,0-.4-.07-.54-.22-.15-.15-.22-.34-.22-.58v-1.18c-.28.41-.65.78-1.12,1.14-.47.35-1.03.63-1.68.85-.65.21-1.41.32-2.29.32Zm1.28-3.33c.7,0,1.33-.15,1.89-.45.55-.3.99-.76,1.31-1.38.32-.62.48-1.4.48-2.34v-.54l-2.98.48c-1.15.19-2,.48-2.53.86-.53.38-.8.85-.8,1.41,0,.41.12.76.37,1.06s.57.52.98.67.83.22,1.28.22Z"/>
    <path d="m709.61,74.56c-.24,0-.43-.07-.58-.22-.15-.15-.22-.34-.22-.58v-21.12c0-.23.07-.43.22-.58.15-.15.34-.22.58-.22h3.2c.21,0,.39.08.54.22.15.15.22.34.22.58v21.12c0,.24-.08.43-.22.58-.15.15-.33.22-.54.22h-3.2Z"/>
    <path d="m722.51,74.88c-1.13,0-2.14-.22-3.04-.66-.9-.44-1.61-1.03-2.14-1.78-.53-.75-.8-1.58-.8-2.5,0-1.51.61-2.71,1.84-3.58s2.84-1.47,4.85-1.79l4.19-.61v-.58c0-.83-.19-1.47-.58-1.92s-1.06-.67-2.02-.67c-.7,0-1.27.14-1.7.42-.43.28-.76.64-.99,1.09-.17.28-.42.42-.74.42h-3.04c-.24,0-.42-.07-.54-.21-.13-.14-.18-.3-.16-.5,0-.36.14-.79.42-1.28.28-.49.71-.98,1.28-1.46.58-.48,1.31-.88,2.21-1.2.9-.32,1.99-.48,3.3-.48s2.5.16,3.46.48c.96.32,1.73.77,2.3,1.34s1,1.24,1.28,2c.28.76.42,1.57.42,2.45v9.89c0,.24-.07.43-.22.58s-.34.22-.58.22h-3.14c-.21,0-.39-.07-.54-.22s-.22-.34-.22-.58v-1.18c-.28.41-.65.78-1.12,1.14-.47.35-1.03.63-1.68.85s-1.41.32-2.29.32Zm1.28-3.33c.7,0,1.33-.15,1.89-.45.55-.3.99-.76,1.31-1.38.32-.62.48-1.4.48-2.34v-.54l-2.98.48c-1.15.19-2,.48-2.53.86-.53.38-.8.85-.8,1.41,0,.41.12.76.37,1.06.25.3.57.52.98.67.4.15.83.22,1.28.22Z"/>
    <path d="m736.94,74.56c-.21,0-.39-.07-.54-.22s-.22-.34-.22-.58v-15.04c0-.21.07-.4.22-.56.15-.16.33-.24.54-.24h3.14c.21,0,.4.08.56.24.16.16.24.35.24.56v1.28c.53-.66,1.19-1.17,1.97-1.54.78-.36,1.68-.54,2.7-.54h1.38c.21,0,.39.08.54.22s.22.34.22.58v2.75c0,.24-.08.43-.22.58-.15.15-.33.22-.54.22h-2.82c-.94,0-1.68.26-2.21.78-.53.52-.8,1.26-.8,2.22v8.48c0,.24-.08.43-.22.58s-.34.22-.58.22h-3.36Z"/>
    <path d="m753.13,80.64c-.17,0-.33-.06-.46-.19-.14-.13-.21-.29-.21-.48,0-.04.01-.1.03-.18.02-.08.05-.17.1-.27l2.5-5.98-6.14-14.5c-.06-.17-.1-.31-.1-.42.02-.19.1-.36.22-.5s.29-.21.48-.21h3.1c.28,0,.48.07.61.21.13.14.22.28.29.43l3.97,9.92,4.06-9.92c.08-.17.19-.32.32-.45.13-.13.33-.19.61-.19h3.04c.19,0,.36.07.5.21s.21.29.21.46c0,.11-.04.26-.13.45l-9.06,20.96c-.06.17-.17.32-.3.45-.14.13-.35.19-.62.19h-3.01Z"/>
    <path d="m780.17,74.56c-.32,0-.56-.08-.72-.24-.16-.16-.29-.35-.4-.56l-6.02-14.85c-.04-.08-.06-.18-.06-.29,0-.19.07-.36.21-.5.14-.14.3-.21.5-.21h3.1c.28,0,.48.08.62.22.14.15.23.29.27.42l3.94,10.56,3.94-10.56c.06-.13.17-.27.3-.42.14-.15.34-.22.59-.22h3.1c.19,0,.36.07.5.21s.21.3.21.5c0,.11-.01.2-.03.29l-6.05,14.85c-.08.21-.21.4-.38.56-.17.16-.42.24-.74.24h-2.88Z"/>
    <path d="m798.99,74.88c-1.32,0-2.46-.16-3.41-.46-.95-.31-1.72-.69-2.3-1.14-.59-.45-1.02-.9-1.31-1.36-.29-.46-.44-.85-.46-1.17-.02-.23.05-.43.22-.58.17-.15.34-.22.51-.22h3.1c.06,0,.13.01.19.03.06.02.13.08.19.16.28.19.57.41.86.66s.65.45,1.04.62.89.26,1.49.26c.7,0,1.3-.14,1.79-.43.49-.29.74-.7.74-1.23,0-.38-.11-.7-.34-.96-.22-.26-.65-.49-1.26-.7-.62-.21-1.54-.45-2.75-.7-1.15-.26-2.13-.6-2.94-1.02-.81-.43-1.42-.96-1.82-1.62-.41-.65-.61-1.43-.61-2.35,0-.83.26-1.63.78-2.4.52-.77,1.3-1.4,2.32-1.9,1.02-.5,2.3-.75,3.84-.75,1.17,0,2.2.14,3.09.43.88.29,1.63.65,2.22,1.09s1.05.88,1.36,1.34c.31.46.47.86.5,1.2.02.21-.04.39-.19.54s-.32.22-.51.22h-2.85c-.11,0-.2-.02-.29-.05-.09-.03-.16-.08-.22-.14-.26-.17-.52-.37-.78-.59-.27-.22-.58-.42-.94-.59-.36-.17-.83-.26-1.41-.26-.7,0-1.24.16-1.62.46-.37.31-.56.7-.56,1.17,0,.3.1.58.29.83.19.26.59.49,1.18.7.6.21,1.5.44,2.72.67,1.45.26,2.6.64,3.46,1.15s1.47,1.1,1.84,1.78c.37.67.56,1.39.56,2.16,0,1-.3,1.89-.9,2.67-.6.78-1.47,1.39-2.61,1.82-1.14.44-2.54.66-4.21.66Z"/>
    <path d="m826.09,74.88c-1.94,0-3.62-.32-5.02-.96s-2.51-1.61-3.3-2.9c-.79-1.29-1.22-2.92-1.28-4.88-.02-.92-.03-1.83-.03-2.74s.01-1.83.03-2.77c.06-1.92.5-3.54,1.3-4.85.8-1.31,1.91-2.3,3.33-2.96,1.42-.66,3.08-.99,4.98-.99s3.53.33,4.94.99,2.53,1.65,3.34,2.96c.81,1.31,1.24,2.93,1.28,4.85.04.94.06,1.86.06,2.77s-.02,1.82-.06,2.74c-.06,1.96-.49,3.59-1.28,4.88-.79,1.29-1.89,2.26-3.3,2.9s-3.07.96-4.99.96Zm0-4.13c1.24,0,2.26-.38,3.06-1.14.8-.76,1.22-1.97,1.26-3.63.04-.94.06-1.82.06-2.64s-.02-1.69-.06-2.61c-.02-1.11-.22-2.02-.61-2.72-.38-.7-.89-1.22-1.52-1.55-.63-.33-1.36-.5-2.19-.5s-1.57.17-2.21.5c-.64.33-1.15.85-1.52,1.55-.37.7-.58,1.61-.62,2.72-.02.92-.03,1.79-.03,2.61s.01,1.7.03,2.64c.06,1.66.49,2.88,1.28,3.63.79.76,1.81,1.14,3.07,1.14Z"/>
    <path d="m847.34,74.56c-1.32,0-2.45-.22-3.39-.66-.94-.44-1.65-1.12-2.13-2.03-.48-.92-.72-2.07-.72-3.46v-6.72h-2.5c-.24,0-.43-.08-.58-.22-.15-.15-.22-.34-.22-.58v-2.18c0-.23.07-.43.22-.58s.34-.22.58-.22h2.5v-5.28c0-.23.08-.43.24-.58.16-.15.35-.22.56-.22h3.14c.23,0,.43.08.58.22.15.15.22.34.22.58v5.28h4c.21,0,.39.08.54.22.15.15.22.34.22.58v2.18c0,.24-.08.43-.22.58-.15.15-.33.22-.54.22h-4v6.34c0,.81.14,1.45.43,1.9.29.46.79.69,1.52.69h2.34c.21,0,.39.08.54.22.15.15.22.33.22.54v2.37c0,.24-.08.43-.22.58s-.33.22-.54.22h-2.78Z"/>
    <path d="m854.48,74.56c-.24,0-.43-.07-.58-.22-.15-.15-.22-.34-.22-.58v-21.12c0-.23.08-.43.22-.58s.34-.22.58-.22h3.46c.21,0,.39.08.54.22.15.15.22.34.22.58v7.2c.58-.68,1.28-1.23,2.11-1.63s1.83-.61,3.01-.61c1.26,0,2.37.28,3.34.85s1.73,1.39,2.29,2.46.83,2.38.83,3.92v8.93c0,.24-.08.43-.22.58-.15.15-.34.22-.58.22h-3.49c-.21,0-.39-.07-.54-.22s-.22-.34-.22-.58v-8.74c0-1.13-.28-2.01-.83-2.64-.56-.63-1.34-.94-2.37-.94s-1.81.32-2.42.94c-.61.63-.91,1.51-.91,2.64v8.74c0,.24-.08.43-.22.58-.15.15-.33.22-.54.22h-3.46Z"/>
    <path d="m881.55,74.88c-2.45,0-4.4-.68-5.84-2.05-1.44-1.37-2.2-3.35-2.29-5.95v-1.38c.09-1.64.46-3.06,1.12-4.24.66-1.18,1.59-2.09,2.78-2.72s2.59-.94,4.19-.94c1.79,0,3.29.37,4.5,1.1,1.21.74,2.11,1.74,2.72,3.01s.91,2.73.91,4.37v.74c0,.21-.08.4-.24.54-.16.15-.35.22-.56.22h-10.46v.26c.02.68.15,1.31.4,1.87s.6,1.02,1.06,1.36c.46.34,1.01.51,1.65.51.53,0,.97-.07,1.31-.22.34-.15.62-.33.85-.54.22-.21.39-.39.5-.54.19-.21.35-.35.46-.4s.3-.08.56-.08h3.33c.21,0,.39.06.53.18s.2.28.18.5c-.02.34-.2.76-.53,1.26-.33.5-.82.99-1.46,1.47-.64.48-1.43.88-2.38,1.2-.95.32-2.04.48-3.28.48Zm-3.17-10.21h6.27v-.06c0-.77-.12-1.43-.37-2-.25-.56-.6-1.01-1.07-1.33-.47-.32-1.03-.48-1.7-.48s-1.23.16-1.7.48c-.47.32-.83.76-1.07,1.33-.25.57-.37,1.23-.37,2v.06Z"/>
    <path d="m893.61,74.56c-.21,0-.4-.07-.54-.22-.15-.15-.22-.34-.22-.58v-15.04c0-.21.08-.4.22-.56.15-.16.33-.24.54-.24h3.14c.21,0,.4.08.56.24s.24.35.24.56v1.28c.53-.66,1.19-1.17,1.97-1.54.78-.36,1.68-.54,2.7-.54h1.38c.21,0,.39.08.54.22.15.15.22.34.22.58v2.75c0,.24-.08.43-.22.58s-.33.22-.54.22h-2.82c-.94,0-1.67.26-2.21.78-.53.52-.8,1.26-.8,2.22v8.48c0,.24-.08.43-.22.58s-.34.22-.58.22h-3.36Z"/>
    <path d="m914.35,74.56c-.24,0-.43-.07-.58-.22s-.22-.34-.22-.58v-20.8c0-.23.07-.43.22-.58s.34-.22.58-.22h14.5c.23,0,.43.07.58.22.15.15.22.34.22.58v2.56c0,.21-.08.4-.22.54s-.34.22-.58.22h-10.37v5.02h9.66c.23,0,.43.08.58.22.15.15.22.34.22.58v2.37c0,.21-.08.4-.22.54s-.34.22-.58.22h-9.66v5.18h10.62c.23,0,.43.08.58.22.15.15.22.34.22.58v2.53c0,.24-.08.43-.22.58-.15.15-.34.22-.58.22h-14.75Z"/>
    <path d="m932.65,74.56c-.19,0-.36-.07-.5-.21-.14-.14-.21-.3-.21-.5,0-.06.02-.14.05-.24.03-.1.08-.19.14-.27l5.41-7.33-4.96-6.88c-.06-.08-.11-.17-.14-.26-.03-.08-.05-.17-.05-.26,0-.19.07-.36.21-.5s.3-.21.5-.21h3.33c.26,0,.45.06.59.19.14.13.24.25.3.35l3.3,4.48,3.3-4.45c.08-.11.19-.23.32-.37.13-.14.33-.21.61-.21h3.17c.19,0,.36.07.5.21s.21.3.21.5c0,.08-.01.17-.03.26s-.08.17-.16.26l-5.06,6.91,5.47,7.3c.06.09.11.17.14.26.03.09.05.17.05.26,0,.19-.07.36-.21.5-.14.14-.3.21-.5.21h-3.49c-.23,0-.42-.06-.54-.18s-.23-.23-.32-.34l-3.55-4.74-3.62,4.74c-.06.09-.16.19-.29.32s-.32.19-.58.19h-3.39Z"/>
    <path d="m952.56,80.64c-.24,0-.43-.08-.58-.22s-.22-.34-.22-.58v-21.12c0-.23.08-.43.22-.58s.34-.22.58-.22h3.04c.23,0,.43.08.58.22.15.15.22.34.22.58v1.22c.51-.68,1.17-1.24,1.98-1.68s1.82-.66,3.04-.66c1.11,0,2.08.18,2.9.53.82.35,1.51.85,2.08,1.5.56.65,1,1.43,1.31,2.35.31.92.49,1.95.53,3.1.02.41.03.79.03,1.15s-.01.76-.03,1.18c-.02,1.09-.19,2.09-.5,3.01-.31.92-.75,1.71-1.33,2.37s-1.27,1.17-2.1,1.54-1.79.54-2.9.54-2.03-.2-2.83-.59c-.8-.39-1.46-.93-1.97-1.62v7.17c0,.23-.08.43-.22.58-.15.15-.33.22-.54.22h-3.3Zm7.42-9.6c.81,0,1.45-.18,1.92-.53.47-.35.8-.82,1.01-1.39.2-.58.33-1.21.37-1.89.04-.66.04-1.32,0-1.98-.04-.68-.17-1.31-.37-1.89-.2-.58-.54-1.04-1.01-1.39-.47-.35-1.11-.53-1.92-.53s-1.43.18-1.92.54c-.49.36-.84.82-1.06,1.38-.21.56-.34,1.15-.38,1.79-.02.38-.03.78-.03,1.18s.01.81.03,1.22c.02.6.15,1.16.4,1.68.25.52.61.96,1.09,1.3.48.34,1.1.51,1.87.51Z"/>
    <path d="m979.09,74.88c-2.45,0-4.4-.68-5.84-2.05-1.44-1.37-2.2-3.35-2.29-5.95v-1.38c.09-1.64.46-3.06,1.12-4.24.66-1.18,1.59-2.09,2.78-2.72s2.59-.94,4.19-.94c1.79,0,3.29.37,4.5,1.1,1.21.74,2.11,1.74,2.72,3.01s.91,2.73.91,4.37v.74c0,.21-.08.4-.24.54-.16.15-.35.22-.56.22h-10.46v.26c.02.68.15,1.31.4,1.87s.6,1.02,1.06,1.36c.46.34,1.01.51,1.65.51.53,0,.97-.07,1.31-.22.34-.15.62-.33.85-.54.22-.21.39-.39.5-.54.19-.21.35-.35.46-.4s.3-.08.56-.08h3.33c.21,0,.39.06.53.18s.2.28.18.5c-.02.34-.2.76-.53,1.26-.33.5-.82.99-1.46,1.47-.64.48-1.43.88-2.38,1.2-.95.32-2.04.48-3.28.48Zm-3.17-10.21h6.27v-.06c0-.77-.12-1.43-.37-2-.25-.56-.6-1.01-1.07-1.33-.47-.32-1.03-.48-1.7-.48s-1.23.16-1.7.48c-.47.32-.83.76-1.07,1.33-.25.57-.37,1.23-.37,2v.06Z"/>
    <path d="m991.15,74.56c-.21,0-.4-.07-.54-.22-.15-.15-.22-.34-.22-.58v-15.04c0-.23.08-.43.22-.58s.33-.22.54-.22h3.14c.23,0,.43.08.58.22.15.15.22.34.22.58v1.25c.55-.68,1.27-1.25,2.14-1.7.87-.45,1.94-.67,3.2-.67s2.36.28,3.31.85,1.7,1.39,2.24,2.46.82,2.38.82,3.92v8.93c0,.24-.08.43-.24.58-.16.15-.35.22-.56.22h-3.39c-.24,0-.43-.07-.58-.22s-.22-.34-.22-.58v-8.74c0-1.13-.27-2.01-.82-2.64-.54-.63-1.34-.94-2.38-.94s-1.8.32-2.4.94c-.6.63-.9,1.51-.9,2.64v8.74c0,.24-.08.43-.22.58s-.33.22-.54.22h-3.39Z"/>
    <path d="m1017.2,74.88c-1.32,0-2.46-.16-3.41-.46-.95-.31-1.72-.69-2.3-1.14-.59-.45-1.02-.9-1.31-1.36s-.44-.85-.46-1.17c-.02-.23.05-.43.22-.58s.34-.22.51-.22h3.1c.06,0,.13.01.19.03.06.02.13.08.19.16.28.19.57.41.86.66s.65.45,1.04.62.89.26,1.49.26c.7,0,1.3-.14,1.79-.43.49-.29.74-.7.74-1.23,0-.38-.11-.7-.34-.96-.22-.26-.65-.49-1.26-.7-.62-.21-1.54-.45-2.75-.7-1.15-.26-2.13-.6-2.94-1.02s-1.42-.96-1.82-1.62c-.41-.65-.61-1.43-.61-2.35,0-.83.26-1.63.78-2.4.52-.77,1.3-1.4,2.32-1.9,1.02-.5,2.3-.75,3.84-.75,1.17,0,2.2.14,3.09.43.88.29,1.63.65,2.22,1.09s1.05.88,1.36,1.34c.31.46.47.86.5,1.2.02.21-.04.39-.19.54s-.32.22-.51.22h-2.85c-.11,0-.2-.02-.29-.05-.09-.03-.16-.08-.22-.14-.26-.17-.52-.37-.78-.59-.27-.22-.58-.42-.94-.59-.36-.17-.83-.26-1.41-.26-.7,0-1.24.16-1.62.46-.37.31-.56.7-.56,1.17,0,.3.1.58.29.83.19.26.59.49,1.18.7.6.21,1.5.44,2.72.67,1.45.26,2.6.64,3.46,1.15s1.47,1.1,1.84,1.78c.37.67.56,1.39.56,2.16,0,1-.3,1.89-.9,2.67-.6.78-1.47,1.39-2.61,1.82-1.14.44-2.54.66-4.21.66Z"/>
    <path d="m1035.41,74.88c-2.45,0-4.4-.68-5.84-2.05-1.44-1.37-2.2-3.35-2.29-5.95v-1.38c.09-1.64.46-3.06,1.12-4.24.66-1.18,1.59-2.09,2.78-2.72s2.59-.94,4.19-.94c1.79,0,3.29.37,4.5,1.1,1.21.74,2.11,1.74,2.72,3.01s.91,2.73.91,4.37v.74c0,.21-.08.4-.24.54-.16.15-.35.22-.56.22h-10.46v.26c.02.68.15,1.31.4,1.87s.6,1.02,1.06,1.36c.46.34,1.01.51,1.65.51.53,0,.97-.07,1.31-.22.34-.15.62-.33.85-.54.22-.21.39-.39.5-.54.19-.21.35-.35.46-.4s.3-.08.56-.08h3.33c.21,0,.39.06.53.18s.2.28.18.5c-.02.34-.2.76-.53,1.26-.33.5-.82.99-1.46,1.47-.64.48-1.43.88-2.38,1.2-.95.32-2.04.48-3.28.48Zm-3.17-10.21h6.27v-.06c0-.77-.12-1.43-.37-2-.25-.56-.6-1.01-1.07-1.33-.47-.32-1.03-.48-1.7-.48s-1.23.16-1.7.48c-.47.32-.83.76-1.07,1.33-.25.57-.37,1.23-.37,2v.06Z"/>
    <path d="m1053.26,74.88c-1.32,0-2.46-.16-3.41-.46-.95-.31-1.72-.69-2.3-1.14-.59-.45-1.02-.9-1.31-1.36s-.44-.85-.46-1.17c-.02-.23.05-.43.22-.58s.34-.22.51-.22h3.1c.06,0,.13.01.19.03.06.02.13.08.19.16.28.19.57.41.86.66s.65.45,1.04.62.89.26,1.49.26c.7,0,1.3-.14,1.79-.43.49-.29.74-.7.74-1.23,0-.38-.11-.7-.34-.96-.22-.26-.65-.49-1.26-.7-.62-.21-1.54-.45-2.75-.7-1.15-.26-2.13-.6-2.94-1.02s-1.42-.96-1.82-1.62c-.41-.65-.61-1.43-.61-2.35,0-.83.26-1.63.78-2.4.52-.77,1.3-1.4,2.32-1.9,1.02-.5,2.3-.75,3.84-.75,1.17,0,2.2.14,3.09.43.88.29,1.63.65,2.22,1.09s1.05.88,1.36,1.34c.31.46.47.86.5,1.2.02.21-.04.39-.19.54s-.32.22-.51.22h-2.85c-.11,0-.2-.02-.29-.05-.09-.03-.16-.08-.22-.14-.26-.17-.52-.37-.78-.59-.27-.22-.58-.42-.94-.59-.36-.17-.83-.26-1.41-.26-.7,0-1.24.16-1.62.46-.37.31-.56.7-.56,1.17,0,.3.1.58.29.83.19.26.59.49,1.18.7.6.21,1.5.44,2.72.67,1.45.26,2.6.64,3.46,1.15s1.47,1.1,1.84,1.78c.37.67.56,1.39.56,2.16,0,1-.3,1.89-.9,2.67-.6.78-1.47,1.39-2.61,1.82-1.14.44-2.54.66-4.21.66Z"/>
  </g>
  <g>
    <circle class="cls-1" cx="265.56" cy="625.09" r="11.34"/>
    <g>
      <path d="m295.18,631.76c-.87,0-1.6-.15-2.21-.46-.6-.3-1.06-.74-1.38-1.3-.32-.56-.5-1.24-.53-2.04,0-.38-.01-.79-.01-1.23s0-.86.01-1.26c.04-.78.22-1.46.54-2.03s.79-1.01,1.39-1.31c.6-.3,1.33-.46,2.19-.46.63,0,1.2.08,1.71.25.5.17.93.4,1.29.69.35.29.63.64.83,1.03.2.39.3.82.31,1.27,0,.08-.02.15-.08.21-.06.06-.13.08-.22.08h-1.33c-.1,0-.19-.03-.25-.08-.07-.05-.11-.14-.14-.26-.15-.62-.41-1.04-.77-1.26-.37-.22-.82-.34-1.36-.34-.63,0-1.12.17-1.5.53-.38.35-.57.93-.6,1.73-.03.77-.03,1.55,0,2.35.03.8.23,1.38.6,1.73.37.35.87.53,1.5.53.54,0,1-.11,1.36-.34.37-.23.62-.65.76-1.25.03-.13.07-.22.14-.27.06-.05.15-.07.25-.07h1.33c.08,0,.16.03.22.08.06.06.09.13.08.21,0,.46-.11.88-.31,1.27-.2.39-.47.74-.83,1.03-.36.29-.79.52-1.29.69s-1.07.25-1.71.25Z"/>
      <path d="m304.03,631.76c-.75,0-1.38-.13-1.88-.39-.51-.26-.9-.63-1.16-1.11-.27-.48-.42-1.03-.46-1.67,0-.17-.01-.37-.01-.62s0-.45.01-.62c.04-.64.19-1.2.47-1.67.28-.47.67-.84,1.18-1.1.51-.26,1.13-.39,1.86-.39s1.35.13,1.86.39c.51.26.9.63,1.18,1.1.28.47.43,1.03.47,1.67,0,.17.01.37.01.62s0,.45-.01.62c-.04.63-.19,1.19-.46,1.67-.27.48-.65.84-1.16,1.11-.51.26-1.14.39-1.88.39Zm0-1.39c.49,0,.88-.16,1.15-.47.27-.31.42-.77.45-1.38,0-.14.01-.32.01-.55s0-.41-.01-.55c-.03-.61-.18-1.07-.45-1.38-.27-.31-.65-.47-1.15-.47s-.88.16-1.15.47c-.27.31-.42.77-.45,1.38,0,.14-.01.32-.01.55s0,.41.01.55c.03.61.18,1.07.45,1.38.27.31.65.47,1.15.47Z"/>
      <path d="m309.43,631.62c-.09,0-.17-.03-.24-.1s-.1-.14-.1-.24v-6.59c0-.1.03-.19.1-.25s.14-.1.24-.1h1.13c.09,0,.18.03.25.1s.11.15.11.25v.57c.21-.3.49-.53.83-.69.34-.16.73-.24,1.18-.24h.57c.1,0,.18.03.24.1s.09.14.09.24v1.01c0,.09-.03.17-.09.24s-.14.1-.24.1h-1.09c-.45,0-.8.12-1.04.37-.25.25-.37.59-.37,1.04v3.85c0,.09-.03.17-.1.24-.07.07-.15.1-.25.1h-1.22Z"/>
      <path d="m317.97,631.76c-1.04,0-1.86-.3-2.46-.9-.61-.6-.93-1.45-.98-2.55,0-.09-.02-.21-.02-.36s0-.26.02-.34c.04-.71.2-1.32.48-1.83s.68-.9,1.18-1.18,1.1-.41,1.78-.41c.76,0,1.39.16,1.9.47s.9.75,1.16,1.3c.26.56.39,1.2.39,1.93v.29c0,.09-.03.17-.1.24-.06.07-.15.1-.25.1h-4.65v.11c0,.33.07.63.19.9s.29.5.52.67c.23.17.5.25.82.25.26,0,.48-.04.66-.12.18-.08.32-.17.43-.27s.19-.19.24-.25c.08-.11.15-.18.2-.2.05-.02.13-.04.23-.04h1.2c.09,0,.17.03.23.08s.09.13.08.21c0,.15-.09.33-.23.55s-.35.42-.62.63c-.27.21-.61.38-1.02.51-.41.14-.87.2-1.39.2Zm-1.54-4.41h3.1v-.04c0-.36-.06-.68-.18-.96-.12-.27-.3-.49-.53-.64s-.51-.23-.84-.23-.61.08-.84.23c-.23.15-.41.37-.53.64-.12.28-.18.6-.18.96v.04Z"/>
    </g>
    <circle class="cls-3" cx="363.73" cy="625.09" r="11.34"/>
    <g>
      <path d="m392.74,631.76c-.87,0-1.59-.13-2.18-.38-.58-.26-1.03-.59-1.33-1.01-.3-.42-.46-.85-.48-1.31,0-.08.03-.15.08-.21.06-.06.13-.08.21-.08h1.25c.12,0,.21.03.27.08.06.05.11.11.16.19.06.18.16.35.32.52.16.17.38.32.65.43.28.11.62.17,1.04.17.67,0,1.17-.11,1.5-.34.33-.22.5-.53.5-.91,0-.27-.09-.49-.27-.65-.18-.16-.45-.31-.82-.45-.37-.13-.86-.28-1.46-.43-.7-.17-1.29-.37-1.76-.61-.47-.24-.83-.54-1.06-.9s-.36-.83-.36-1.39.15-1.02.44-1.44.71-.75,1.26-.99c.55-.24,1.2-.36,1.95-.36.61,0,1.14.08,1.61.25.47.16.85.38,1.16.64.31.27.54.55.71.85.16.3.25.6.26.89,0,.07-.03.14-.08.2-.05.06-.12.09-.22.09h-1.3c-.08,0-.15-.02-.22-.06-.07-.04-.13-.11-.18-.21-.06-.29-.24-.54-.55-.74-.31-.21-.71-.31-1.19-.31s-.91.09-1.22.28-.46.48-.46.87c0,.26.08.48.23.65.15.17.4.32.74.46s.79.27,1.35.42c.79.18,1.44.38,1.95.62s.87.53,1.11.89c.23.36.35.81.35,1.37,0,.62-.17,1.14-.5,1.58s-.8.77-1.39,1c-.6.23-1.29.35-2.09.35Z"/>
      <path d="m398.67,631.62c-.09,0-.17-.03-.24-.1-.07-.07-.1-.14-.1-.24v-9.11c0-.1.03-.19.1-.25.06-.07.14-.1.24-.1h6.08c.1,0,.19.03.25.1s.1.15.1.25v.98c0,.1-.03.18-.1.25s-.15.09-.25.09h-4.49v2.66h4.21c.1,0,.19.03.25.1s.1.15.1.25v.98c0,.09-.03.17-.1.24-.07.07-.15.1-.25.1h-4.21v3.47c0,.09-.03.17-.1.24s-.15.1-.25.1h-1.23Z"/>
    </g>
  </g>
  <g>
    <circle class="cls-1" cx="811.03" cy="625.09" r="11.34"/>
    <g>
      <path d="m840.27,631.76c-.87,0-1.59-.13-2.18-.38-.58-.26-1.03-.59-1.33-1.01-.3-.42-.46-.85-.48-1.31,0-.08.03-.15.08-.21.06-.06.13-.08.21-.08h1.25c.12,0,.21.03.27.08.06.05.11.11.16.19.06.18.16.35.32.52.16.17.38.32.65.43.28.11.62.17,1.04.17.67,0,1.17-.11,1.5-.34.33-.22.5-.53.5-.91,0-.27-.09-.49-.27-.65-.18-.16-.45-.31-.82-.45-.37-.13-.86-.28-1.46-.43-.7-.17-1.29-.37-1.76-.61-.47-.24-.83-.54-1.06-.9s-.36-.83-.36-1.39.15-1.02.44-1.44.71-.75,1.26-.99c.55-.24,1.2-.36,1.95-.36.61,0,1.14.08,1.61.25.47.16.85.38,1.16.64.31.27.54.55.71.85.16.3.25.6.26.89,0,.07-.03.14-.08.2-.05.06-.12.09-.22.09h-1.3c-.08,0-.15-.02-.22-.06-.07-.04-.13-.11-.18-.21-.06-.29-.24-.54-.55-.74-.31-.21-.71-.31-1.19-.31s-.91.09-1.22.28-.46.48-.46.87c0,.26.08.48.23.65.15.17.4.32.74.46s.79.27,1.35.42c.79.18,1.44.38,1.95.62s.87.53,1.11.89c.23.36.35.81.35,1.37,0,.62-.17,1.14-.5,1.58s-.8.77-1.39,1c-.6.23-1.29.35-2.09.35Z"/>
      <path d="m847.8,631.76c-.49,0-.92-.1-1.32-.29-.39-.19-.7-.45-.93-.77s-.34-.68-.34-1.08c0-.65.27-1.17.8-1.56.53-.39,1.23-.65,2.09-.78l1.92-.28v-.29c0-.39-.1-.7-.29-.91s-.53-.32-1.01-.32c-.34,0-.61.07-.82.2-.21.14-.37.32-.47.54-.08.12-.18.18-.32.18h-1.11c-.1,0-.18-.03-.23-.08-.05-.06-.08-.13-.08-.22,0-.15.07-.33.19-.55.12-.21.29-.42.53-.62.24-.2.55-.37.93-.51s.84-.21,1.39-.21c.59,0,1.08.07,1.49.22s.73.34.97.58.42.53.53.85c.11.33.17.67.17,1.04v4.4c0,.09-.03.17-.1.24-.07.07-.15.1-.24.1h-1.13c-.1,0-.18-.03-.25-.1s-.09-.14-.09-.24v-.55c-.12.17-.29.33-.49.49-.21.16-.46.29-.75.38-.29.1-.64.15-1.04.15Zm.48-1.33c.33,0,.62-.07.89-.21.27-.14.48-.36.63-.65.15-.29.23-.67.23-1.11v-.29l-1.4.22c-.55.08-.96.22-1.23.41s-.41.42-.41.69c0,.21.06.38.19.52s.29.25.48.32c.2.07.4.1.62.1Z"/>
      <path d="m854.03,631.62c-.09,0-.17-.03-.24-.1s-.1-.14-.1-.24v-9.27c0-.09.03-.17.1-.24s.14-.1.24-.1h1.16c.09,0,.17.03.24.1s.1.14.1.24v9.27c0,.09-.03.17-.1.24s-.14.1-.24.1h-1.16Z"/>
      <path d="m859.51,631.76c-.49,0-.92-.1-1.32-.29-.39-.19-.7-.45-.93-.77s-.34-.68-.34-1.08c0-.65.27-1.17.8-1.56.53-.39,1.23-.65,2.09-.78l1.92-.28v-.29c0-.39-.1-.7-.29-.91s-.53-.32-1.01-.32c-.34,0-.61.07-.82.2-.21.14-.37.32-.47.54-.08.12-.18.18-.32.18h-1.11c-.1,0-.18-.03-.23-.08-.05-.06-.08-.13-.08-.22,0-.15.07-.33.19-.55.12-.21.29-.42.53-.62.24-.2.55-.37.93-.51s.84-.21,1.39-.21c.59,0,1.08.07,1.49.22s.73.34.97.58.42.53.53.85c.11.33.17.67.17,1.04v4.4c0,.09-.03.17-.1.24-.07.07-.15.1-.24.1h-1.13c-.1,0-.18-.03-.25-.1s-.09-.14-.09-.24v-.55c-.12.17-.29.33-.49.49-.21.16-.46.29-.75.38-.29.1-.64.15-1.04.15Zm.48-1.33c.33,0,.62-.07.89-.21.27-.14.48-.36.63-.65.15-.29.23-.67.23-1.11v-.29l-1.4.22c-.55.08-.96.22-1.23.41s-.41.42-.41.69c0,.21.06.38.19.52s.29.25.48.32c.2.07.4.1.62.1Z"/>
      <path d="m865.72,631.62c-.09,0-.17-.03-.24-.1-.07-.07-.1-.14-.1-.24v-6.59c0-.1.03-.19.1-.25.06-.07.14-.1.24-.1h1.13c.09,0,.18.03.25.1.07.07.11.15.11.25v.57c.21-.3.49-.53.83-.69.34-.16.73-.24,1.18-.24h.57c.1,0,.18.03.25.1s.09.14.09.24v1.01c0,.09-.03.17-.09.24s-.14.1-.25.1h-1.09c-.45,0-.8.12-1.04.37-.25.25-.37.59-.37,1.04v3.85c0,.09-.03.17-.1.24-.07.07-.15.1-.25.1h-1.22Z"/>
      <path d="m872.54,634.28c-.08,0-.14-.03-.2-.08-.06-.06-.08-.12-.08-.2,0-.04,0-.07,0-.1,0-.03.02-.07.05-.12l1.09-2.59-2.69-6.34c-.04-.09-.06-.16-.06-.2,0-.08.04-.16.1-.22.06-.06.13-.09.21-.09h1.13c.11,0,.2.03.25.08s.1.12.13.18l1.86,4.58,1.92-4.58c.03-.08.07-.14.13-.19.06-.05.14-.08.25-.08h1.12c.07,0,.14.03.2.08.06.06.09.12.09.2,0,.06-.02.13-.06.22l-3.96,9.17c-.04.08-.08.14-.14.19-.06.05-.14.08-.25.08h-1.11Z"/>
    </g>
    <circle class="cls-3" cx="909.2" cy="625.09" r="11.34"/>
    <g>
      <path d="m938.58,631.76c-.83,0-1.54-.14-2.14-.41-.6-.27-1.06-.7-1.4-1.27s-.52-1.29-.55-2.15c0-.4-.01-.8-.01-1.19s0-.79.01-1.2c.03-.85.21-1.56.56-2.13.34-.57.82-1,1.42-1.29s1.3-.43,2.11-.43,1.51.15,2.11.43,1.08.72,1.43,1.29c.34.57.53,1.28.56,2.13.02.41.03.81.03,1.2s0,.79-.03,1.19c-.03.86-.21,1.58-.55,2.15s-.8,1-1.41,1.27c-.6.28-1.32.41-2.15.41Zm0-1.61c.61,0,1.1-.18,1.48-.54s.59-.95.62-1.76c.02-.41.03-.79.03-1.14s0-.73-.03-1.13c-.02-.54-.12-.98-.3-1.32-.18-.34-.43-.59-.74-.74-.31-.15-.66-.23-1.06-.23s-.74.08-1.05.23c-.31.15-.55.4-.73.74-.18.34-.28.78-.3,1.32,0,.4-.01.78-.01,1.13s0,.73.01,1.14c.03.81.23,1.4.62,1.76s.87.54,1.47.54Z"/>
      <path d="m947.66,631.62c-.56,0-1.03-.1-1.41-.29s-.67-.49-.85-.88c-.19-.39-.28-.87-.28-1.45v-3.18h-1.11c-.09,0-.17-.03-.24-.1-.07-.07-.1-.15-.1-.25v-.8c0-.09.03-.17.1-.24.06-.07.14-.1.24-.1h1.11v-2.32c0-.09.03-.17.09-.24s.14-.1.25-.1h1.13c.09,0,.17.03.24.1s.1.14.1.24v2.32h1.75c.09,0,.17.03.24.1s.1.14.1.24v.8c0,.1-.03.19-.1.25s-.14.1-.24.1h-1.75v3.04c0,.38.07.68.2.9.14.21.37.32.71.32h.97c.09,0,.17.03.24.1.07.07.1.15.1.24v.87c0,.09-.03.17-.1.24s-.14.1-.24.1h-1.13Z"/>
      <path d="m950.73,631.62c-.09,0-.17-.03-.24-.1s-.1-.14-.1-.24v-9.27c0-.09.03-.17.1-.24s.14-.1.24-.1h1.25c.1,0,.18.03.25.1s.09.14.09.24v3.19c.25-.3.56-.54.92-.73.36-.19.81-.28,1.34-.28.57,0,1.07.13,1.49.38s.75.62.99,1.08.35,1.03.35,1.68v3.93c0,.09-.03.17-.1.24-.06.07-.14.1-.24.1h-1.26c-.09,0-.17-.03-.24-.1s-.1-.14-.1-.24v-3.85c0-.54-.13-.97-.4-1.27s-.65-.46-1.16-.46-.88.15-1.17.46-.44.73-.44,1.27v3.85c0,.09-.03.17-.09.24s-.14.1-.25.1h-1.25Z"/>
      <path d="m962.32,631.76c-1.04,0-1.86-.3-2.46-.9s-.93-1.45-.98-2.55c0-.09-.01-.21-.01-.36s0-.26.01-.34c.04-.71.2-1.32.48-1.83.29-.51.68-.9,1.18-1.18s1.1-.41,1.78-.41c.76,0,1.39.16,1.9.47s.9.75,1.16,1.3c.26.56.39,1.2.39,1.93v.29c0,.09-.03.17-.1.24-.07.07-.15.1-.25.1h-4.65v.11c0,.33.07.63.19.9.12.28.29.5.52.67.23.17.5.25.82.25.26,0,.48-.04.66-.12.18-.08.32-.17.43-.27.11-.1.19-.19.24-.25.08-.11.15-.18.2-.2.05-.02.13-.04.23-.04h1.2c.09,0,.17.03.23.08s.09.13.08.21c0,.15-.09.33-.23.55s-.35.42-.62.63c-.27.21-.61.38-1.01.51-.41.14-.87.2-1.39.2Zm-1.54-4.41h3.09v-.04c0-.36-.06-.68-.18-.96-.12-.27-.3-.49-.53-.64-.23-.15-.51-.23-.84-.23s-.61.08-.84.23-.41.37-.52.64c-.12.28-.18.6-.18.96v.04Z"/>
      <path d="m967.6,631.62c-.09,0-.17-.03-.24-.1-.07-.07-.1-.14-.1-.24v-6.59c0-.1.03-.19.1-.25.06-.07.14-.1.24-.1h1.13c.09,0,.18.03.25.1.07.07.11.15.11.25v.57c.21-.3.49-.53.83-.69.34-.16.73-.24,1.18-.24h.57c.1,0,.18.03.25.1s.09.14.09.24v1.01c0,.09-.03.17-.09.24s-.14.1-.25.1h-1.09c-.45,0-.8.12-1.04.37-.25.25-.37.59-.37,1.04v3.85c0,.09-.03.17-.1.24-.07.07-.15.1-.25.1h-1.22Z"/>
    </g>
  </g>
</svg>